<svg width="124" height="26" viewBox="0 0 124 26" fill="none" xmlns="http://www.w3.org/2000/svg">
<rect width="124" height="26" rx="13" fill="#141D2E"/>
<path d="M12.7466 17.1099C12.3275 17.1099 11.9511 17.0285 11.6174 16.8657C11.2878 16.703 11.0274 16.4731 10.8362 16.176C10.649 15.8749 10.5554 15.5209 10.5554 15.114V15.1018C10.5554 14.7071 10.6531 14.3674 10.8484 14.0825C11.0437 13.7936 11.3306 13.5678 11.709 13.405C12.0874 13.2423 12.5472 13.1466 13.0884 13.1182L15.5542 12.9656V13.9666L13.302 14.113C12.8748 14.1375 12.5594 14.227 12.356 14.3816C12.1525 14.5362 12.0508 14.7519 12.0508 15.0286V15.0408C12.0508 15.3256 12.1586 15.5474 12.3743 15.7061C12.594 15.8647 12.8727 15.9441 13.2104 15.9441C13.5156 15.9441 13.7882 15.8831 14.0283 15.761C14.2684 15.6389 14.4576 15.4741 14.5959 15.2666C14.7343 15.055 14.8035 14.817 14.8035 14.5525V12.4407C14.8035 12.107 14.6977 11.8527 14.4861 11.6777C14.2745 11.4987 13.9612 11.4092 13.5461 11.4092C13.2003 11.4092 12.9175 11.4702 12.6978 11.5923C12.478 11.7103 12.3295 11.8792 12.2522 12.0989L12.2461 12.1233H10.8118L10.8179 12.0684C10.8667 11.694 11.0132 11.3665 11.2573 11.0857C11.5015 10.8049 11.825 10.5872 12.2278 10.4326C12.6306 10.278 13.0945 10.2007 13.6194 10.2007C14.1972 10.2007 14.6855 10.2902 15.0842 10.4692C15.483 10.6442 15.7861 10.9006 15.9937 11.2383C16.2012 11.5719 16.3049 11.9727 16.3049 12.4407V17H14.8035V16.0845H14.6997C14.5776 16.2961 14.4189 16.4792 14.2236 16.6338C14.0324 16.7884 13.8127 16.9064 13.5645 16.9878C13.3162 17.0692 13.0436 17.1099 12.7466 17.1099ZM20.5347 17.1099C19.9813 17.1099 19.4991 16.9715 19.0881 16.6948C18.6772 16.4141 18.3598 16.0153 18.136 15.4985C17.9122 14.9818 17.8003 14.3735 17.8003 13.6736V13.6614C17.8003 12.9534 17.9102 12.343 18.1299 11.8303C18.3537 11.3136 18.669 10.9168 19.0759 10.6401C19.4869 10.3594 19.9731 10.219 20.5347 10.219C20.8398 10.219 21.1247 10.2678 21.3892 10.3655C21.6536 10.4591 21.8856 10.5933 22.085 10.7683C22.2884 10.9433 22.4471 11.1508 22.561 11.3909H22.6709V7.74707H24.1846V17H22.6709V15.9563H22.561C22.439 16.1964 22.2782 16.4039 22.0789 16.5789C21.8835 16.7498 21.6557 16.882 21.3953 16.9756C21.1348 17.0651 20.848 17.1099 20.5347 17.1099ZM21.0107 15.8281C21.3566 15.8281 21.6536 15.7427 21.9019 15.5718C22.1541 15.3968 22.3474 15.1486 22.4817 14.8271C22.62 14.5016 22.6892 14.1171 22.6892 13.6736V13.6614C22.6892 13.2138 22.62 12.8293 22.4817 12.5078C22.3474 12.1864 22.1541 11.9382 21.9019 11.7632C21.6536 11.5882 21.3566 11.5007 21.0107 11.5007C20.6689 11.5007 20.3719 11.5882 20.1196 11.7632C19.8714 11.9341 19.6802 12.1823 19.5459 12.5078C19.4116 12.8293 19.3445 13.2138 19.3445 13.6614V13.6736C19.3445 14.1212 19.4116 14.5057 19.5459 14.8271C19.6802 15.1486 19.8714 15.3968 20.1196 15.5718C20.3678 15.7427 20.6649 15.8281 21.0107 15.8281ZM28.9819 17.1343C28.3187 17.1343 27.747 16.9959 27.2668 16.7192C26.7867 16.4385 26.4164 16.0397 26.156 15.5229C25.8997 15.0062 25.7715 14.3877 25.7715 13.6675V13.6553C25.7715 12.9432 25.9017 12.3288 26.1621 11.812C26.4225 11.2912 26.7908 10.8924 27.2668 10.6157C27.747 10.339 28.3187 10.2007 28.9819 10.2007C29.6452 10.2007 30.2148 10.339 30.6909 10.6157C31.1711 10.8924 31.5413 11.2891 31.8018 11.8059C32.0622 12.3227 32.1924 12.9391 32.1924 13.6553V13.6675C32.1924 14.3877 32.0622 15.0062 31.8018 15.5229C31.5454 16.0397 31.1772 16.4385 30.697 16.7192C30.2209 16.9959 29.6493 17.1343 28.9819 17.1343ZM28.9819 15.9014C29.3319 15.9014 29.6289 15.8139 29.873 15.6389C30.1213 15.4599 30.3105 15.2056 30.4407 14.876C30.5709 14.5423 30.636 14.1415 30.636 13.6736V13.6614C30.636 13.1894 30.5709 12.7886 30.4407 12.459C30.3105 12.1253 30.1213 11.871 29.873 11.696C29.6289 11.517 29.3319 11.4275 28.9819 11.4275C28.632 11.4275 28.3329 11.517 28.0847 11.696C27.8365 11.871 27.6473 12.1253 27.5171 12.459C27.3869 12.7886 27.3218 13.1894 27.3218 13.6614V13.6736C27.3218 14.1415 27.3869 14.5423 27.5171 14.876C27.6473 15.2096 27.8345 15.4639 28.0786 15.6389C28.3268 15.8139 28.6279 15.9014 28.9819 15.9014ZM37.4292 17.1099C37.1159 17.1099 36.829 17.0651 36.5686 16.9756C36.3082 16.882 36.0783 16.7498 35.8789 16.5789C35.6836 16.4039 35.5249 16.1964 35.4028 15.9563H35.2991V17H33.7793V7.74707H35.2991V11.3909H35.4028C35.5208 11.1508 35.6795 10.9433 35.8789 10.7683C36.0783 10.5933 36.3102 10.4591 36.5747 10.3655C36.8392 10.2678 37.124 10.219 37.4292 10.219C37.9907 10.219 38.4749 10.3594 38.8818 10.6401C39.2928 10.9168 39.6102 11.3136 39.834 11.8303C40.0578 12.343 40.1697 12.9534 40.1697 13.6614V13.6736C40.1697 14.3735 40.0557 14.9818 39.8279 15.4985C39.6041 16.0153 39.2867 16.4141 38.8757 16.6948C38.4688 16.9715 37.9867 17.1099 37.4292 17.1099ZM36.9531 15.8281C37.299 15.8281 37.596 15.7427 37.8442 15.5718C38.0924 15.3968 38.2837 15.1486 38.418 14.8271C38.5522 14.5057 38.6194 14.1212 38.6194 13.6736V13.6614C38.6194 13.2138 38.5522 12.8293 38.418 12.5078C38.2837 12.1823 38.0924 11.9341 37.8442 11.7632C37.596 11.5882 37.299 11.5007 36.9531 11.5007C36.6113 11.5007 36.3143 11.5882 36.062 11.7632C35.8097 11.9382 35.6144 12.1864 35.4761 12.5078C35.3418 12.8293 35.2747 13.2138 35.2747 13.6614V13.6736C35.2747 14.1171 35.3418 14.5016 35.4761 14.8271C35.6144 15.1486 35.8077 15.3968 36.0559 15.5718C36.3082 15.7427 36.6073 15.8281 36.9531 15.8281ZM44.5459 17.1343C43.8826 17.1343 43.313 16.9939 42.8369 16.7131C42.3649 16.4324 42.0007 16.0336 41.7444 15.5168C41.488 15.0001 41.3599 14.3877 41.3599 13.6797V13.6736C41.3599 12.9737 41.486 12.3634 41.7383 11.8425C41.9946 11.3217 42.3568 10.9189 42.8247 10.634C43.2926 10.3451 43.842 10.2007 44.4727 10.2007C45.1074 10.2007 45.6527 10.3411 46.1084 10.6218C46.5682 10.8985 46.9222 11.2871 47.1704 11.7876C47.4186 12.2881 47.5427 12.874 47.5427 13.5454V14.0459H42.1228V13.0266H46.7981L46.0779 13.9788V13.3745C46.0779 12.931 46.0107 12.5627 45.8765 12.2698C45.7422 11.9768 45.555 11.7571 45.3149 11.6106C45.0789 11.4641 44.8043 11.3909 44.491 11.3909C44.1777 11.3909 43.8989 11.4682 43.6548 11.6228C43.4147 11.7734 43.2235 11.9972 43.0811 12.2942C42.9427 12.5872 42.8735 12.9473 42.8735 13.3745V13.9849C42.8735 14.3958 42.9427 14.7478 43.0811 15.0408C43.2194 15.3297 43.4147 15.5535 43.667 15.7122C43.9233 15.8668 44.2265 15.9441 44.5764 15.9441C44.849 15.9441 45.083 15.9054 45.2783 15.8281C45.4777 15.7467 45.6384 15.6511 45.7605 15.5413C45.8826 15.4273 45.968 15.3195 46.0168 15.2178L46.0352 15.175H47.4756L47.4634 15.23C47.4105 15.4456 47.3128 15.6654 47.1704 15.8892C47.0321 16.1089 46.8429 16.3144 46.6028 16.5056C46.3668 16.6928 46.0779 16.8454 45.7361 16.9634C45.3943 17.0773 44.9976 17.1343 44.5459 17.1343ZM49.093 14.1375V12.7581H53.1702V14.1375H49.093ZM55.0745 17V10.3289H56.5881V17H55.0745ZM55.8374 9.21191C55.5892 9.21191 55.3756 9.12443 55.1965 8.94946C55.0175 8.7745 54.928 8.56494 54.928 8.3208C54.928 8.06852 55.0175 7.85693 55.1965 7.68604C55.3756 7.51107 55.5892 7.42358 55.8374 7.42358C56.0856 7.42358 56.2972 7.51107 56.4722 7.68604C56.6512 7.85693 56.7407 8.06852 56.7407 8.3208C56.7407 8.56494 56.6512 8.7745 56.4722 8.94946C56.2972 9.12443 56.0856 9.21191 55.8374 9.21191ZM58.5229 17V7.74707H60.0427V17H58.5229ZM62.0142 17V7.74707H63.5339V17H62.0142ZM67.6538 17.1343C67.1574 17.1343 66.7403 17.0387 66.4026 16.8474C66.0649 16.6521 65.8105 16.3693 65.6396 15.999C65.4688 15.6247 65.3833 15.173 65.3833 14.644V10.3289H66.9031V14.2961C66.9031 14.8129 67.0048 15.2015 67.2083 15.4619C67.4117 15.7223 67.7433 15.8525 68.2031 15.8525C68.4473 15.8525 68.6629 15.8159 68.8501 15.7427C69.0413 15.6654 69.2 15.5555 69.3262 15.4131C69.4523 15.2707 69.5479 15.0998 69.613 14.9004C69.6781 14.6969 69.7107 14.4691 69.7107 14.2168V10.3289H71.2305V17H69.7107V15.9868H69.6069C69.5052 16.2228 69.3628 16.4283 69.1797 16.6033C68.9966 16.7742 68.7769 16.9064 68.5205 17C68.2642 17.0895 67.9753 17.1343 67.6538 17.1343ZM75.6067 17.1343C75.0411 17.1343 74.5528 17.0549 74.1418 16.8962C73.7349 16.7335 73.4135 16.5097 73.1775 16.2249C72.9415 15.936 72.8011 15.6023 72.7563 15.2239V15.2117H74.2639L74.27 15.2239C74.3514 15.4558 74.504 15.645 74.7278 15.7915C74.9516 15.938 75.2527 16.0112 75.6311 16.0112C75.8834 16.0112 76.1051 15.9766 76.2964 15.9075C76.4876 15.8342 76.6382 15.7345 76.748 15.6084C76.8579 15.4823 76.9128 15.3358 76.9128 15.1689V15.1567C76.9128 14.9614 76.8335 14.7987 76.6748 14.6685C76.5161 14.5342 76.2537 14.4264 75.8875 14.345L74.8071 14.1008C74.384 14.0072 74.034 13.877 73.7573 13.7102C73.4806 13.5434 73.2731 13.3379 73.1348 13.0938C73.0005 12.8496 72.9333 12.5648 72.9333 12.2393V12.2332C72.9333 11.8303 73.0452 11.4763 73.269 11.1711C73.4969 10.866 73.8123 10.6279 74.2151 10.457C74.6179 10.2861 75.0818 10.2007 75.6067 10.2007C76.1479 10.2007 76.6138 10.2821 77.0044 10.4448C77.395 10.6076 77.7002 10.8314 77.9199 11.1162C78.1396 11.401 78.2658 11.7245 78.2983 12.0867V12.0989H76.8701L76.864 12.0806C76.807 11.869 76.6707 11.6899 76.4551 11.5435C76.2435 11.3929 75.9587 11.3176 75.6006 11.3176C75.3768 11.3176 75.1754 11.3522 74.9963 11.4214C74.8214 11.4906 74.683 11.5882 74.5813 11.7144C74.4836 11.8364 74.4348 11.9809 74.4348 12.1477V12.1538C74.4348 12.284 74.4674 12.3979 74.5325 12.4956C74.6016 12.5933 74.7095 12.6787 74.856 12.752C75.0024 12.8252 75.1957 12.8903 75.4358 12.9473L76.5161 13.1853C77.1712 13.3318 77.6554 13.5495 77.9688 13.8384C78.2821 14.1273 78.4387 14.5159 78.4387 15.0042V15.0164C78.4387 15.4395 78.3167 15.8098 78.0725 16.1272C77.8284 16.4446 77.4927 16.6928 77.0654 16.8718C76.6382 17.0468 76.1519 17.1343 75.6067 17.1343ZM82.5586 17.0305C81.7936 17.0305 81.2423 16.8901 80.9045 16.6094C80.5668 16.3286 80.3979 15.8688 80.3979 15.23V11.5068H79.3604V10.3289H80.3979V8.69312H81.9421V10.3289H83.3459V11.5068H81.9421V14.8699C81.9421 15.1995 82.0113 15.4416 82.1497 15.5962C82.2921 15.7467 82.5199 15.822 82.8333 15.822C82.9431 15.822 83.0326 15.82 83.1018 15.8159C83.175 15.8078 83.2564 15.7996 83.3459 15.7915V16.9634C83.2402 16.9837 83.1181 17 82.9797 17.0122C82.8455 17.0244 82.7051 17.0305 82.5586 17.0305ZM84.8657 17V10.3289H86.3855V11.3542H86.4893C86.6032 10.9962 86.8066 10.7174 87.0996 10.5181C87.3966 10.3187 87.7649 10.219 88.2043 10.219C88.3183 10.219 88.4302 10.2271 88.54 10.2434C88.654 10.2556 88.7476 10.2719 88.8208 10.2922V11.6533C88.6987 11.6248 88.5746 11.6045 88.4485 11.5923C88.3264 11.576 88.1982 11.5679 88.064 11.5679C87.7262 11.5679 87.4312 11.6309 87.179 11.7571C86.9267 11.8832 86.7314 12.0643 86.593 12.3003C86.4547 12.5322 86.3855 12.8069 86.3855 13.1243V17H84.8657ZM91.7993 17.1099C91.3802 17.1099 91.0038 17.0285 90.6702 16.8657C90.3406 16.703 90.0802 16.4731 89.8889 16.176C89.7017 15.8749 89.6082 15.5209 89.6082 15.114V15.1018C89.6082 14.7071 89.7058 14.3674 89.9011 14.0825C90.0964 13.7936 90.3833 13.5678 90.7617 13.405C91.1401 13.2423 91.5999 13.1466 92.1411 13.1182L94.6069 12.9656V13.9666L92.3547 14.113C91.9275 14.1375 91.6121 14.227 91.4087 14.3816C91.2052 14.5362 91.1035 14.7519 91.1035 15.0286V15.0408C91.1035 15.3256 91.2113 15.5474 91.427 15.7061C91.6467 15.8647 91.9255 15.9441 92.2632 15.9441C92.5684 15.9441 92.841 15.8831 93.0811 15.761C93.3211 15.6389 93.5103 15.4741 93.6487 15.2666C93.787 15.055 93.8562 14.817 93.8562 14.5525V12.4407C93.8562 12.107 93.7504 11.8527 93.5388 11.6777C93.3272 11.4987 93.0139 11.4092 92.5989 11.4092C92.253 11.4092 91.9702 11.4702 91.7505 11.5923C91.5308 11.7103 91.3822 11.8792 91.3049 12.0989L91.2988 12.1233H89.8645L89.8706 12.0684C89.9194 11.694 90.0659 11.3665 90.3101 11.0857C90.5542 10.8049 90.8777 10.5872 91.2805 10.4326C91.6833 10.278 92.1472 10.2007 92.6721 10.2007C93.2499 10.2007 93.7382 10.2902 94.137 10.4692C94.5357 10.6442 94.8389 10.9006 95.0464 11.2383C95.2539 11.5719 95.3577 11.9727 95.3577 12.4407V17H93.8562V16.0845H93.7524C93.6304 16.2961 93.4717 16.4792 93.2764 16.6338C93.0851 16.7884 92.8654 16.9064 92.6172 16.9878C92.369 17.0692 92.0964 17.1099 91.7993 17.1099ZM99.8071 17.0305C99.0422 17.0305 98.4908 16.8901 98.1531 16.6094C97.8153 16.3286 97.6465 15.8688 97.6465 15.23V11.5068H96.6089V10.3289H97.6465V8.69312H99.1907V10.3289H100.594V11.5068H99.1907V14.8699C99.1907 15.1995 99.2598 15.4416 99.3982 15.5962C99.5406 15.7467 99.7685 15.822 100.082 15.822C100.192 15.822 100.281 15.82 100.35 15.8159C100.424 15.8078 100.505 15.7996 100.594 15.7915V16.9634C100.489 16.9837 100.367 17 100.228 17.0122C100.094 17.0244 99.9536 17.0305 99.8071 17.0305ZM104.934 17.1343C104.271 17.1343 103.699 16.9959 103.219 16.7192C102.739 16.4385 102.369 16.0397 102.108 15.5229C101.852 15.0062 101.724 14.3877 101.724 13.6675V13.6553C101.724 12.9432 101.854 12.3288 102.114 11.812C102.375 11.2912 102.743 10.8924 103.219 10.6157C103.699 10.339 104.271 10.2007 104.934 10.2007C105.597 10.2007 106.167 10.339 106.643 10.6157C107.123 10.8924 107.493 11.2891 107.754 11.8059C108.014 12.3227 108.145 12.9391 108.145 13.6553V13.6675C108.145 14.3877 108.014 15.0062 107.754 15.5229C107.498 16.0397 107.129 16.4385 106.649 16.7192C106.173 16.9959 105.601 17.1343 104.934 17.1343ZM104.934 15.9014C105.284 15.9014 105.581 15.8139 105.825 15.6389C106.073 15.4599 106.263 15.2056 106.393 14.876C106.523 14.5423 106.588 14.1415 106.588 13.6736V13.6614C106.588 13.1894 106.523 12.7886 106.393 12.459C106.263 12.1253 106.073 11.871 105.825 11.696C105.581 11.517 105.284 11.4275 104.934 11.4275C104.584 11.4275 104.285 11.517 104.037 11.696C103.789 11.871 103.599 12.1253 103.469 12.459C103.339 12.7886 103.274 13.1894 103.274 13.6614V13.6736C103.274 14.1415 103.339 14.5423 103.469 14.876C103.599 15.2096 103.787 15.4639 104.031 15.6389C104.279 15.8139 104.58 15.9014 104.934 15.9014ZM109.67 17V10.3289H111.19V11.3542H111.294C111.408 10.9962 111.611 10.7174 111.904 10.5181C112.201 10.3187 112.57 10.219 113.009 10.219C113.123 10.219 113.235 10.2271 113.345 10.2434C113.459 10.2556 113.552 10.2719 113.625 10.2922V11.6533C113.503 11.6248 113.379 11.6045 113.253 11.5923C113.131 11.576 113.003 11.5679 112.869 11.5679C112.531 11.5679 112.236 11.6309 111.984 11.7571C111.731 11.8832 111.536 12.0643 111.398 12.3003C111.259 12.5322 111.19 12.8069 111.19 13.1243V17H109.67Z" fill="#4493F8"/>
</svg>
