<svg width="52" height="26" viewBox="0 0 52 26" fill="none" xmlns="http://www.w3.org/2000/svg">
<rect width="52" height="26" rx="13" fill="#141D2E"/>
<path d="M12.7466 17.1099C12.3275 17.1099 11.9511 17.0285 11.6174 16.8657C11.2878 16.703 11.0274 16.4731 10.8362 16.176C10.649 15.8749 10.5554 15.5209 10.5554 15.114V15.1018C10.5554 14.7071 10.6531 14.3674 10.8484 14.0825C11.0437 13.7936 11.3306 13.5678 11.709 13.405C12.0874 13.2423 12.5472 13.1466 13.0884 13.1182L15.5542 12.9656V13.9666L13.302 14.113C12.8748 14.1375 12.5594 14.227 12.356 14.3816C12.1525 14.5362 12.0508 14.7519 12.0508 15.0286V15.0408C12.0508 15.3256 12.1586 15.5474 12.3743 15.7061C12.594 15.8647 12.8727 15.9441 13.2104 15.9441C13.5156 15.9441 13.7882 15.8831 14.0283 15.761C14.2684 15.6389 14.4576 15.4741 14.5959 15.2666C14.7343 15.055 14.8035 14.817 14.8035 14.5525V12.4407C14.8035 12.107 14.6977 11.8527 14.4861 11.6777C14.2745 11.4987 13.9612 11.4092 13.5461 11.4092C13.2003 11.4092 12.9175 11.4702 12.6978 11.5923C12.478 11.7103 12.3295 11.8792 12.2522 12.0989L12.2461 12.1233H10.8118L10.8179 12.0684C10.8667 11.694 11.0132 11.3665 11.2573 11.0857C11.5015 10.8049 11.825 10.5872 12.2278 10.4326C12.6306 10.278 13.0945 10.2007 13.6194 10.2007C14.1972 10.2007 14.6855 10.2902 15.0842 10.4692C15.483 10.6442 15.7861 10.9006 15.9937 11.2383C16.2012 11.5719 16.3049 11.9727 16.3049 12.4407V17H14.8035V16.0845H14.6997C14.5776 16.2961 14.4189 16.4792 14.2236 16.6338C14.0324 16.7884 13.8127 16.9064 13.5645 16.9878C13.3162 17.0692 13.0436 17.1099 12.7466 17.1099ZM20.6506 17.1343C20.085 17.1343 19.5968 17.0549 19.1858 16.8962C18.7789 16.7335 18.4574 16.5097 18.2214 16.2249C17.9854 15.936 17.8451 15.6023 17.8003 15.2239V15.2117H19.3079L19.314 15.2239C19.3953 15.4558 19.5479 15.645 19.7717 15.7915C19.9955 15.938 20.2966 16.0112 20.675 16.0112C20.9273 16.0112 21.1491 15.9766 21.3403 15.9075C21.5316 15.8342 21.6821 15.7345 21.792 15.6084C21.9019 15.4823 21.9568 15.3358 21.9568 15.1689V15.1567C21.9568 14.9614 21.8774 14.7987 21.7188 14.6685C21.5601 14.5342 21.2976 14.4264 20.9314 14.345L19.8511 14.1008C19.4279 14.0072 19.078 13.877 18.8013 13.7102C18.5246 13.5434 18.3171 13.3379 18.1787 13.0938C18.0444 12.8496 17.9773 12.5648 17.9773 12.2393V12.2332C17.9773 11.8303 18.0892 11.4763 18.313 11.1711C18.5409 10.866 18.8562 10.6279 19.259 10.457C19.6619 10.2861 20.1257 10.2007 20.6506 10.2007C21.1918 10.2007 21.6577 10.2821 22.0483 10.4448C22.439 10.6076 22.7441 10.8314 22.9639 11.1162C23.1836 11.401 23.3097 11.7245 23.3423 12.0867V12.0989H21.9141L21.908 12.0806C21.851 11.869 21.7147 11.6899 21.499 11.5435C21.2874 11.3929 21.0026 11.3176 20.6445 11.3176C20.4207 11.3176 20.2193 11.3522 20.0403 11.4214C19.8653 11.4906 19.727 11.5882 19.6252 11.7144C19.5276 11.8364 19.4788 11.9809 19.4788 12.1477V12.1538C19.4788 12.284 19.5113 12.3979 19.5764 12.4956C19.6456 12.5933 19.7534 12.6787 19.8999 12.752C20.0464 12.8252 20.2397 12.8903 20.4797 12.9473L21.5601 13.1853C22.2152 13.3318 22.6994 13.5495 23.0127 13.8384C23.326 14.1273 23.4827 14.5159 23.4827 15.0042V15.0164C23.4827 15.4395 23.3606 15.8098 23.1165 16.1272C22.8723 16.4446 22.5366 16.6928 22.1094 16.8718C21.6821 17.0468 21.1959 17.1343 20.6506 17.1343ZM27.6025 17.0305C26.8376 17.0305 26.2862 16.8901 25.9485 16.6094C25.6108 16.3286 25.4419 15.8688 25.4419 15.23V11.5068H24.4043V10.3289H25.4419V8.69312H26.9861V10.3289H28.3899V11.5068H26.9861V14.8699C26.9861 15.1995 27.0553 15.4416 27.1936 15.5962C27.336 15.7467 27.5639 15.822 27.8772 15.822C27.9871 15.822 28.0766 15.82 28.1458 15.8159C28.219 15.8078 28.3004 15.7996 28.3899 15.7915V16.9634C28.2841 16.9837 28.162 17 28.0237 17.0122C27.8894 17.0244 27.749 17.0305 27.6025 17.0305ZM29.9097 17V10.3289H31.4294V11.3542H31.5332C31.6471 10.9962 31.8506 10.7174 32.1436 10.5181C32.4406 10.3187 32.8088 10.219 33.2483 10.219C33.3622 10.219 33.4741 10.2271 33.584 10.2434C33.6979 10.2556 33.7915 10.2719 33.8647 10.2922V11.6533C33.7427 11.6248 33.6186 11.6045 33.4924 11.5923C33.3704 11.576 33.2422 11.5679 33.1079 11.5679C32.7702 11.5679 32.4752 11.6309 32.2229 11.7571C31.9706 11.8832 31.7753 12.0643 31.637 12.3003C31.4986 12.5322 31.4294 12.8069 31.4294 13.1243V17H29.9097ZM37.8198 17.1343C37.1566 17.1343 36.5849 16.9959 36.1047 16.7192C35.6246 16.4385 35.2543 16.0397 34.9939 15.5229C34.7375 15.0062 34.6094 14.3877 34.6094 13.6675V13.6553C34.6094 12.9432 34.7396 12.3288 35 11.812C35.2604 11.2912 35.6287 10.8924 36.1047 10.6157C36.5849 10.339 37.1566 10.2007 37.8198 10.2007C38.4831 10.2007 39.0527 10.339 39.5288 10.6157C40.009 10.8924 40.3792 11.2891 40.6396 11.8059C40.9001 12.3227 41.0303 12.9391 41.0303 13.6553V13.6675C41.0303 14.3877 40.9001 15.0062 40.6396 15.5229C40.3833 16.0397 40.0151 16.4385 39.5349 16.7192C39.0588 16.9959 38.4871 17.1343 37.8198 17.1343ZM37.8198 15.9014C38.1698 15.9014 38.4668 15.8139 38.7109 15.6389C38.9591 15.4599 39.1484 15.2056 39.2786 14.876C39.4088 14.5423 39.4739 14.1415 39.4739 13.6736V13.6614C39.4739 13.1894 39.4088 12.7886 39.2786 12.459C39.1484 12.1253 38.9591 11.871 38.7109 11.696C38.4668 11.517 38.1698 11.4275 37.8198 11.4275C37.4699 11.4275 37.1708 11.517 36.9226 11.696C36.6744 11.871 36.4852 12.1253 36.355 12.459C36.2248 12.7886 36.1597 13.1894 36.1597 13.6614V13.6736C36.1597 14.1415 36.2248 14.5423 36.355 14.876C36.4852 15.2096 36.6724 15.4639 36.9165 15.6389C37.1647 15.8139 37.4658 15.9014 37.8198 15.9014Z" fill="#4493F8"/>
</svg>
