<svg width="36" height="26" viewBox="0 0 36 26" fill="none" xmlns="http://www.w3.org/2000/svg">
<rect width="36" height="26" rx="13" fill="#141D2E"/>
<path d="M13.7903 17.1343C13.1189 17.1343 12.5452 16.9959 12.0691 16.7192C11.593 16.4425 11.2288 16.0438 10.9766 15.5229C10.7243 15.0021 10.5981 14.3796 10.5981 13.6553V13.6431C10.5981 12.9229 10.7243 12.3064 10.9766 11.7937C11.2288 11.281 11.593 10.8883 12.0691 10.6157C12.5452 10.339 13.1169 10.2007 13.7842 10.2007C14.3579 10.2007 14.8503 10.3004 15.2612 10.4998C15.6763 10.6951 16.0038 10.9677 16.2439 11.3176C16.488 11.6635 16.6386 12.0684 16.6956 12.5322V12.5566H15.2612L15.2551 12.5383C15.186 12.2128 15.0273 11.9463 14.7791 11.7388C14.5349 11.5312 14.2053 11.4275 13.7903 11.4275C13.4444 11.4275 13.1474 11.515 12.8992 11.6899C12.655 11.8649 12.4679 12.1172 12.3376 12.4468C12.2074 12.7764 12.1423 13.1751 12.1423 13.6431V13.6553C12.1423 14.1273 12.2074 14.5321 12.3376 14.8699C12.4719 15.2035 12.6611 15.4599 12.9053 15.6389C13.1494 15.8139 13.4444 15.9014 13.7903 15.9014C14.185 15.9014 14.5024 15.8118 14.7424 15.6328C14.9866 15.4538 15.1554 15.1893 15.249 14.8394L15.2612 14.8149L16.6895 14.8088L16.6833 14.8638C16.6101 15.3154 16.4514 15.7122 16.2073 16.054C15.9672 16.3958 15.6458 16.6623 15.2429 16.8535C14.8401 17.0407 14.3559 17.1343 13.7903 17.1343ZM19.5154 17H18.3496L20.1257 8.19263H21.2915L20.7361 10.9392L20.675 11.043L20.083 13.9727L20.1135 14.0703L19.5154 17ZM22.4146 17H21.2366L21.8347 14.0703L21.9019 13.9727L22.4939 11.043L22.4634 10.9392L23.0188 8.19263H24.1968L22.4146 17ZM24.4287 14.6501H17.4158L17.6416 13.4966H19.5154L19.6375 13.5515H22.4329L22.5549 13.4966H24.6484L24.4287 14.6501ZM24.9963 11.5923H22.9333L22.8052 11.5496H20.022L19.8877 11.5923H17.9773L18.2031 10.4448H25.2161L24.9963 11.5923Z" fill="#4493F8"/>
</svg>
