<svg width="41" height="26" viewBox="0 0 41 26" fill="none" xmlns="http://www.w3.org/2000/svg">
<rect width="41" height="26" rx="13" fill="#141D2E"/>
<path d="M13.7903 17.1343C13.1189 17.1343 12.5452 16.9959 12.0691 16.7192C11.593 16.4425 11.2288 16.0438 10.9766 15.5229C10.7243 15.0021 10.5981 14.3796 10.5981 13.6553V13.6431C10.5981 12.9229 10.7243 12.3064 10.9766 11.7937C11.2288 11.281 11.593 10.8883 12.0691 10.6157C12.5452 10.339 13.1169 10.2007 13.7842 10.2007C14.3579 10.2007 14.8503 10.3004 15.2612 10.4998C15.6763 10.6951 16.0038 10.9677 16.2439 11.3176C16.488 11.6635 16.6386 12.0684 16.6956 12.5322V12.5566H15.2612L15.2551 12.5383C15.186 12.2128 15.0273 11.9463 14.7791 11.7388C14.5349 11.5312 14.2053 11.4275 13.7903 11.4275C13.4444 11.4275 13.1474 11.515 12.8992 11.6899C12.655 11.8649 12.4679 12.1172 12.3376 12.4468C12.2074 12.7764 12.1423 13.1751 12.1423 13.6431V13.6553C12.1423 14.1273 12.2074 14.5321 12.3376 14.8699C12.4719 15.2035 12.6611 15.4599 12.9053 15.6389C13.1494 15.8139 13.4444 15.9014 13.7903 15.9014C14.185 15.9014 14.5024 15.8118 14.7424 15.6328C14.9866 15.4538 15.1554 15.1893 15.249 14.8394L15.2612 14.8149L16.6895 14.8088L16.6833 14.8638C16.6101 15.3154 16.4514 15.7122 16.2073 16.054C15.9672 16.3958 15.6458 16.6623 15.2429 16.8535C14.8401 17.0407 14.3559 17.1343 13.7903 17.1343ZM20.6628 17.1343C20.0972 17.1343 19.609 17.0549 19.198 16.8962C18.7911 16.7335 18.4696 16.5097 18.2336 16.2249C17.9976 15.936 17.8573 15.6023 17.8125 15.2239V15.2117H19.3201L19.3262 15.2239C19.4076 15.4558 19.5601 15.645 19.7839 15.7915C20.0077 15.938 20.3088 16.0112 20.6873 16.0112C20.9395 16.0112 21.1613 15.9766 21.3525 15.9075C21.5438 15.8342 21.6943 15.7345 21.8042 15.6084C21.9141 15.4823 21.969 15.3358 21.969 15.1689V15.1567C21.969 14.9614 21.8896 14.7987 21.731 14.6685C21.5723 14.5342 21.3098 14.4264 20.9436 14.345L19.8633 14.1008C19.4401 14.0072 19.0902 13.877 18.8135 13.7102C18.5368 13.5434 18.3293 13.3379 18.1909 13.0938C18.0566 12.8496 17.9895 12.5648 17.9895 12.2393V12.2332C17.9895 11.8303 18.1014 11.4763 18.3252 11.1711C18.5531 10.866 18.8684 10.6279 19.2712 10.457C19.6741 10.2861 20.1379 10.2007 20.6628 10.2007C21.204 10.2007 21.6699 10.2821 22.0605 10.4448C22.4512 10.6076 22.7563 10.8314 22.9761 11.1162C23.1958 11.401 23.3219 11.7245 23.3545 12.0867V12.0989H21.9263L21.9202 12.0806C21.8632 11.869 21.7269 11.6899 21.5112 11.5435C21.2996 11.3929 21.0148 11.3176 20.6567 11.3176C20.4329 11.3176 20.2315 11.3522 20.0525 11.4214C19.8775 11.4906 19.7392 11.5882 19.6375 11.7144C19.5398 11.8364 19.491 11.9809 19.491 12.1477V12.1538C19.491 12.284 19.5235 12.3979 19.5886 12.4956C19.6578 12.5933 19.7656 12.6787 19.9121 12.752C20.0586 12.8252 20.2519 12.8903 20.4919 12.9473L21.5723 13.1853C22.2274 13.3318 22.7116 13.5495 23.0249 13.8384C23.3382 14.1273 23.4949 14.5159 23.4949 15.0042V15.0164C23.4949 15.4395 23.3728 15.8098 23.1287 16.1272C22.8845 16.4446 22.5488 16.6928 22.1216 16.8718C21.6943 17.0468 21.2081 17.1343 20.6628 17.1343ZM27.4255 17.1343C26.8599 17.1343 26.3717 17.0549 25.9607 16.8962C25.5538 16.7335 25.2323 16.5097 24.9963 16.2249C24.7603 15.936 24.62 15.6023 24.5752 15.2239V15.2117H26.0828L26.0889 15.2239C26.1702 15.4558 26.3228 15.645 26.5466 15.7915C26.7704 15.938 27.0715 16.0112 27.45 16.0112C27.7022 16.0112 27.924 15.9766 28.1152 15.9075C28.3065 15.8342 28.457 15.7345 28.5669 15.6084C28.6768 15.4823 28.7317 15.3358 28.7317 15.1689V15.1567C28.7317 14.9614 28.6523 14.7987 28.4937 14.6685C28.335 14.5342 28.0725 14.4264 27.7063 14.345L26.626 14.1008C26.2028 14.0072 25.8529 13.877 25.5762 13.7102C25.2995 13.5434 25.092 13.3379 24.9536 13.0938C24.8193 12.8496 24.7522 12.5648 24.7522 12.2393V12.2332C24.7522 11.8303 24.8641 11.4763 25.0879 11.1711C25.3158 10.866 25.6311 10.6279 26.0339 10.457C26.4368 10.2861 26.9006 10.2007 27.4255 10.2007C27.9667 10.2007 28.4326 10.2821 28.8232 10.4448C29.2139 10.6076 29.519 10.8314 29.7388 11.1162C29.9585 11.401 30.0846 11.7245 30.1172 12.0867V12.0989H28.689L28.6829 12.0806C28.6259 11.869 28.4896 11.6899 28.2739 11.5435C28.0623 11.3929 27.7775 11.3176 27.4194 11.3176C27.1956 11.3176 26.9942 11.3522 26.8152 11.4214C26.6402 11.4906 26.5019 11.5882 26.4001 11.7144C26.3025 11.8364 26.2537 11.9809 26.2537 12.1477V12.1538C26.2537 12.284 26.2862 12.3979 26.3513 12.4956C26.4205 12.5933 26.5283 12.6787 26.6748 12.752C26.8213 12.8252 27.0146 12.8903 27.2546 12.9473L28.335 13.1853C28.9901 13.3318 29.4743 13.5495 29.7876 13.8384C30.1009 14.1273 30.2576 14.5159 30.2576 15.0042V15.0164C30.2576 15.4395 30.1355 15.8098 29.8914 16.1272C29.6472 16.4446 29.3115 16.6928 28.8843 16.8718C28.457 17.0468 27.9708 17.1343 27.4255 17.1343Z" fill="#4493F8"/>
</svg>
