<svg width="55" height="26" viewBox="0 0 55 26" fill="none" xmlns="http://www.w3.org/2000/svg">
<rect width="55" height="26" rx="13" fill="#141D2E"/>
<path d="M11.416 17V11.5068H10.3235V10.3289H11.416V9.66968C11.416 9.22209 11.4913 8.85181 11.6418 8.55884C11.7965 8.26587 12.0345 8.04818 12.356 7.90576C12.6774 7.75928 13.0843 7.68604 13.5767 7.68604C13.7394 7.68604 13.89 7.69214 14.0283 7.70435C14.1667 7.71248 14.2948 7.72673 14.4128 7.74707V8.80908C14.3559 8.80094 14.2826 8.79484 14.1931 8.79077C14.1036 8.78263 14.0059 8.77856 13.9001 8.77856C13.5421 8.77856 13.2878 8.86198 13.1372 9.02881C12.9867 9.19157 12.9114 9.43368 12.9114 9.75513V10.3289H14.3579V11.5068H12.9358V17H11.416ZM15.8411 17V10.3289H17.3547V17H15.8411ZM16.604 9.21191C16.3558 9.21191 16.1422 9.12443 15.9631 8.94946C15.7841 8.7745 15.6946 8.56494 15.6946 8.3208C15.6946 8.06852 15.7841 7.85693 15.9631 7.68604C16.1422 7.51107 16.3558 7.42358 16.604 7.42358C16.8522 7.42358 17.0638 7.51107 17.2388 7.68604C17.4178 7.85693 17.5073 8.06852 17.5073 8.3208C17.5073 8.56494 17.4178 8.7745 17.2388 8.94946C17.0638 9.12443 16.8522 9.21191 16.604 9.21191ZM22.0972 19.3438C21.5112 19.3438 21.0046 19.2664 20.5774 19.1118C20.1542 18.9572 19.8206 18.7375 19.5764 18.4526C19.3323 18.1719 19.1838 17.8443 19.1309 17.47L19.137 17.4517H20.6506L20.6628 17.47C20.7117 17.6816 20.8602 17.8545 21.1084 17.9888C21.3607 18.1271 21.6984 18.1963 22.1216 18.1963C22.6424 18.1963 23.0452 18.0803 23.3301 17.8484C23.619 17.6165 23.7634 17.2869 23.7634 16.8596V15.5779H23.6597C23.5335 15.818 23.3687 16.0214 23.1653 16.1882C22.9659 16.3551 22.736 16.4812 22.4756 16.5667C22.2192 16.648 21.9364 16.6887 21.6272 16.6887C21.0657 16.6887 20.5794 16.5544 20.1685 16.2859C19.7575 16.0133 19.4401 15.6369 19.2163 15.1567C18.9966 14.6766 18.8867 14.1212 18.8867 13.4905V13.4783C18.8867 12.8354 18.9986 12.2698 19.2224 11.7815C19.4462 11.2932 19.7636 10.9107 20.1746 10.634C20.5896 10.3573 21.084 10.219 21.6577 10.219C21.967 10.219 22.2498 10.2678 22.5061 10.3655C22.7665 10.4631 22.9944 10.6015 23.1897 10.7805C23.3891 10.9596 23.5518 11.1752 23.678 11.4275H23.7573V10.3289H25.2771V16.8352C25.2771 17.3479 25.1469 17.7914 24.8865 18.1658C24.6301 18.5442 24.2639 18.8351 23.7878 19.0386C23.3118 19.242 22.7482 19.3438 22.0972 19.3438ZM22.0972 15.4802C22.4471 15.4802 22.7482 15.3968 23.0005 15.23C23.2528 15.0591 23.446 14.8251 23.5803 14.5281C23.7187 14.231 23.7878 13.8852 23.7878 13.4905V13.4783C23.7878 13.0836 23.7187 12.7377 23.5803 12.4407C23.446 12.1396 23.2528 11.9056 23.0005 11.7388C22.7482 11.5679 22.4471 11.4824 22.0972 11.4824C21.7432 11.4824 21.4421 11.5679 21.1938 11.7388C20.9497 11.9056 20.7625 12.1396 20.6323 12.4407C20.5062 12.7377 20.4431 13.0836 20.4431 13.4783V13.4905C20.4431 13.8811 20.5062 14.227 20.6323 14.5281C20.7625 14.8251 20.9497 15.0591 21.1938 15.23C21.4421 15.3968 21.7432 15.4802 22.0972 15.4802ZM27.1387 17V10.3289H28.6584V11.3665H28.7622C28.9046 10.9962 29.1345 10.7093 29.4519 10.5059C29.7734 10.3024 30.1538 10.2007 30.5933 10.2007C30.8944 10.2007 31.165 10.2495 31.405 10.3472C31.6492 10.4448 31.8587 10.5832 32.0337 10.7622C32.2087 10.9412 32.3429 11.1549 32.4365 11.4031H32.5464C32.6562 11.163 32.8088 10.9535 33.0042 10.7744C33.2035 10.5913 33.4355 10.4509 33.7 10.3533C33.9685 10.2515 34.2574 10.2007 34.5667 10.2007C35.0142 10.2007 35.3967 10.2902 35.7141 10.4692C36.0356 10.6442 36.2817 10.8965 36.4526 11.2261C36.6276 11.5557 36.7151 11.9504 36.7151 12.4102V17H35.1953V12.7825C35.1953 12.4895 35.1506 12.2474 35.061 12.0562C34.9756 11.8649 34.8433 11.7205 34.6643 11.6228C34.4853 11.5251 34.2594 11.4763 33.9868 11.4763C33.7223 11.4763 33.4924 11.5374 33.2971 11.6594C33.1018 11.7774 32.9492 11.9382 32.8394 12.1416C32.7336 12.3451 32.6807 12.575 32.6807 12.8313V17H31.1609V12.6726C31.1609 12.4244 31.1121 12.2108 31.0144 12.0317C30.9208 11.8527 30.7825 11.7164 30.5994 11.6228C30.4203 11.5251 30.2067 11.4763 29.9585 11.4763C29.7103 11.4763 29.4865 11.5414 29.2871 11.6716C29.0918 11.7978 28.9372 11.9727 28.8232 12.1965C28.7134 12.4163 28.6584 12.6645 28.6584 12.9412V17H27.1387ZM40.3223 17.1099C39.9032 17.1099 39.5268 17.0285 39.1931 16.8657C38.8635 16.703 38.6031 16.4731 38.4119 16.176C38.2247 15.8749 38.1311 15.5209 38.1311 15.114V15.1018C38.1311 14.7071 38.2288 14.3674 38.4241 14.0825C38.6194 13.7936 38.9062 13.5678 39.2847 13.405C39.6631 13.2423 40.1229 13.1466 40.6641 13.1182L43.1299 12.9656V13.9666L40.8777 14.113C40.4504 14.1375 40.1351 14.227 39.9316 14.3816C39.7282 14.5362 39.6265 14.7519 39.6265 15.0286V15.0408C39.6265 15.3256 39.7343 15.5474 39.95 15.7061C40.1697 15.8647 40.4484 15.9441 40.7861 15.9441C41.0913 15.9441 41.3639 15.8831 41.604 15.761C41.8441 15.6389 42.0333 15.4741 42.1716 15.2666C42.31 15.055 42.3792 14.817 42.3792 14.5525V12.4407C42.3792 12.107 42.2734 11.8527 42.0618 11.6777C41.8502 11.4987 41.5369 11.4092 41.1218 11.4092C40.776 11.4092 40.4932 11.4702 40.2734 11.5923C40.0537 11.7103 39.9052 11.8792 39.8279 12.0989L39.8218 12.1233H38.3875L38.3936 12.0684C38.4424 11.694 38.5889 11.3665 38.833 11.0857C39.0771 10.8049 39.4006 10.5872 39.8035 10.4326C40.2063 10.278 40.6702 10.2007 41.1951 10.2007C41.7729 10.2007 42.2611 10.2902 42.6599 10.4692C43.0587 10.6442 43.3618 10.9006 43.5693 11.2383C43.7769 11.5719 43.8806 11.9727 43.8806 12.4407V17H42.3792V16.0845H42.2754C42.1533 16.2961 41.9946 16.4792 41.7993 16.6338C41.6081 16.7884 41.3883 16.9064 41.1401 16.9878C40.8919 17.0692 40.6193 17.1099 40.3223 17.1099Z" fill="#4493F8"/>
</svg>
