<svg width="81" height="26" viewBox="0 0 81 26" fill="none" xmlns="http://www.w3.org/2000/svg">
<rect width="81" height="26" rx="13" fill="#141D2E"/>
<path d="M10.2075 19.2766C10.1465 19.2766 10.0814 19.2746 10.0122 19.2705C9.94303 19.2705 9.88607 19.2685 9.84131 19.2644V18.0681C9.86979 18.0722 9.90031 18.0742 9.93286 18.0742C9.96541 18.0742 10 18.0742 10.0366 18.0742C10.3621 18.0742 10.5941 18.0111 10.7324 17.885C10.8708 17.7589 10.9399 17.5432 10.9399 17.238V10.3289H12.4597V17.2563C12.4597 17.9399 12.2705 18.4465 11.8921 18.7761C11.5177 19.1098 10.9562 19.2766 10.2075 19.2766ZM11.6968 9.21191C11.4526 9.21191 11.241 9.12443 11.062 8.94946C10.883 8.7745 10.7935 8.56494 10.7935 8.3208C10.7935 8.06852 10.883 7.85693 11.062 7.68604C11.241 7.51107 11.4526 7.42358 11.6968 7.42358C11.9491 7.42358 12.1627 7.51107 12.3376 7.68604C12.5126 7.85693 12.6001 8.06852 12.6001 8.3208C12.6001 8.56494 12.5126 8.7745 12.3376 8.94946C12.1627 9.12443 11.9491 9.21191 11.6968 9.21191ZM16.1523 17.1099C15.7332 17.1099 15.3569 17.0285 15.0232 16.8657C14.6936 16.703 14.4332 16.4731 14.2419 16.176C14.0548 15.8749 13.9612 15.5209 13.9612 15.114V15.1018C13.9612 14.7071 14.0588 14.3674 14.2542 14.0825C14.4495 13.7936 14.7363 13.5678 15.1147 13.405C15.4932 13.2423 15.953 13.1466 16.4941 13.1182L18.96 12.9656V13.9666L16.7078 14.113C16.2805 14.1375 15.9652 14.227 15.7617 14.3816C15.5583 14.5362 15.4565 14.7519 15.4565 15.0286V15.0408C15.4565 15.3256 15.5644 15.5474 15.78 15.7061C15.9998 15.8647 16.2785 15.9441 16.6162 15.9441C16.9214 15.9441 17.194 15.8831 17.4341 15.761C17.6742 15.6389 17.8634 15.4741 18.0017 15.2666C18.1401 15.055 18.2092 14.817 18.2092 14.5525V12.4407C18.2092 12.107 18.1034 11.8527 17.8918 11.6777C17.6803 11.4987 17.3669 11.4092 16.9519 11.4092C16.606 11.4092 16.3232 11.4702 16.1035 11.5923C15.8838 11.7103 15.7353 11.8792 15.658 12.0989L15.6519 12.1233H14.2175L14.2236 12.0684C14.2725 11.694 14.4189 11.3665 14.6631 11.0857C14.9072 10.8049 15.2307 10.5872 15.6335 10.4326C16.0364 10.278 16.5002 10.2007 17.0251 10.2007C17.6029 10.2007 18.0912 10.2902 18.49 10.4692C18.8888 10.6442 19.1919 10.9006 19.3994 11.2383C19.6069 11.5719 19.7107 11.9727 19.7107 12.4407V17H18.2092V16.0845H18.1055C17.9834 16.2961 17.8247 16.4792 17.6294 16.6338C17.4382 16.7884 17.2184 16.9064 16.9702 16.9878C16.722 17.0692 16.4494 17.1099 16.1523 17.1099ZM23.1226 17L20.7483 10.3289H22.3718L23.9099 15.5168H24.0198L25.5518 10.3289H27.1509L24.7827 17H23.1226ZM30.0317 17.1099C29.6126 17.1099 29.2362 17.0285 28.9026 16.8657C28.573 16.703 28.3126 16.4731 28.1213 16.176C27.9342 15.8749 27.8406 15.5209 27.8406 15.114V15.1018C27.8406 14.7071 27.9382 14.3674 28.1335 14.0825C28.3289 13.7936 28.6157 13.5678 28.9941 13.405C29.3726 13.2423 29.8324 13.1466 30.3735 13.1182L32.8394 12.9656V13.9666L30.5872 14.113C30.1599 14.1375 29.8446 14.227 29.6411 14.3816C29.4377 14.5362 29.3359 14.7519 29.3359 15.0286V15.0408C29.3359 15.3256 29.4438 15.5474 29.6594 15.7061C29.8792 15.8647 30.1579 15.9441 30.4956 15.9441C30.8008 15.9441 31.0734 15.8831 31.3135 15.761C31.5535 15.6389 31.7428 15.4741 31.8811 15.2666C32.0194 15.055 32.0886 14.817 32.0886 14.5525V12.4407C32.0886 12.107 31.9828 11.8527 31.7712 11.6777C31.5597 11.4987 31.2463 11.4092 30.8313 11.4092C30.4854 11.4092 30.2026 11.4702 29.9829 11.5923C29.7632 11.7103 29.6147 11.8792 29.5374 12.0989L29.5312 12.1233H28.0969L28.103 12.0684C28.1519 11.694 28.2983 11.3665 28.5425 11.0857C28.7866 10.8049 29.1101 10.5872 29.5129 10.4326C29.9158 10.278 30.3796 10.2007 30.9045 10.2007C31.4823 10.2007 31.9706 10.2902 32.3694 10.4692C32.7681 10.6442 33.0713 10.9006 33.2788 11.2383C33.4863 11.5719 33.5901 11.9727 33.5901 12.4407V17H32.0886V16.0845H31.9849C31.8628 16.2961 31.7041 16.4792 31.5088 16.6338C31.3175 16.7884 31.0978 16.9064 30.8496 16.9878C30.6014 17.0692 30.3288 17.1099 30.0317 17.1099ZM37.9358 17.1343C37.3702 17.1343 36.8819 17.0549 36.4709 16.8962C36.064 16.7335 35.7426 16.5097 35.5066 16.2249C35.2706 15.936 35.1302 15.6023 35.0854 15.2239V15.2117H36.593L36.5991 15.2239C36.6805 15.4558 36.8331 15.645 37.0569 15.7915C37.2807 15.938 37.5818 16.0112 37.9602 16.0112C38.2125 16.0112 38.4342 15.9766 38.6255 15.9075C38.8167 15.8342 38.9673 15.7345 39.0771 15.6084C39.187 15.4823 39.2419 15.3358 39.2419 15.1689V15.1567C39.2419 14.9614 39.1626 14.7987 39.0039 14.6685C38.8452 14.5342 38.5828 14.4264 38.2166 14.345L37.1362 14.1008C36.7131 14.0072 36.3631 13.877 36.0864 13.7102C35.8097 13.5434 35.6022 13.3379 35.4639 13.0938C35.3296 12.8496 35.2625 12.5648 35.2625 12.2393V12.2332C35.2625 11.8303 35.3743 11.4763 35.5981 11.1711C35.826 10.866 36.1414 10.6279 36.5442 10.457C36.947 10.2861 37.4109 10.2007 37.9358 10.2007C38.477 10.2007 38.9429 10.2821 39.3335 10.4448C39.7241 10.6076 40.0293 10.8314 40.249 11.1162C40.4688 11.401 40.5949 11.7245 40.6274 12.0867V12.0989H39.1992L39.1931 12.0806C39.1361 11.869 38.9998 11.6899 38.7842 11.5435C38.5726 11.3929 38.2878 11.3176 37.9297 11.3176C37.7059 11.3176 37.5045 11.3522 37.3254 11.4214C37.1505 11.4906 37.0121 11.5882 36.9104 11.7144C36.8127 11.8364 36.7639 11.9809 36.7639 12.1477V12.1538C36.7639 12.284 36.7965 12.3979 36.8616 12.4956C36.9307 12.5933 37.0386 12.6787 37.1851 12.752C37.3315 12.8252 37.5248 12.8903 37.7649 12.9473L38.8452 13.1853C39.5003 13.3318 39.9845 13.5495 40.2979 13.8384C40.6112 14.1273 40.7678 14.5159 40.7678 15.0042V15.0164C40.7678 15.4395 40.6458 15.8098 40.4016 16.1272C40.1575 16.4446 39.8218 16.6928 39.3945 16.8718C38.9673 17.0468 38.481 17.1343 37.9358 17.1343ZM45.1624 17.1343C44.491 17.1343 43.9172 16.9959 43.4412 16.7192C42.9651 16.4425 42.6009 16.0438 42.3486 15.5229C42.0964 15.0021 41.9702 14.3796 41.9702 13.6553V13.6431C41.9702 12.9229 42.0964 12.3064 42.3486 11.7937C42.6009 11.281 42.9651 10.8883 43.4412 10.6157C43.9172 10.339 44.4889 10.2007 45.1562 10.2007C45.73 10.2007 46.2223 10.3004 46.6333 10.4998C47.0483 10.6951 47.3759 10.9677 47.616 11.3176C47.8601 11.6635 48.0107 12.0684 48.0676 12.5322V12.5566H46.6333L46.6272 12.5383C46.558 12.2128 46.3993 11.9463 46.1511 11.7388C45.907 11.5312 45.5774 11.4275 45.1624 11.4275C44.8165 11.4275 44.5194 11.515 44.2712 11.6899C44.0271 11.8649 43.8399 12.1172 43.7097 12.4468C43.5795 12.7764 43.5144 13.1751 43.5144 13.6431V13.6553C43.5144 14.1273 43.5795 14.5321 43.7097 14.8699C43.844 15.2035 44.0332 15.4599 44.2773 15.6389C44.5215 15.8139 44.8165 15.9014 45.1624 15.9014C45.557 15.9014 45.8744 15.8118 46.1145 15.6328C46.3586 15.4538 46.5275 15.1893 46.6211 14.8394L46.6333 14.8149L48.0615 14.8088L48.0554 14.8638C47.9822 15.3154 47.8235 15.7122 47.5793 16.054C47.3393 16.3958 47.0178 16.6623 46.615 16.8535C46.2122 17.0407 45.7279 17.1343 45.1624 17.1343ZM49.5142 17V10.3289H51.0339V11.3542H51.1377C51.2516 10.9962 51.4551 10.7174 51.748 10.5181C52.0451 10.3187 52.4133 10.219 52.8528 10.219C52.9667 10.219 53.0786 10.2271 53.1885 10.2434C53.3024 10.2556 53.396 10.2719 53.4692 10.2922V11.6533C53.3472 11.6248 53.2231 11.6045 53.0969 11.5923C52.9749 11.576 52.8467 11.5679 52.7124 11.5679C52.3747 11.5679 52.0797 11.6309 51.8274 11.7571C51.5751 11.8832 51.3798 12.0643 51.2415 12.3003C51.1031 12.5322 51.0339 12.8069 51.0339 13.1243V17H49.5142ZM54.7205 17V10.3289H56.2341V17H54.7205ZM55.4834 9.21191C55.2352 9.21191 55.0216 9.12443 54.8425 8.94946C54.6635 8.7745 54.574 8.56494 54.574 8.3208C54.574 8.06852 54.6635 7.85693 54.8425 7.68604C55.0216 7.51107 55.2352 7.42358 55.4834 7.42358C55.7316 7.42358 55.9432 7.51107 56.1182 7.68604C56.2972 7.85693 56.3867 8.06852 56.3867 8.3208C56.3867 8.56494 56.2972 8.7745 56.1182 8.94946C55.9432 9.12443 55.7316 9.21191 55.4834 9.21191ZM58.1079 19.2156V10.3289H59.6277V11.3726H59.7314C59.8535 11.1325 60.0122 10.927 60.2075 10.7561C60.4069 10.5852 60.6368 10.453 60.8972 10.3594C61.1576 10.2658 61.4445 10.219 61.7578 10.219C62.3153 10.219 62.7974 10.3594 63.2043 10.6401C63.6153 10.9209 63.9327 11.3197 64.1565 11.8364C64.3844 12.3491 64.4983 12.9574 64.4983 13.6614V13.6736C64.4983 14.3816 64.3864 14.9919 64.1626 15.5046C63.9388 16.0173 63.6214 16.4141 63.2104 16.6948C62.8035 16.9715 62.3193 17.1099 61.7578 17.1099C61.4526 17.1099 61.1678 17.0631 60.9033 16.9695C60.6388 16.8718 60.4069 16.7355 60.2075 16.5605C60.0081 16.3856 59.8494 16.1781 59.7314 15.938H59.6277V19.2156H58.1079ZM61.2817 15.8281C61.6276 15.8281 61.9246 15.7427 62.1729 15.5718C62.4211 15.3968 62.6123 15.1486 62.7466 14.8271C62.8809 14.5016 62.948 14.1171 62.948 13.6736V13.6614C62.948 13.2097 62.8809 12.8232 62.7466 12.5017C62.6123 12.1803 62.4211 11.9341 62.1729 11.7632C61.9246 11.5882 61.6276 11.5007 61.2817 11.5007C60.9359 11.5007 60.6368 11.5882 60.3845 11.7632C60.1363 11.9341 59.943 12.1803 59.8047 12.5017C59.6704 12.8232 59.6033 13.2077 59.6033 13.6553V13.6675C59.6033 14.1151 59.6704 14.5016 59.8047 14.8271C59.943 15.1486 60.1383 15.3968 60.3906 15.5718C60.6429 15.7427 60.9399 15.8281 61.2817 15.8281ZM68.6548 17.0305C67.8898 17.0305 67.3385 16.8901 67.0007 16.6094C66.663 16.3286 66.4941 15.8688 66.4941 15.23V11.5068H65.4565V10.3289H66.4941V8.69312H68.0383V10.3289H69.4421V11.5068H68.0383V14.8699C68.0383 15.1995 68.1075 15.4416 68.2458 15.5962C68.3883 15.7467 68.6161 15.822 68.9294 15.822C69.0393 15.822 69.1288 15.82 69.198 15.8159C69.2712 15.8078 69.3526 15.7996 69.4421 15.7915V16.9634C69.3363 16.9837 69.2143 17 69.0759 17.0122C68.9417 17.0244 68.8013 17.0305 68.6548 17.0305Z" fill="#4493F8"/>
</svg>
