<svg width="61" height="26" viewBox="0 0 61 26" fill="none" xmlns="http://www.w3.org/2000/svg">
<rect width="61" height="26" rx="13" fill="#141D2E"/>
<path d="M10.9888 17V7.74707H12.5085V17H10.9888ZM16.2378 17.1099C15.8187 17.1099 15.4423 17.0285 15.1086 16.8657C14.7791 16.703 14.5186 16.4731 14.3274 16.176C14.1402 15.8749 14.0466 15.5209 14.0466 15.114V15.1018C14.0466 14.7071 14.1443 14.3674 14.3396 14.0825C14.5349 13.7936 14.8218 13.5678 15.2002 13.405C15.5786 13.2423 16.0384 13.1466 16.5796 13.1182L19.0454 12.9656V13.9666L16.7932 14.113C16.366 14.1375 16.0506 14.227 15.8472 14.3816C15.6437 14.5362 15.542 14.7519 15.542 15.0286V15.0408C15.542 15.3256 15.6498 15.5474 15.8655 15.7061C16.0852 15.8647 16.3639 15.9441 16.7017 15.9441C17.0068 15.9441 17.2795 15.8831 17.5195 15.761C17.7596 15.6389 17.9488 15.4741 18.0872 15.2666C18.2255 15.055 18.2947 14.817 18.2947 14.5525V12.4407C18.2947 12.107 18.1889 11.8527 17.9773 11.6777C17.7657 11.4987 17.4524 11.4092 17.0374 11.4092C16.6915 11.4092 16.4087 11.4702 16.189 11.5923C15.9692 11.7103 15.8207 11.8792 15.7434 12.0989L15.7373 12.1233H14.303L14.3091 12.0684C14.3579 11.694 14.5044 11.3665 14.7485 11.0857C14.9927 10.8049 15.3162 10.5872 15.719 10.4326C16.1218 10.278 16.5857 10.2007 17.1106 10.2007C17.6884 10.2007 18.1767 10.2902 18.5754 10.4692C18.9742 10.6442 19.2773 10.9006 19.4849 11.2383C19.6924 11.5719 19.7961 11.9727 19.7961 12.4407V17H18.2947V16.0845H18.1909C18.0688 16.2961 17.9102 16.4792 17.7148 16.6338C17.5236 16.7884 17.3039 16.9064 17.0557 16.9878C16.8075 17.0692 16.5348 17.1099 16.2378 17.1099ZM21.6211 17V10.3289H23.1409V11.3542H23.2446C23.3586 10.9962 23.562 10.7174 23.855 10.5181C24.152 10.3187 24.5203 10.219 24.9597 10.219C25.0736 10.219 25.1855 10.2271 25.2954 10.2434C25.4093 10.2556 25.5029 10.2719 25.5762 10.2922V11.6533C25.4541 11.6248 25.33 11.6045 25.2039 11.5923C25.0818 11.576 24.9536 11.5679 24.8193 11.5679C24.4816 11.5679 24.1866 11.6309 23.9343 11.7571C23.682 11.8832 23.4867 12.0643 23.3484 12.3003C23.21 12.5322 23.1409 12.8069 23.1409 13.1243V17H21.6211ZM28.5547 17.1099C28.1356 17.1099 27.7592 17.0285 27.4255 16.8657C27.0959 16.703 26.8355 16.4731 26.6443 16.176C26.4571 15.8749 26.3635 15.5209 26.3635 15.114V15.1018C26.3635 14.7071 26.4612 14.3674 26.6565 14.0825C26.8518 13.7936 27.1387 13.5678 27.5171 13.405C27.8955 13.2423 28.3553 13.1466 28.8965 13.1182L31.3623 12.9656V13.9666L29.1101 14.113C28.6829 14.1375 28.3675 14.227 28.1641 14.3816C27.9606 14.5362 27.8589 14.7519 27.8589 15.0286V15.0408C27.8589 15.3256 27.9667 15.5474 28.1824 15.7061C28.4021 15.8647 28.6808 15.9441 29.0186 15.9441C29.3237 15.9441 29.5964 15.8831 29.8364 15.761C30.0765 15.6389 30.2657 15.4741 30.4041 15.2666C30.5424 15.055 30.6116 14.817 30.6116 14.5525V12.4407C30.6116 12.107 30.5058 11.8527 30.2942 11.6777C30.0826 11.4987 29.7693 11.4092 29.3542 11.4092C29.0084 11.4092 28.7256 11.4702 28.5059 11.5923C28.2861 11.7103 28.1376 11.8792 28.0603 12.0989L28.0542 12.1233H26.6199L26.626 12.0684C26.6748 11.694 26.8213 11.3665 27.0654 11.0857C27.3096 10.8049 27.6331 10.5872 28.0359 10.4326C28.4387 10.278 28.9026 10.2007 29.4275 10.2007C30.0053 10.2007 30.4936 10.2902 30.8923 10.4692C31.2911 10.6442 31.5942 10.9006 31.8018 11.2383C32.0093 11.5719 32.113 11.9727 32.113 12.4407V17H30.6116V16.0845H30.5078C30.3857 16.2961 30.2271 16.4792 30.0317 16.6338C29.8405 16.7884 29.6208 16.9064 29.3726 16.9878C29.1243 17.0692 28.8517 17.1099 28.5547 17.1099ZM35.5249 17L33.1506 10.3289H34.7742L36.3123 15.5168H36.4221L37.9541 10.3289H39.5532L37.1851 17H35.5249ZM43.4229 17.1343C42.7596 17.1343 42.1899 16.9939 41.7139 16.7131C41.2419 16.4324 40.8777 16.0336 40.6213 15.5168C40.365 15.0001 40.2368 14.3877 40.2368 13.6797V13.6736C40.2368 12.9737 40.363 12.3634 40.6152 11.8425C40.8716 11.3217 41.2337 10.9189 41.7017 10.634C42.1696 10.3451 42.7189 10.2007 43.3496 10.2007C43.9844 10.2007 44.5296 10.3411 44.9854 10.6218C45.4451 10.8985 45.7992 11.2871 46.0474 11.7876C46.2956 12.2881 46.4197 12.874 46.4197 13.5454V14.0459H40.9998V13.0266H45.675L44.9548 13.9788V13.3745C44.9548 12.931 44.8877 12.5627 44.7534 12.2698C44.6191 11.9768 44.432 11.7571 44.1919 11.6106C43.9559 11.4641 43.6812 11.3909 43.3679 11.3909C43.0546 11.3909 42.7759 11.4682 42.5317 11.6228C42.2917 11.7734 42.1004 11.9972 41.958 12.2942C41.8197 12.5872 41.7505 12.9473 41.7505 13.3745V13.9849C41.7505 14.3958 41.8197 14.7478 41.958 15.0408C42.0964 15.3297 42.2917 15.5535 42.5439 15.7122C42.8003 15.8668 43.1034 15.9441 43.4534 15.9441C43.726 15.9441 43.96 15.9054 44.1553 15.8281C44.3547 15.7467 44.5154 15.6511 44.6375 15.5413C44.7595 15.4273 44.845 15.3195 44.8938 15.2178L44.9121 15.175H46.3525L46.3403 15.23C46.2874 15.4456 46.1898 15.6654 46.0474 15.8892C45.909 16.1089 45.7198 16.3144 45.4797 16.5056C45.2437 16.6928 44.9548 16.8454 44.613 16.9634C44.2712 17.0773 43.8745 17.1343 43.4229 17.1343ZM48.0005 17V7.74707H49.5203V17H48.0005Z" fill="#4493F8"/>
</svg>
