<svg width="117" height="26" viewBox="0 0 117 26" fill="none" xmlns="http://www.w3.org/2000/svg">
<rect width="117" height="26" rx="13" fill="#141D2E"/>
<path d="M12.7954 17.116C12.3804 17.116 12.006 17.0366 11.6724 16.8779C11.3428 16.7192 11.0803 16.4934 10.885 16.2004C10.6938 15.9075 10.5981 15.5616 10.5981 15.1628V15.1506C10.5981 14.76 10.6917 14.4264 10.8789 14.1497C11.0661 13.8689 11.3387 13.6492 11.6968 13.4905C12.0549 13.3318 12.4882 13.2382 12.9968 13.2097L15.4138 13.0632V13.9116L13.125 14.0581C12.6245 14.0866 12.2583 14.1903 12.0264 14.3694C11.7985 14.5484 11.6846 14.8007 11.6846 15.1262V15.1384C11.6846 15.4721 11.8107 15.7325 12.063 15.9197C12.3153 16.1028 12.6326 16.1943 13.0151 16.1943C13.3773 16.1943 13.6987 16.1231 13.9795 15.9807C14.2603 15.8342 14.48 15.6369 14.6387 15.3887C14.8014 15.1405 14.8828 14.8597 14.8828 14.5464V12.4956C14.8828 12.0887 14.7587 11.7795 14.5105 11.5679C14.2664 11.3522 13.8981 11.2444 13.4058 11.2444C13.0111 11.2444 12.6876 11.3156 12.4353 11.458C12.183 11.5964 12.0142 11.7937 11.9287 12.05L11.9226 12.0684H10.8606L10.8667 12.0317C10.9237 11.6859 11.0661 11.3848 11.2939 11.1284C11.5259 10.868 11.825 10.6666 12.1912 10.5242C12.5574 10.3777 12.9744 10.3044 13.4424 10.3044C13.9795 10.3044 14.4332 10.3919 14.8035 10.5669C15.1778 10.7419 15.4606 10.9941 15.6519 11.3237C15.8472 11.6493 15.9448 12.0399 15.9448 12.4956V17H14.8828V16.0295H14.7852C14.6468 16.2615 14.4779 16.4588 14.2786 16.6216C14.0833 16.7843 13.8615 16.9084 13.6133 16.9939C13.3651 17.0753 13.0924 17.116 12.7954 17.116ZM20.3149 17.116C19.7616 17.116 19.2773 16.9756 18.8623 16.6948C18.4473 16.4141 18.1258 16.0194 17.8979 15.5107C17.6701 14.998 17.5562 14.3999 17.5562 13.7163V13.7041C17.5562 13.0164 17.6701 12.4183 17.8979 11.9097C18.1258 11.401 18.4452 11.0063 18.8562 10.7256C19.2712 10.4448 19.7575 10.3044 20.3149 10.3044C20.616 10.3044 20.8988 10.3533 21.1633 10.4509C21.4319 10.5445 21.6699 10.6768 21.8774 10.8477C22.085 11.0186 22.2477 11.222 22.3657 11.458H22.4634V7.80811H23.5254V17H22.4634V15.9502H22.3657C22.2314 16.1943 22.0626 16.4039 21.8591 16.5789C21.6557 16.7498 21.4237 16.882 21.1633 16.9756C20.9029 17.0692 20.6201 17.116 20.3149 17.116ZM20.5591 16.176C20.9578 16.176 21.3017 16.0763 21.5906 15.877C21.8795 15.6776 22.1012 15.3948 22.2559 15.0286C22.4105 14.6583 22.4878 14.2209 22.4878 13.7163V13.7041C22.4878 13.1955 22.4105 12.7581 22.2559 12.3918C22.1012 12.0256 21.8795 11.7428 21.5906 11.5435C21.3017 11.3441 20.9578 11.2444 20.5591 11.2444C20.1603 11.2444 19.8165 11.3441 19.5276 11.5435C19.2428 11.7388 19.023 12.0195 18.8684 12.3857C18.7179 12.752 18.6426 13.1914 18.6426 13.7041V13.7163C18.6426 14.2249 18.7179 14.6644 18.8684 15.0347C19.023 15.4009 19.2428 15.6837 19.5276 15.8831C19.8165 16.0784 20.1603 16.176 20.5591 16.176ZM28.2678 17.116C27.6453 17.116 27.1061 16.9797 26.6504 16.707C26.1987 16.4303 25.8488 16.0377 25.6006 15.5291C25.3564 15.0204 25.2344 14.4162 25.2344 13.7163V13.7041C25.2344 13.0002 25.3564 12.3939 25.6006 11.8853C25.8488 11.3766 26.1987 10.986 26.6504 10.7134C27.1061 10.4408 27.6453 10.3044 28.2678 10.3044C28.8944 10.3044 29.4336 10.4408 29.8853 10.7134C30.3369 10.986 30.6848 11.3766 30.929 11.8853C31.1772 12.3939 31.3013 13.0002 31.3013 13.7041V13.7163C31.3013 14.4162 31.1772 15.0204 30.929 15.5291C30.6848 16.0377 30.3369 16.4303 29.8853 16.707C29.4336 16.9797 28.8944 17.116 28.2678 17.116ZM28.2678 16.176C28.6829 16.176 29.0348 16.0784 29.3237 15.8831C29.6126 15.6877 29.8324 15.407 29.9829 15.0408C30.1375 14.6746 30.2148 14.2331 30.2148 13.7163V13.7041C30.2148 13.1833 30.1375 12.7397 29.9829 12.3735C29.8324 12.0073 29.6126 11.7286 29.3237 11.5374C29.0348 11.342 28.6829 11.2444 28.2678 11.2444C27.8528 11.2444 27.5008 11.342 27.2119 11.5374C26.923 11.7286 26.7013 12.0073 26.5466 12.3735C26.3961 12.7397 26.3208 13.1833 26.3208 13.7041V13.7163C26.3208 14.2331 26.3961 14.6746 26.5466 15.0408C26.7013 15.407 26.923 15.6877 27.2119 15.8831C27.5008 16.0784 27.8528 16.176 28.2678 16.176ZM36.2207 17.116C35.9155 17.116 35.6327 17.0692 35.3723 16.9756C35.1119 16.882 34.88 16.7498 34.6765 16.5789C34.4731 16.4039 34.3042 16.1943 34.1699 15.9502H34.0723V17H33.0103V7.80811H34.0723V11.458H34.1699C34.292 11.222 34.4548 11.0186 34.6582 10.8477C34.8657 10.6768 35.1017 10.5445 35.3662 10.4509C35.6348 10.3533 35.9196 10.3044 36.2207 10.3044C36.7782 10.3044 37.2624 10.4448 37.6733 10.7256C38.0884 11.0063 38.4098 11.401 38.6377 11.9097C38.8656 12.4183 38.9795 13.0164 38.9795 13.7041V13.7163C38.9795 14.3999 38.8656 14.998 38.6377 15.5107C38.4098 16.0194 38.0884 16.4141 37.6733 16.6948C37.2624 16.9756 36.7782 17.116 36.2207 17.116ZM35.9766 16.176C36.3794 16.176 36.7232 16.0784 37.0081 15.8831C37.2929 15.6837 37.5106 15.4009 37.6611 15.0347C37.8158 14.6644 37.8931 14.2249 37.8931 13.7163V13.7041C37.8931 13.1914 37.8158 12.752 37.6611 12.3857C37.5106 12.0195 37.2929 11.7388 37.0081 11.5435C36.7232 11.3441 36.3794 11.2444 35.9766 11.2444C35.5778 11.2444 35.234 11.3441 34.9451 11.5435C34.6562 11.7428 34.4344 12.0256 34.2798 12.3918C34.1252 12.7581 34.0479 13.1955 34.0479 13.7041V13.7163C34.0479 14.2209 34.1252 14.6583 34.2798 15.0286C34.4344 15.3948 34.6562 15.6776 34.9451 15.877C35.234 16.0763 35.5778 16.176 35.9766 16.176ZM43.313 17.116C42.6864 17.116 42.1472 16.9776 41.6956 16.7009C41.248 16.4242 40.9021 16.0336 40.658 15.5291C40.4179 15.0204 40.2979 14.4223 40.2979 13.7346V13.7285C40.2979 13.049 40.4179 12.4529 40.658 11.9402C40.9021 11.4275 41.2459 11.0267 41.6895 10.7378C42.133 10.4489 42.6518 10.3044 43.2458 10.3044C43.844 10.3044 44.3567 10.4428 44.7839 10.7195C45.2153 10.9962 45.5448 11.3827 45.7727 11.8792C46.0046 12.3715 46.1206 12.9452 46.1206 13.6003V14.0154H40.8472V13.167H45.5774L45.0525 13.9421V13.521C45.0525 13.0042 44.9752 12.579 44.8206 12.2454C44.6659 11.9117 44.4523 11.6635 44.1797 11.5007C43.9071 11.3339 43.5938 11.2505 43.2397 11.2505C42.8857 11.2505 42.5684 11.338 42.2876 11.5129C42.0109 11.6838 41.7912 11.9382 41.6284 12.2759C41.4657 12.6136 41.3843 13.0286 41.3843 13.521V13.9421C41.3843 14.4101 41.4636 14.8109 41.6223 15.1445C41.781 15.4741 42.0068 15.7284 42.2998 15.9075C42.5928 16.0824 42.9386 16.1699 43.3374 16.1699C43.6344 16.1699 43.8928 16.1292 44.1125 16.0479C44.3323 15.9665 44.5133 15.8627 44.6558 15.7366C44.7982 15.6104 44.8979 15.4823 44.9548 15.3521L44.9792 15.2971H46.0413L46.0291 15.3459C45.9721 15.5697 45.8704 15.7874 45.7239 15.999C45.5815 16.2065 45.3963 16.3958 45.1685 16.5667C44.9406 16.7335 44.67 16.8678 44.3567 16.9695C44.0474 17.0671 43.6995 17.116 43.313 17.116ZM51.3086 17V10.4204H52.3706V17H51.3086ZM51.8457 9.15088C51.6463 9.15088 51.4734 9.07967 51.3269 8.93726C51.1845 8.79077 51.1133 8.61784 51.1133 8.41846C51.1133 8.21501 51.1845 8.04207 51.3269 7.89966C51.4734 7.75724 51.6463 7.68604 51.8457 7.68604C52.0492 7.68604 52.2221 7.75724 52.3645 7.89966C52.5069 8.04207 52.5781 8.21501 52.5781 8.41846C52.5781 8.61784 52.5069 8.79077 52.3645 8.93726C52.2221 9.07967 52.0492 9.15088 51.8457 9.15088ZM54.4336 17V7.80811H55.4956V17H54.4336ZM57.5952 17V7.80811H58.6572V17H57.5952ZM62.8992 17.116C62.4028 17.116 61.9857 17.0224 61.6479 16.8352C61.3102 16.644 61.0559 16.3673 60.885 16.0051C60.7182 15.6389 60.6348 15.1974 60.6348 14.6807V10.4204H61.6968V14.4243C61.6968 15.0143 61.8107 15.4538 62.0386 15.7427C62.2705 16.0316 62.6489 16.176 63.1738 16.176C63.4627 16.176 63.717 16.1333 63.9368 16.0479C64.1606 15.9624 64.3477 15.8403 64.4983 15.6816C64.6488 15.5189 64.7607 15.3236 64.834 15.0957C64.9113 14.8638 64.95 14.6034 64.95 14.3145V10.4204H66.012V17H64.95V16.0173H64.8523C64.7465 16.2493 64.6021 16.4486 64.4189 16.6155C64.2358 16.7782 64.0161 16.9023 63.7598 16.9878C63.5075 17.0732 63.2206 17.116 62.8992 17.116ZM70.2539 17.116C69.7656 17.116 69.3343 17.0427 68.96 16.8962C68.5856 16.7457 68.2845 16.5361 68.0566 16.2676C67.8328 15.999 67.7006 15.6837 67.6599 15.3215H68.7463C68.8359 15.5942 69.0108 15.8139 69.2712 15.9807C69.5317 16.1475 69.8714 16.231 70.2905 16.231C70.5876 16.231 70.848 16.1882 71.0718 16.1028C71.2996 16.0133 71.4787 15.8932 71.6089 15.7427C71.7391 15.5881 71.8042 15.4111 71.8042 15.2117V15.1995C71.8042 14.9757 71.7147 14.7865 71.5356 14.6318C71.3566 14.4731 71.0636 14.345 70.6567 14.2473L69.6375 14.0032C69.2265 13.9055 68.8888 13.7794 68.6243 13.6248C68.3598 13.4661 68.1645 13.2728 68.0383 13.0449C67.9122 12.813 67.8491 12.5404 67.8491 12.2271V12.2209C67.8491 11.8547 67.9549 11.5272 68.1665 11.2383C68.3822 10.9494 68.6751 10.7215 69.0454 10.5547C69.4157 10.3879 69.8328 10.3044 70.2966 10.3044C70.7564 10.3044 71.1633 10.3777 71.5173 10.5242C71.8754 10.6666 72.1623 10.87 72.3779 11.1345C72.5977 11.399 72.7319 11.7103 72.7808 12.0684H71.7371C71.6679 11.8079 71.5092 11.5964 71.261 11.4336C71.0128 11.2708 70.6893 11.1895 70.2905 11.1895C70.0301 11.1895 69.7982 11.2322 69.5947 11.3176C69.3913 11.399 69.2306 11.5129 69.1125 11.6594C68.9945 11.8059 68.9355 11.9768 68.9355 12.1721V12.1843C68.9355 12.3308 68.9742 12.461 69.0515 12.575C69.1288 12.6889 69.2489 12.7886 69.4116 12.874C69.5744 12.9595 69.7839 13.0347 70.0403 13.0999L71.0535 13.344C71.672 13.4945 72.1318 13.7102 72.4329 13.991C72.738 14.2717 72.8906 14.6481 72.8906 15.1201V15.1323C72.8906 15.5229 72.7747 15.8688 72.5427 16.1699C72.3108 16.467 71.9954 16.6989 71.5967 16.8657C71.202 17.0326 70.7544 17.116 70.2539 17.116ZM76.8152 17.0488C76.1397 17.0488 75.6494 16.9125 75.3442 16.6399C75.0431 16.3673 74.8926 15.9176 74.8926 15.291V11.2993H73.855V10.4204H74.8926V8.71753H75.9912V10.4204H77.4316V11.2993H75.9912V15.0225C75.9912 15.409 76.0645 15.6877 76.2109 15.8586C76.3574 16.0255 76.6016 16.1089 76.9434 16.1089C77.0369 16.1089 77.1163 16.1069 77.1814 16.1028C77.2506 16.0987 77.334 16.0926 77.4316 16.0845V16.9878C77.3299 17.0041 77.2282 17.0183 77.1265 17.0305C77.0247 17.0427 76.921 17.0488 76.8152 17.0488ZM79.0186 17V10.4204H80.0806V11.397H80.1782C80.3044 11.0511 80.518 10.7826 80.8191 10.5913C81.1202 10.4001 81.4925 10.3044 81.936 10.3044C82.0378 10.3044 82.1375 10.3105 82.2351 10.3228C82.3368 10.3309 82.4141 10.339 82.467 10.3472V11.3787C82.3572 11.3583 82.2493 11.3441 82.1436 11.3359C82.0418 11.3237 81.932 11.3176 81.814 11.3176C81.4762 11.3176 81.1772 11.3848 80.9167 11.519C80.6563 11.6533 80.4508 11.8405 80.3003 12.0806C80.1538 12.3206 80.0806 12.6014 80.0806 12.9229V17H79.0186ZM85.5859 17.116C85.1709 17.116 84.7965 17.0366 84.4629 16.8779C84.1333 16.7192 83.8708 16.4934 83.6755 16.2004C83.4843 15.9075 83.3887 15.5616 83.3887 15.1628V15.1506C83.3887 14.76 83.4823 14.4264 83.6694 14.1497C83.8566 13.8689 84.1292 13.6492 84.4873 13.4905C84.8454 13.3318 85.2787 13.2382 85.7874 13.2097L88.2043 13.0632V13.9116L85.9155 14.0581C85.415 14.0866 85.0488 14.1903 84.8169 14.3694C84.589 14.5484 84.4751 14.8007 84.4751 15.1262V15.1384C84.4751 15.4721 84.6012 15.7325 84.8535 15.9197C85.1058 16.1028 85.4232 16.1943 85.8057 16.1943C86.1678 16.1943 86.4893 16.1231 86.77 15.9807C87.0508 15.8342 87.2705 15.6369 87.4292 15.3887C87.592 15.1405 87.6733 14.8597 87.6733 14.5464V12.4956C87.6733 12.0887 87.5492 11.7795 87.301 11.5679C87.0569 11.3522 86.6886 11.2444 86.1963 11.2444C85.8016 11.2444 85.4781 11.3156 85.2258 11.458C84.9736 11.5964 84.8047 11.7937 84.7192 12.05L84.7131 12.0684H83.6511L83.6572 12.0317C83.7142 11.6859 83.8566 11.3848 84.0845 11.1284C84.3164 10.868 84.6155 10.6666 84.9817 10.5242C85.3479 10.3777 85.765 10.3044 86.2329 10.3044C86.77 10.3044 87.2237 10.3919 87.594 10.5669C87.9683 10.7419 88.2511 10.9941 88.4424 11.3237C88.6377 11.6493 88.7354 12.0399 88.7354 12.4956V17H87.6733V16.0295H87.5757C87.4373 16.2615 87.2685 16.4588 87.0691 16.6216C86.8738 16.7843 86.652 16.9084 86.4038 16.9939C86.1556 17.0753 85.883 17.116 85.5859 17.116ZM93.0139 17.0488C92.3385 17.0488 91.8481 16.9125 91.543 16.6399C91.2419 16.3673 91.0913 15.9176 91.0913 15.291V11.2993H90.0537V10.4204H91.0913V8.71753H92.1899V10.4204H93.6304V11.2993H92.1899V15.0225C92.1899 15.409 92.2632 15.6877 92.4097 15.8586C92.5562 16.0255 92.8003 16.1089 93.1421 16.1089C93.2357 16.1089 93.315 16.1069 93.3801 16.1028C93.4493 16.0987 93.5327 16.0926 93.6304 16.0845V16.9878C93.5286 17.0041 93.4269 17.0183 93.3252 17.0305C93.2235 17.0427 93.1197 17.0488 93.0139 17.0488ZM97.8357 17.116C97.2131 17.116 96.674 16.9797 96.2183 16.707C95.7666 16.4303 95.4167 16.0377 95.1685 15.5291C94.9243 15.0204 94.8022 14.4162 94.8022 13.7163V13.7041C94.8022 13.0002 94.9243 12.3939 95.1685 11.8853C95.4167 11.3766 95.7666 10.986 96.2183 10.7134C96.674 10.4408 97.2131 10.3044 97.8357 10.3044C98.4623 10.3044 99.0015 10.4408 99.4531 10.7134C99.9048 10.986 100.253 11.3766 100.497 11.8853C100.745 12.3939 100.869 13.0002 100.869 13.7041V13.7163C100.869 14.4162 100.745 15.0204 100.497 15.5291C100.253 16.0377 99.9048 16.4303 99.4531 16.707C99.0015 16.9797 98.4623 17.116 97.8357 17.116ZM97.8357 16.176C98.2507 16.176 98.6027 16.0784 98.8916 15.8831C99.1805 15.6877 99.4002 15.407 99.5508 15.0408C99.7054 14.6746 99.7827 14.2331 99.7827 13.7163V13.7041C99.7827 13.1833 99.7054 12.7397 99.5508 12.3735C99.4002 12.0073 99.1805 11.7286 98.8916 11.5374C98.6027 11.342 98.2507 11.2444 97.8357 11.2444C97.4207 11.2444 97.0687 11.342 96.7798 11.5374C96.4909 11.7286 96.2691 12.0073 96.1145 12.3735C95.9639 12.7397 95.8887 13.1833 95.8887 13.7041V13.7163C95.8887 14.2331 95.9639 14.6746 96.1145 15.0408C96.2691 15.407 96.4909 15.6877 96.7798 15.8831C97.0687 16.0784 97.4207 16.176 97.8357 16.176ZM102.517 17V10.4204H103.579V11.397H103.677C103.803 11.0511 104.017 10.7826 104.318 10.5913C104.619 10.4001 104.991 10.3044 105.435 10.3044C105.536 10.3044 105.636 10.3105 105.734 10.3228C105.835 10.3309 105.913 10.339 105.966 10.3472V11.3787C105.856 11.3583 105.748 11.3441 105.642 11.3359C105.54 11.3237 105.431 11.3176 105.312 11.3176C104.975 11.3176 104.676 11.3848 104.415 11.519C104.155 11.6533 103.949 11.8405 103.799 12.0806C103.652 12.3206 103.579 12.6014 103.579 12.9229V17H102.517Z" fill="#4493F8"/>
</svg>
