<svg width="78" height="26" viewBox="0 0 78 26" fill="none" xmlns="http://www.w3.org/2000/svg">
<rect width="78" height="26" rx="13" fill="#141D2E"/>
<path d="M12.771 17.1099C12.3519 17.1099 11.9755 17.0305 11.6418 16.8718C11.3123 16.7091 11.0518 16.4792 10.8606 16.1821C10.6694 15.8851 10.5737 15.5372 10.5737 15.1384V15.1262C10.5737 14.7275 10.6694 14.3877 10.8606 14.1069C11.0559 13.8262 11.3367 13.6064 11.7029 13.4478C12.0732 13.285 12.5208 13.1873 13.0457 13.1548L15.4932 13.0083V13.9421L13.2288 14.0886C12.773 14.1171 12.4373 14.2148 12.2217 14.3816C12.006 14.5444 11.8982 14.7743 11.8982 15.0713V15.0835C11.8982 15.3846 12.0142 15.6226 12.2461 15.7976C12.478 15.9685 12.771 16.054 13.125 16.054C13.4546 16.054 13.7476 15.9889 14.0039 15.8586C14.2643 15.7244 14.4678 15.5453 14.6143 15.3215C14.7607 15.0937 14.834 14.8373 14.834 14.5525V12.4651C14.834 12.0989 14.7201 11.8201 14.4922 11.6289C14.2684 11.4336 13.9347 11.3359 13.4912 11.3359C13.1209 11.3359 12.8178 11.401 12.5818 11.5312C12.3499 11.6615 12.1952 11.8446 12.1179 12.0806L12.1057 12.0989H10.8301L10.8362 12.0562C10.8891 11.6899 11.0335 11.3726 11.2695 11.104C11.5096 10.8314 11.8229 10.6198 12.2095 10.4692C12.6001 10.3187 13.0457 10.2434 13.5461 10.2434C14.1036 10.2434 14.5756 10.3329 14.9622 10.512C15.3528 10.6869 15.6478 10.9412 15.8472 11.2749C16.0506 11.6045 16.1523 12.0012 16.1523 12.4651V17H14.834V16.0601H14.7363C14.6061 16.2839 14.4434 16.4751 14.248 16.6338C14.0527 16.7884 13.831 16.9064 13.5828 16.9878C13.3346 17.0692 13.064 17.1099 12.771 17.1099ZM20.437 17.1099C19.8836 17.1099 19.3994 16.9715 18.9844 16.6948C18.5734 16.4141 18.254 16.0173 18.0261 15.5046C17.8023 14.9919 17.6904 14.3877 17.6904 13.6919V13.6797C17.6904 12.9798 17.8023 12.3735 18.0261 11.8608C18.2499 11.3481 18.5673 10.9535 18.9783 10.6768C19.3892 10.396 19.8755 10.2556 20.437 10.2556C20.7422 10.2556 21.027 10.3044 21.2915 10.4021C21.556 10.4957 21.79 10.63 21.9934 10.8049C22.1969 10.9758 22.3576 11.1813 22.4756 11.4214H22.5732V7.77148H23.9038V17H22.5732V15.9563H22.4756C22.3454 16.1964 22.1806 16.4039 21.9812 16.5789C21.7818 16.7498 21.5519 16.882 21.2915 16.9756C21.0311 17.0651 20.7463 17.1099 20.437 17.1099ZM20.8154 15.9746C21.1816 15.9746 21.499 15.8831 21.7676 15.7C22.0361 15.5168 22.2416 15.2544 22.384 14.9126C22.5264 14.5667 22.5977 14.1598 22.5977 13.6919V13.6797C22.5977 13.2077 22.5244 12.8008 22.3779 12.459C22.2355 12.1172 22.03 11.8547 21.7615 11.6716C21.497 11.4845 21.1816 11.3909 20.8154 11.3909C20.4492 11.3909 20.1318 11.4845 19.8633 11.6716C19.5988 11.8547 19.3953 12.1172 19.2529 12.459C19.1146 12.7967 19.0454 13.2036 19.0454 13.6797V13.6919C19.0454 14.1639 19.1146 14.5708 19.2529 14.9126C19.3953 15.2544 19.5988 15.5168 19.8633 15.7C20.1318 15.8831 20.4492 15.9746 20.8154 15.9746ZM28.6768 17.1282C28.0298 17.1282 27.4703 16.9898 26.9983 16.7131C26.5304 16.4364 26.1702 16.0417 25.918 15.5291C25.6657 15.0123 25.5396 14.3999 25.5396 13.6919V13.6797C25.5396 12.9676 25.6657 12.3552 25.918 11.8425C26.1743 11.3298 26.5365 10.9351 27.0044 10.6584C27.4764 10.3818 28.0339 10.2434 28.6768 10.2434C29.3237 10.2434 29.8812 10.3818 30.3491 10.6584C30.8171 10.9311 31.1772 11.3258 31.4294 11.8425C31.6858 12.3552 31.814 12.9676 31.814 13.6797V13.6919C31.814 14.3999 31.6858 15.0123 31.4294 15.5291C31.1772 16.0417 30.8171 16.4364 30.3491 16.7131C29.8853 16.9898 29.3278 17.1282 28.6768 17.1282ZM28.6768 16.0173C29.0552 16.0173 29.3766 15.9258 29.6411 15.7427C29.9056 15.5555 30.107 15.289 30.2454 14.9431C30.3837 14.5972 30.4529 14.1802 30.4529 13.6919V13.6797C30.4529 13.1873 30.3837 12.7682 30.2454 12.4224C30.107 12.0765 29.9056 11.812 29.6411 11.6289C29.3766 11.4417 29.0552 11.3481 28.6768 11.3481C28.2983 11.3481 27.9769 11.4417 27.7124 11.6289C27.4479 11.812 27.2445 12.0765 27.1021 12.4224C26.9637 12.7682 26.8945 13.1873 26.8945 13.6797V13.6919C26.8945 14.1802 26.9637 14.5972 27.1021 14.9431C27.2445 15.289 27.4479 15.5555 27.7124 15.7427C27.9769 15.9258 28.2983 16.0173 28.6768 16.0173ZM36.9165 17.1099C36.6073 17.1099 36.3224 17.0651 36.062 16.9756C35.8016 16.882 35.5697 16.7498 35.3662 16.5789C35.1668 16.4039 35.0041 16.1964 34.8779 15.9563H34.7742V17H33.4497V7.77148H34.7742V11.4214H34.8779C34.9959 11.1813 35.1567 10.9758 35.3601 10.8049C35.5636 10.63 35.7975 10.4957 36.062 10.4021C36.3265 10.3044 36.6113 10.2556 36.9165 10.2556C37.478 10.2556 37.9643 10.396 38.3752 10.6768C38.7862 10.9535 39.1036 11.3481 39.3274 11.8608C39.5512 12.3735 39.6631 12.9798 39.6631 13.6797V13.6919C39.6631 14.3877 39.5492 14.9919 39.3213 15.5046C39.0975 16.0173 38.7801 16.4141 38.3691 16.6948C37.9582 16.9715 37.474 17.1099 36.9165 17.1099ZM36.5381 15.9746C36.9084 15.9746 37.2257 15.8831 37.4902 15.7C37.7547 15.5168 37.9561 15.2544 38.0945 14.9126C38.2369 14.5708 38.3081 14.1639 38.3081 13.6919V13.6797C38.3081 13.2036 38.2369 12.7967 38.0945 12.459C37.9561 12.1172 37.7547 11.8547 37.4902 11.6716C37.2257 11.4845 36.9084 11.3909 36.5381 11.3909C36.1719 11.3909 35.8545 11.4845 35.5859 11.6716C35.3174 11.8547 35.1119 12.1172 34.9695 12.459C34.8271 12.8008 34.7559 13.2077 34.7559 13.6797V13.6919C34.7559 14.1598 34.8271 14.5667 34.9695 14.9126C35.1119 15.2544 35.3174 15.5168 35.5859 15.7C35.8545 15.8831 36.1719 15.9746 36.5381 15.9746ZM44.021 17.1282C43.374 17.1282 42.8186 16.9898 42.3547 16.7131C41.8909 16.4324 41.5328 16.0356 41.2805 15.5229C41.0323 15.0103 40.9082 14.404 40.9082 13.7041V13.698C40.9082 13.0063 41.0323 12.402 41.2805 11.8853C41.5328 11.3685 41.8868 10.9657 42.3425 10.6768C42.8023 10.3879 43.3394 10.2434 43.9539 10.2434C44.5723 10.2434 45.1034 10.3818 45.5469 10.6584C45.9945 10.9351 46.3383 11.3237 46.5784 11.8242C46.8184 12.3206 46.9385 12.9025 46.9385 13.5698V14.0337H41.5796V13.0876H46.2793L45.6445 13.9666V13.4355C45.6445 12.9635 45.5713 12.5729 45.4248 12.2637C45.2824 11.9504 45.085 11.7164 44.8328 11.5618C44.5805 11.4071 44.2896 11.3298 43.96 11.3298C43.6304 11.3298 43.3354 11.4112 43.075 11.574C42.8186 11.7327 42.6152 11.9687 42.4646 12.282C42.3181 12.5953 42.2449 12.9798 42.2449 13.4355V13.9666C42.2449 14.4019 42.3181 14.7743 42.4646 15.0835C42.6111 15.3927 42.8186 15.6287 43.0872 15.7915C43.3598 15.9543 43.6812 16.0356 44.0515 16.0356C44.3363 16.0356 44.5805 15.997 44.7839 15.9197C44.9915 15.8383 45.1603 15.7386 45.2905 15.6206C45.4248 15.5026 45.5164 15.3866 45.5652 15.2727L45.5896 15.2239H46.8713L46.8591 15.2788C46.8022 15.4985 46.7025 15.7183 46.5601 15.938C46.4176 16.1536 46.2284 16.351 45.9924 16.53C45.7605 16.7091 45.4797 16.8535 45.1501 16.9634C44.8246 17.0732 44.4482 17.1282 44.021 17.1282ZM48.4949 14.0581V12.8435H52.5781V14.0581H48.4949ZM53.7134 17L55.9167 13.698L53.6951 10.3716H55.2332L56.6614 12.7397H56.7651L58.175 10.3716H59.6399L57.4548 13.6431L59.6643 17H58.1567L56.7102 14.6135H56.6064L55.1599 17H53.7134ZM63.125 17.1099C62.5716 17.1099 62.0874 16.9715 61.6724 16.6948C61.2614 16.4141 60.942 16.0173 60.7141 15.5046C60.4903 14.9919 60.3784 14.3877 60.3784 13.6919V13.6797C60.3784 12.9798 60.4903 12.3735 60.7141 11.8608C60.9379 11.3481 61.2553 10.9535 61.6663 10.6768C62.0772 10.396 62.5635 10.2556 63.125 10.2556C63.4302 10.2556 63.715 10.3044 63.9795 10.4021C64.244 10.4957 64.4779 10.63 64.6814 10.8049C64.8848 10.9758 65.0456 11.1813 65.1636 11.4214H65.2612V7.77148H66.5918V17H65.2612V15.9563H65.1636C65.0334 16.1964 64.8686 16.4039 64.6692 16.5789C64.4698 16.7498 64.2399 16.882 63.9795 16.9756C63.7191 17.0651 63.4342 17.1099 63.125 17.1099ZM63.5034 15.9746C63.8696 15.9746 64.187 15.8831 64.4556 15.7C64.7241 15.5168 64.9296 15.2544 65.072 14.9126C65.2144 14.5667 65.2856 14.1598 65.2856 13.6919V13.6797C65.2856 13.2077 65.2124 12.8008 65.0659 12.459C64.9235 12.1172 64.718 11.8547 64.4495 11.6716C64.185 11.4845 63.8696 11.3909 63.5034 11.3909C63.1372 11.3909 62.8198 11.4845 62.5513 11.6716C62.2868 11.8547 62.0833 12.1172 61.9409 12.459C61.8026 12.7967 61.7334 13.2036 61.7334 13.6797V13.6919C61.7334 14.1639 61.8026 14.5708 61.9409 14.9126C62.0833 15.2544 62.2868 15.5168 62.5513 15.7C62.8198 15.8831 63.1372 15.9746 63.5034 15.9746Z" fill="#4493F8"/>
</svg>
