<svg width="79" height="26" viewBox="0 0 79 26" fill="none" xmlns="http://www.w3.org/2000/svg">
<rect width="79" height="26" rx="13" fill="#141D2E"/>
<path d="M12.7466 17.1099C12.3275 17.1099 11.9511 17.0285 11.6174 16.8657C11.2878 16.703 11.0274 16.4731 10.8362 16.176C10.649 15.8749 10.5554 15.5209 10.5554 15.114V15.1018C10.5554 14.7071 10.6531 14.3674 10.8484 14.0825C11.0437 13.7936 11.3306 13.5678 11.709 13.405C12.0874 13.2423 12.5472 13.1466 13.0884 13.1182L15.5542 12.9656V13.9666L13.302 14.113C12.8748 14.1375 12.5594 14.227 12.356 14.3816C12.1525 14.5362 12.0508 14.7519 12.0508 15.0286V15.0408C12.0508 15.3256 12.1586 15.5474 12.3743 15.7061C12.594 15.8647 12.8727 15.9441 13.2104 15.9441C13.5156 15.9441 13.7882 15.8831 14.0283 15.761C14.2684 15.6389 14.4576 15.4741 14.5959 15.2666C14.7343 15.055 14.8035 14.817 14.8035 14.5525V12.4407C14.8035 12.107 14.6977 11.8527 14.4861 11.6777C14.2745 11.4987 13.9612 11.4092 13.5461 11.4092C13.2003 11.4092 12.9175 11.4702 12.6978 11.5923C12.478 11.7103 12.3295 11.8792 12.2522 12.0989L12.2461 12.1233H10.8118L10.8179 12.0684C10.8667 11.694 11.0132 11.3665 11.2573 11.0857C11.5015 10.8049 11.825 10.5872 12.2278 10.4326C12.6306 10.278 13.0945 10.2007 13.6194 10.2007C14.1972 10.2007 14.6855 10.2902 15.0842 10.4692C15.483 10.6442 15.7861 10.9006 15.9937 11.2383C16.2012 11.5719 16.3049 11.9727 16.3049 12.4407V17H14.8035V16.0845H14.6997C14.5776 16.2961 14.4189 16.4792 14.2236 16.6338C14.0324 16.7884 13.8127 16.9064 13.5645 16.9878C13.3162 17.0692 13.0436 17.1099 12.7466 17.1099ZM20.5347 17.1099C19.9813 17.1099 19.4991 16.9715 19.0881 16.6948C18.6772 16.4141 18.3598 16.0153 18.136 15.4985C17.9122 14.9818 17.8003 14.3735 17.8003 13.6736V13.6614C17.8003 12.9534 17.9102 12.343 18.1299 11.8303C18.3537 11.3136 18.669 10.9168 19.0759 10.6401C19.4869 10.3594 19.9731 10.219 20.5347 10.219C20.8398 10.219 21.1247 10.2678 21.3892 10.3655C21.6536 10.4591 21.8856 10.5933 22.085 10.7683C22.2884 10.9433 22.4471 11.1508 22.561 11.3909H22.6709V7.74707H24.1846V17H22.6709V15.9563H22.561C22.439 16.1964 22.2782 16.4039 22.0789 16.5789C21.8835 16.7498 21.6557 16.882 21.3953 16.9756C21.1348 17.0651 20.848 17.1099 20.5347 17.1099ZM21.0107 15.8281C21.3566 15.8281 21.6536 15.7427 21.9019 15.5718C22.1541 15.3968 22.3474 15.1486 22.4817 14.8271C22.62 14.5016 22.6892 14.1171 22.6892 13.6736V13.6614C22.6892 13.2138 22.62 12.8293 22.4817 12.5078C22.3474 12.1864 22.1541 11.9382 21.9019 11.7632C21.6536 11.5882 21.3566 11.5007 21.0107 11.5007C20.6689 11.5007 20.3719 11.5882 20.1196 11.7632C19.8714 11.9341 19.6802 12.1823 19.5459 12.5078C19.4116 12.8293 19.3445 13.2138 19.3445 13.6614V13.6736C19.3445 14.1212 19.4116 14.5057 19.5459 14.8271C19.6802 15.1486 19.8714 15.3968 20.1196 15.5718C20.3678 15.7427 20.6649 15.8281 21.0107 15.8281ZM28.9819 17.1343C28.3187 17.1343 27.747 16.9959 27.2668 16.7192C26.7867 16.4385 26.4164 16.0397 26.156 15.5229C25.8997 15.0062 25.7715 14.3877 25.7715 13.6675V13.6553C25.7715 12.9432 25.9017 12.3288 26.1621 11.812C26.4225 11.2912 26.7908 10.8924 27.2668 10.6157C27.747 10.339 28.3187 10.2007 28.9819 10.2007C29.6452 10.2007 30.2148 10.339 30.6909 10.6157C31.1711 10.8924 31.5413 11.2891 31.8018 11.8059C32.0622 12.3227 32.1924 12.9391 32.1924 13.6553V13.6675C32.1924 14.3877 32.0622 15.0062 31.8018 15.5229C31.5454 16.0397 31.1772 16.4385 30.697 16.7192C30.2209 16.9959 29.6493 17.1343 28.9819 17.1343ZM28.9819 15.9014C29.3319 15.9014 29.6289 15.8139 29.873 15.6389C30.1213 15.4599 30.3105 15.2056 30.4407 14.876C30.5709 14.5423 30.636 14.1415 30.636 13.6736V13.6614C30.636 13.1894 30.5709 12.7886 30.4407 12.459C30.3105 12.1253 30.1213 11.871 29.873 11.696C29.6289 11.517 29.3319 11.4275 28.9819 11.4275C28.632 11.4275 28.3329 11.517 28.0847 11.696C27.8365 11.871 27.6473 12.1253 27.5171 12.459C27.3869 12.7886 27.3218 13.1894 27.3218 13.6614V13.6736C27.3218 14.1415 27.3869 14.5423 27.5171 14.876C27.6473 15.2096 27.8345 15.4639 28.0786 15.6389C28.3268 15.8139 28.6279 15.9014 28.9819 15.9014ZM37.4292 17.1099C37.1159 17.1099 36.829 17.0651 36.5686 16.9756C36.3082 16.882 36.0783 16.7498 35.8789 16.5789C35.6836 16.4039 35.5249 16.1964 35.4028 15.9563H35.2991V17H33.7793V7.74707H35.2991V11.3909H35.4028C35.5208 11.1508 35.6795 10.9433 35.8789 10.7683C36.0783 10.5933 36.3102 10.4591 36.5747 10.3655C36.8392 10.2678 37.124 10.219 37.4292 10.219C37.9907 10.219 38.4749 10.3594 38.8818 10.6401C39.2928 10.9168 39.6102 11.3136 39.834 11.8303C40.0578 12.343 40.1697 12.9534 40.1697 13.6614V13.6736C40.1697 14.3735 40.0557 14.9818 39.8279 15.4985C39.6041 16.0153 39.2867 16.4141 38.8757 16.6948C38.4688 16.9715 37.9867 17.1099 37.4292 17.1099ZM36.9531 15.8281C37.299 15.8281 37.596 15.7427 37.8442 15.5718C38.0924 15.3968 38.2837 15.1486 38.418 14.8271C38.5522 14.5057 38.6194 14.1212 38.6194 13.6736V13.6614C38.6194 13.2138 38.5522 12.8293 38.418 12.5078C38.2837 12.1823 38.0924 11.9341 37.8442 11.7632C37.596 11.5882 37.299 11.5007 36.9531 11.5007C36.6113 11.5007 36.3143 11.5882 36.062 11.7632C35.8097 11.9382 35.6144 12.1864 35.4761 12.5078C35.3418 12.8293 35.2747 13.2138 35.2747 13.6614V13.6736C35.2747 14.1171 35.3418 14.5016 35.4761 14.8271C35.6144 15.1486 35.8077 15.3968 36.0559 15.5718C36.3082 15.7427 36.6073 15.8281 36.9531 15.8281ZM44.5459 17.1343C43.8826 17.1343 43.313 16.9939 42.8369 16.7131C42.3649 16.4324 42.0007 16.0336 41.7444 15.5168C41.488 15.0001 41.3599 14.3877 41.3599 13.6797V13.6736C41.3599 12.9737 41.486 12.3634 41.7383 11.8425C41.9946 11.3217 42.3568 10.9189 42.8247 10.634C43.2926 10.3451 43.842 10.2007 44.4727 10.2007C45.1074 10.2007 45.6527 10.3411 46.1084 10.6218C46.5682 10.8985 46.9222 11.2871 47.1704 11.7876C47.4186 12.2881 47.5427 12.874 47.5427 13.5454V14.0459H42.1228V13.0266H46.7981L46.0779 13.9788V13.3745C46.0779 12.931 46.0107 12.5627 45.8765 12.2698C45.7422 11.9768 45.555 11.7571 45.3149 11.6106C45.0789 11.4641 44.8043 11.3909 44.491 11.3909C44.1777 11.3909 43.8989 11.4682 43.6548 11.6228C43.4147 11.7734 43.2235 11.9972 43.0811 12.2942C42.9427 12.5872 42.8735 12.9473 42.8735 13.3745V13.9849C42.8735 14.3958 42.9427 14.7478 43.0811 15.0408C43.2194 15.3297 43.4147 15.5535 43.667 15.7122C43.9233 15.8668 44.2265 15.9441 44.5764 15.9441C44.849 15.9441 45.083 15.9054 45.2783 15.8281C45.4777 15.7467 45.6384 15.6511 45.7605 15.5413C45.8826 15.4273 45.968 15.3195 46.0168 15.2178L46.0352 15.175H47.4756L47.4634 15.23C47.4105 15.4456 47.3128 15.6654 47.1704 15.8892C47.0321 16.1089 46.8429 16.3144 46.6028 16.5056C46.3668 16.6928 46.0779 16.8454 45.7361 16.9634C45.3943 17.0773 44.9976 17.1343 44.5459 17.1343ZM49.093 14.1375V12.7581H53.1702V14.1375H49.093ZM54.3054 17L56.4661 13.6919L54.2871 10.3289H56.0388L57.3694 12.6421H57.4731L58.7915 10.3289H60.4578L58.2971 13.6248L60.4822 17H58.7732L57.406 14.6807H57.3022L55.9351 17H54.3054ZM63.8818 17.1099C63.3285 17.1099 62.8463 16.9715 62.4353 16.6948C62.0243 16.4141 61.7069 16.0153 61.4832 15.4985C61.2594 14.9818 61.1475 14.3735 61.1475 13.6736V13.6614C61.1475 12.9534 61.2573 12.343 61.4771 11.8303C61.7008 11.3136 62.0162 10.9168 62.4231 10.6401C62.8341 10.3594 63.3203 10.219 63.8818 10.219C64.187 10.219 64.4718 10.2678 64.7363 10.3655C65.0008 10.4591 65.2327 10.5933 65.4321 10.7683C65.6356 10.9433 65.7943 11.1508 65.9082 11.3909H66.0181V7.74707H67.5317V17H66.0181V15.9563H65.9082C65.7861 16.1964 65.6254 16.4039 65.426 16.5789C65.2307 16.7498 65.0028 16.882 64.7424 16.9756C64.482 17.0651 64.1951 17.1099 63.8818 17.1099ZM64.3579 15.8281C64.7038 15.8281 65.0008 15.7427 65.249 15.5718C65.5013 15.3968 65.6946 15.1486 65.8289 14.8271C65.9672 14.5016 66.0364 14.1171 66.0364 13.6736V13.6614C66.0364 13.2138 65.9672 12.8293 65.8289 12.5078C65.6946 12.1864 65.5013 11.9382 65.249 11.7632C65.0008 11.5882 64.7038 11.5007 64.3579 11.5007C64.0161 11.5007 63.7191 11.5882 63.4668 11.7632C63.2186 11.9341 63.0273 12.1823 62.8931 12.5078C62.7588 12.8293 62.6917 13.2138 62.6917 13.6614V13.6736C62.6917 14.1212 62.7588 14.5057 62.8931 14.8271C63.0273 15.1486 63.2186 15.3968 63.4668 15.5718C63.715 15.7427 64.012 15.8281 64.3579 15.8281Z" fill="#4493F8"/>
</svg>
