<svg width="122" height="26" viewBox="0 0 122 26" fill="none" xmlns="http://www.w3.org/2000/svg">
<rect width="122" height="26" rx="13" fill="#141D2E"/>
<path d="M12.771 17.1099C12.3519 17.1099 11.9755 17.0305 11.6418 16.8718C11.3123 16.7091 11.0518 16.4792 10.8606 16.1821C10.6694 15.8851 10.5737 15.5372 10.5737 15.1384V15.1262C10.5737 14.7275 10.6694 14.3877 10.8606 14.1069C11.0559 13.8262 11.3367 13.6064 11.7029 13.4478C12.0732 13.285 12.5208 13.1873 13.0457 13.1548L15.4932 13.0083V13.9421L13.2288 14.0886C12.773 14.1171 12.4373 14.2148 12.2217 14.3816C12.006 14.5444 11.8982 14.7743 11.8982 15.0713V15.0835C11.8982 15.3846 12.0142 15.6226 12.2461 15.7976C12.478 15.9685 12.771 16.054 13.125 16.054C13.4546 16.054 13.7476 15.9889 14.0039 15.8586C14.2643 15.7244 14.4678 15.5453 14.6143 15.3215C14.7607 15.0937 14.834 14.8373 14.834 14.5525V12.4651C14.834 12.0989 14.7201 11.8201 14.4922 11.6289C14.2684 11.4336 13.9347 11.3359 13.4912 11.3359C13.1209 11.3359 12.8178 11.401 12.5818 11.5312C12.3499 11.6615 12.1952 11.8446 12.1179 12.0806L12.1057 12.0989H10.8301L10.8362 12.0562C10.8891 11.6899 11.0335 11.3726 11.2695 11.104C11.5096 10.8314 11.8229 10.6198 12.2095 10.4692C12.6001 10.3187 13.0457 10.2434 13.5461 10.2434C14.1036 10.2434 14.5756 10.3329 14.9622 10.512C15.3528 10.6869 15.6478 10.9412 15.8472 11.2749C16.0506 11.6045 16.1523 12.0012 16.1523 12.4651V17H14.834V16.0601H14.7363C14.6061 16.2839 14.4434 16.4751 14.248 16.6338C14.0527 16.7884 13.831 16.9064 13.5828 16.9878C13.3346 17.0692 13.064 17.1099 12.771 17.1099ZM20.437 17.1099C19.8836 17.1099 19.3994 16.9715 18.9844 16.6948C18.5734 16.4141 18.254 16.0173 18.0261 15.5046C17.8023 14.9919 17.6904 14.3877 17.6904 13.6919V13.6797C17.6904 12.9798 17.8023 12.3735 18.0261 11.8608C18.2499 11.3481 18.5673 10.9535 18.9783 10.6768C19.3892 10.396 19.8755 10.2556 20.437 10.2556C20.7422 10.2556 21.027 10.3044 21.2915 10.4021C21.556 10.4957 21.79 10.63 21.9934 10.8049C22.1969 10.9758 22.3576 11.1813 22.4756 11.4214H22.5732V7.77148H23.9038V17H22.5732V15.9563H22.4756C22.3454 16.1964 22.1806 16.4039 21.9812 16.5789C21.7818 16.7498 21.5519 16.882 21.2915 16.9756C21.0311 17.0651 20.7463 17.1099 20.437 17.1099ZM20.8154 15.9746C21.1816 15.9746 21.499 15.8831 21.7676 15.7C22.0361 15.5168 22.2416 15.2544 22.384 14.9126C22.5264 14.5667 22.5977 14.1598 22.5977 13.6919V13.6797C22.5977 13.2077 22.5244 12.8008 22.3779 12.459C22.2355 12.1172 22.03 11.8547 21.7615 11.6716C21.497 11.4845 21.1816 11.3909 20.8154 11.3909C20.4492 11.3909 20.1318 11.4845 19.8633 11.6716C19.5988 11.8547 19.3953 12.1172 19.2529 12.459C19.1146 12.7967 19.0454 13.2036 19.0454 13.6797V13.6919C19.0454 14.1639 19.1146 14.5708 19.2529 14.9126C19.3953 15.2544 19.5988 15.5168 19.8633 15.7C20.1318 15.8831 20.4492 15.9746 20.8154 15.9746ZM28.6768 17.1282C28.0298 17.1282 27.4703 16.9898 26.9983 16.7131C26.5304 16.4364 26.1702 16.0417 25.918 15.5291C25.6657 15.0123 25.5396 14.3999 25.5396 13.6919V13.6797C25.5396 12.9676 25.6657 12.3552 25.918 11.8425C26.1743 11.3298 26.5365 10.9351 27.0044 10.6584C27.4764 10.3818 28.0339 10.2434 28.6768 10.2434C29.3237 10.2434 29.8812 10.3818 30.3491 10.6584C30.8171 10.9311 31.1772 11.3258 31.4294 11.8425C31.6858 12.3552 31.814 12.9676 31.814 13.6797V13.6919C31.814 14.3999 31.6858 15.0123 31.4294 15.5291C31.1772 16.0417 30.8171 16.4364 30.3491 16.7131C29.8853 16.9898 29.3278 17.1282 28.6768 17.1282ZM28.6768 16.0173C29.0552 16.0173 29.3766 15.9258 29.6411 15.7427C29.9056 15.5555 30.107 15.289 30.2454 14.9431C30.3837 14.5972 30.4529 14.1802 30.4529 13.6919V13.6797C30.4529 13.1873 30.3837 12.7682 30.2454 12.4224C30.107 12.0765 29.9056 11.812 29.6411 11.6289C29.3766 11.4417 29.0552 11.3481 28.6768 11.3481C28.2983 11.3481 27.9769 11.4417 27.7124 11.6289C27.4479 11.812 27.2445 12.0765 27.1021 12.4224C26.9637 12.7682 26.8945 13.1873 26.8945 13.6797V13.6919C26.8945 14.1802 26.9637 14.5972 27.1021 14.9431C27.2445 15.289 27.4479 15.5555 27.7124 15.7427C27.9769 15.9258 28.2983 16.0173 28.6768 16.0173ZM36.9165 17.1099C36.6073 17.1099 36.3224 17.0651 36.062 16.9756C35.8016 16.882 35.5697 16.7498 35.3662 16.5789C35.1668 16.4039 35.0041 16.1964 34.8779 15.9563H34.7742V17H33.4497V7.77148H34.7742V11.4214H34.8779C34.9959 11.1813 35.1567 10.9758 35.3601 10.8049C35.5636 10.63 35.7975 10.4957 36.062 10.4021C36.3265 10.3044 36.6113 10.2556 36.9165 10.2556C37.478 10.2556 37.9643 10.396 38.3752 10.6768C38.7862 10.9535 39.1036 11.3481 39.3274 11.8608C39.5512 12.3735 39.6631 12.9798 39.6631 13.6797V13.6919C39.6631 14.3877 39.5492 14.9919 39.3213 15.5046C39.0975 16.0173 38.7801 16.4141 38.3691 16.6948C37.9582 16.9715 37.474 17.1099 36.9165 17.1099ZM36.5381 15.9746C36.9084 15.9746 37.2257 15.8831 37.4902 15.7C37.7547 15.5168 37.9561 15.2544 38.0945 14.9126C38.2369 14.5708 38.3081 14.1639 38.3081 13.6919V13.6797C38.3081 13.2036 38.2369 12.7967 38.0945 12.459C37.9561 12.1172 37.7547 11.8547 37.4902 11.6716C37.2257 11.4845 36.9084 11.3909 36.5381 11.3909C36.1719 11.3909 35.8545 11.4845 35.5859 11.6716C35.3174 11.8547 35.1119 12.1172 34.9695 12.459C34.8271 12.8008 34.7559 13.2077 34.7559 13.6797V13.6919C34.7559 14.1598 34.8271 14.5667 34.9695 14.9126C35.1119 15.2544 35.3174 15.5168 35.5859 15.7C35.8545 15.8831 36.1719 15.9746 36.5381 15.9746ZM44.021 17.1282C43.374 17.1282 42.8186 16.9898 42.3547 16.7131C41.8909 16.4324 41.5328 16.0356 41.2805 15.5229C41.0323 15.0103 40.9082 14.404 40.9082 13.7041V13.698C40.9082 13.0063 41.0323 12.402 41.2805 11.8853C41.5328 11.3685 41.8868 10.9657 42.3425 10.6768C42.8023 10.3879 43.3394 10.2434 43.9539 10.2434C44.5723 10.2434 45.1034 10.3818 45.5469 10.6584C45.9945 10.9351 46.3383 11.3237 46.5784 11.8242C46.8184 12.3206 46.9385 12.9025 46.9385 13.5698V14.0337H41.5796V13.0876H46.2793L45.6445 13.9666V13.4355C45.6445 12.9635 45.5713 12.5729 45.4248 12.2637C45.2824 11.9504 45.085 11.7164 44.8328 11.5618C44.5805 11.4071 44.2896 11.3298 43.96 11.3298C43.6304 11.3298 43.3354 11.4112 43.075 11.574C42.8186 11.7327 42.6152 11.9687 42.4646 12.282C42.3181 12.5953 42.2449 12.9798 42.2449 13.4355V13.9666C42.2449 14.4019 42.3181 14.7743 42.4646 15.0835C42.6111 15.3927 42.8186 15.6287 43.0872 15.7915C43.3598 15.9543 43.6812 16.0356 44.0515 16.0356C44.3363 16.0356 44.5805 15.997 44.7839 15.9197C44.9915 15.8383 45.1603 15.7386 45.2905 15.6206C45.4248 15.5026 45.5164 15.3866 45.5652 15.2727L45.5896 15.2239H46.8713L46.8591 15.2788C46.8022 15.4985 46.7025 15.7183 46.5601 15.938C46.4176 16.1536 46.2284 16.351 45.9924 16.53C45.7605 16.7091 45.4797 16.8535 45.1501 16.9634C44.8246 17.0732 44.4482 17.1282 44.021 17.1282ZM48.4949 14.0581V12.8435H52.5781V14.0581H48.4949ZM54.4885 17V10.3716H55.8191V17H54.4885ZM55.1599 9.1875C54.932 9.1875 54.7367 9.10612 54.574 8.94336C54.4112 8.7806 54.3298 8.58529 54.3298 8.35742C54.3298 8.12956 54.4112 7.93628 54.574 7.77759C54.7367 7.61483 54.932 7.53345 55.1599 7.53345C55.3878 7.53345 55.5831 7.61483 55.7458 7.77759C55.9086 7.93628 55.99 8.12956 55.99 8.35742C55.99 8.58529 55.9086 8.7806 55.7458 8.94336C55.5831 9.10612 55.3878 9.1875 55.1599 9.1875ZM57.8027 17V7.77148H59.1272V17H57.8027ZM61.1597 17V7.77148H62.4841V17H61.1597ZM66.665 17.1282C66.1686 17.1282 65.7495 17.0326 65.4077 16.8413C65.07 16.646 64.8157 16.3652 64.6448 15.999C64.4779 15.6287 64.3945 15.1832 64.3945 14.6624V10.3716H65.719V14.3511C65.719 14.8963 65.8268 15.3053 66.0425 15.5779C66.2581 15.8505 66.6101 15.9868 67.0984 15.9868C67.3588 15.9868 67.5907 15.9482 67.7942 15.8708C67.9976 15.7895 68.1685 15.6735 68.3069 15.5229C68.4452 15.3724 68.547 15.1913 68.6121 14.9797C68.6812 14.7681 68.7158 14.5281 68.7158 14.2595V10.3716H70.0464V17H68.7158V15.999H68.6182C68.5124 16.235 68.3679 16.4385 68.1848 16.6094C68.0017 16.7762 67.782 16.9044 67.5256 16.9939C67.2734 17.0834 66.9865 17.1282 66.665 17.1282ZM74.3616 17.1282C73.8285 17.1282 73.3647 17.0509 72.97 16.8962C72.5753 16.7375 72.262 16.5199 72.03 16.2432C71.7981 15.9624 71.6618 15.6369 71.6211 15.2666V15.2544H72.9517V15.2666C73.0371 15.5148 73.1999 15.7162 73.4399 15.8708C73.68 16.0255 73.9974 16.1028 74.3921 16.1028C74.6647 16.1028 74.9028 16.0641 75.1062 15.9868C75.3137 15.9095 75.4765 15.8017 75.5945 15.6633C75.7125 15.525 75.7715 15.3663 75.7715 15.1873V15.175C75.7715 14.9675 75.6881 14.7926 75.5212 14.6501C75.3544 14.5077 75.0798 14.3918 74.6973 14.3022L73.6353 14.0581C73.2202 13.9645 72.8764 13.8363 72.6038 13.6736C72.3311 13.5108 72.1297 13.3114 71.9995 13.0754C71.8693 12.8354 71.8042 12.5546 71.8042 12.2332V12.2271C71.8042 11.8405 71.9141 11.4987 72.1338 11.2017C72.3535 10.9006 72.6567 10.6666 73.0432 10.4998C73.4338 10.3289 73.8794 10.2434 74.3799 10.2434C74.8844 10.2434 75.3239 10.3228 75.6982 10.4814C76.0767 10.6361 76.3757 10.8517 76.5955 11.1284C76.8152 11.401 76.9454 11.7184 76.9861 12.0806V12.0867H75.7166V12.0745C75.6555 11.8425 75.509 11.6493 75.2771 11.4946C75.0492 11.34 74.7481 11.2627 74.3738 11.2627C74.1337 11.2627 73.9201 11.3014 73.7329 11.3787C73.5457 11.4519 73.3972 11.5557 73.2874 11.6899C73.1816 11.8201 73.1287 11.9748 73.1287 12.1538V12.166C73.1287 12.3044 73.1632 12.4264 73.2324 12.5322C73.3057 12.634 73.4196 12.7255 73.5742 12.8069C73.7288 12.8842 73.9282 12.9534 74.1724 13.0144L75.2283 13.2524C75.863 13.403 76.335 13.6207 76.6443 13.9055C76.9576 14.1903 77.1143 14.5728 77.1143 15.053V15.0652C77.1143 15.4721 76.9942 15.8322 76.7542 16.1455C76.5141 16.4548 76.1865 16.6969 75.7715 16.8718C75.3605 17.0427 74.8905 17.1282 74.3616 17.1282ZM81.1426 17.0427C80.4183 17.0427 79.8934 16.9044 79.5679 16.6277C79.2464 16.3469 79.0857 15.8892 79.0857 15.2544V11.4153H78.0481V10.3716H79.0857V8.69922H80.4407V10.3716H81.8628V11.4153H80.4407V14.9309C80.4407 15.289 80.5119 15.5474 80.6543 15.7061C80.7967 15.8607 81.0327 15.938 81.3623 15.938C81.46 15.938 81.5434 15.936 81.6125 15.9319C81.6858 15.9278 81.7692 15.9217 81.8628 15.9136V16.9756C81.757 16.9919 81.6431 17.0061 81.521 17.0183C81.3989 17.0346 81.2728 17.0427 81.1426 17.0427ZM83.4131 17V10.3716H84.7375V11.3726H84.8413C84.9593 11.0186 85.1668 10.7439 85.4639 10.5486C85.765 10.3533 86.1353 10.2556 86.5747 10.2556C86.6846 10.2556 86.7924 10.2617 86.8982 10.2739C87.004 10.2861 87.0894 10.3004 87.1545 10.3167V11.5374C87.0365 11.5129 86.9185 11.4946 86.8005 11.4824C86.6866 11.4702 86.5666 11.4641 86.4404 11.4641C86.1027 11.4641 85.8057 11.5292 85.5493 11.6594C85.297 11.7896 85.0977 11.9727 84.9512 12.2087C84.8088 12.4407 84.7375 12.7174 84.7375 13.0388V17H83.4131ZM90.2002 17.1099C89.7811 17.1099 89.4047 17.0305 89.071 16.8718C88.7415 16.7091 88.481 16.4792 88.2898 16.1821C88.0986 15.8851 88.0029 15.5372 88.0029 15.1384V15.1262C88.0029 14.7275 88.0986 14.3877 88.2898 14.1069C88.4851 13.8262 88.7659 13.6064 89.1321 13.4478C89.5024 13.285 89.95 13.1873 90.4749 13.1548L92.9224 13.0083V13.9421L90.658 14.0886C90.2022 14.1171 89.8665 14.2148 89.6509 14.3816C89.4352 14.5444 89.3274 14.7743 89.3274 15.0713V15.0835C89.3274 15.3846 89.4434 15.6226 89.6753 15.7976C89.9072 15.9685 90.2002 16.054 90.5542 16.054C90.8838 16.054 91.1768 15.9889 91.4331 15.8586C91.6935 15.7244 91.897 15.5453 92.0435 15.3215C92.1899 15.0937 92.2632 14.8373 92.2632 14.5525V12.4651C92.2632 12.0989 92.1493 11.8201 91.9214 11.6289C91.6976 11.4336 91.3639 11.3359 90.9204 11.3359C90.5501 11.3359 90.247 11.401 90.011 11.5312C89.7791 11.6615 89.6244 11.8446 89.5471 12.0806L89.5349 12.0989H88.2593L88.2654 12.0562C88.3183 11.6899 88.4627 11.3726 88.6987 11.104C88.9388 10.8314 89.2521 10.6198 89.6387 10.4692C90.0293 10.3187 90.4749 10.2434 90.9753 10.2434C91.5328 10.2434 92.0048 10.3329 92.3914 10.512C92.782 10.6869 93.077 10.9412 93.2764 11.2749C93.4798 11.6045 93.5815 12.0012 93.5815 12.4651V17H92.2632V16.0601H92.1655C92.0353 16.2839 91.8726 16.4751 91.6772 16.6338C91.4819 16.7884 91.2602 16.9064 91.012 16.9878C90.7638 17.0692 90.4932 17.1099 90.2002 17.1099ZM97.9517 17.0427C97.2274 17.0427 96.7025 16.9044 96.377 16.6277C96.0555 16.3469 95.8948 15.8892 95.8948 15.2544V11.4153H94.8572V10.3716H95.8948V8.69922H97.2498V10.3716H98.6719V11.4153H97.2498V14.9309C97.2498 15.289 97.321 15.5474 97.4634 15.7061C97.6058 15.8607 97.8418 15.938 98.1714 15.938C98.269 15.938 98.3525 15.936 98.4216 15.9319C98.4949 15.9278 98.5783 15.9217 98.6719 15.9136V16.9756C98.5661 16.9919 98.4521 17.0061 98.3301 17.0183C98.208 17.0346 98.0819 17.0427 97.9517 17.0427ZM102.957 17.1282C102.31 17.1282 101.75 16.9898 101.278 16.7131C100.81 16.4364 100.45 16.0417 100.198 15.5291C99.9455 15.0123 99.8193 14.3999 99.8193 13.6919V13.6797C99.8193 12.9676 99.9455 12.3552 100.198 11.8425C100.454 11.3298 100.816 10.9351 101.284 10.6584C101.756 10.3818 102.314 10.2434 102.957 10.2434C103.604 10.2434 104.161 10.3818 104.629 10.6584C105.097 10.9311 105.457 11.3258 105.709 11.8425C105.966 12.3552 106.094 12.9676 106.094 13.6797V13.6919C106.094 14.3999 105.966 15.0123 105.709 15.5291C105.457 16.0417 105.097 16.4364 104.629 16.7131C104.165 16.9898 103.608 17.1282 102.957 17.1282ZM102.957 16.0173C103.335 16.0173 103.656 15.9258 103.921 15.7427C104.185 15.5555 104.387 15.289 104.525 14.9431C104.663 14.5972 104.733 14.1802 104.733 13.6919V13.6797C104.733 13.1873 104.663 12.7682 104.525 12.4224C104.387 12.0765 104.185 11.812 103.921 11.6289C103.656 11.4417 103.335 11.3481 102.957 11.3481C102.578 11.3481 102.257 11.4417 101.992 11.6289C101.728 11.812 101.524 12.0765 101.382 12.4224C101.243 12.7682 101.174 13.1873 101.174 13.6797V13.6919C101.174 14.1802 101.243 14.5972 101.382 14.9431C101.524 15.289 101.728 15.5555 101.992 15.7427C102.257 15.9258 102.578 16.0173 102.957 16.0173ZM107.668 17V10.3716H108.993V11.3726H109.097C109.215 11.0186 109.422 10.7439 109.719 10.5486C110.02 10.3533 110.391 10.2556 110.83 10.2556C110.94 10.2556 111.048 10.2617 111.154 10.2739C111.259 10.2861 111.345 10.3004 111.41 10.3167V11.5374C111.292 11.5129 111.174 11.4946 111.056 11.4824C110.942 11.4702 110.822 11.4641 110.696 11.4641C110.358 11.4641 110.061 11.5292 109.805 11.6594C109.552 11.7896 109.353 11.9727 109.207 12.2087C109.064 12.4407 108.993 12.7174 108.993 13.0388V17H107.668Z" fill="#4493F8"/>
</svg>
