<svg width="75" height="26" viewBox="0 0 75 26" fill="none" xmlns="http://www.w3.org/2000/svg">
<rect width="75" height="26" rx="13" fill="#141D2E"/>
<path d="M12.7954 17.116C12.3804 17.116 12.006 17.0366 11.6724 16.8779C11.3428 16.7192 11.0803 16.4934 10.885 16.2004C10.6938 15.9075 10.5981 15.5616 10.5981 15.1628V15.1506C10.5981 14.76 10.6917 14.4264 10.8789 14.1497C11.0661 13.8689 11.3387 13.6492 11.6968 13.4905C12.0549 13.3318 12.4882 13.2382 12.9968 13.2097L15.4138 13.0632V13.9116L13.125 14.0581C12.6245 14.0866 12.2583 14.1903 12.0264 14.3694C11.7985 14.5484 11.6846 14.8007 11.6846 15.1262V15.1384C11.6846 15.4721 11.8107 15.7325 12.063 15.9197C12.3153 16.1028 12.6326 16.1943 13.0151 16.1943C13.3773 16.1943 13.6987 16.1231 13.9795 15.9807C14.2603 15.8342 14.48 15.6369 14.6387 15.3887C14.8014 15.1405 14.8828 14.8597 14.8828 14.5464V12.4956C14.8828 12.0887 14.7587 11.7795 14.5105 11.5679C14.2664 11.3522 13.8981 11.2444 13.4058 11.2444C13.0111 11.2444 12.6876 11.3156 12.4353 11.458C12.183 11.5964 12.0142 11.7937 11.9287 12.05L11.9226 12.0684H10.8606L10.8667 12.0317C10.9237 11.6859 11.0661 11.3848 11.2939 11.1284C11.5259 10.868 11.825 10.6666 12.1912 10.5242C12.5574 10.3777 12.9744 10.3044 13.4424 10.3044C13.9795 10.3044 14.4332 10.3919 14.8035 10.5669C15.1778 10.7419 15.4606 10.9941 15.6519 11.3237C15.8472 11.6493 15.9448 12.0399 15.9448 12.4956V17H14.8828V16.0295H14.7852C14.6468 16.2615 14.4779 16.4588 14.2786 16.6216C14.0833 16.7843 13.8615 16.9084 13.6133 16.9939C13.3651 17.0753 13.0924 17.116 12.7954 17.116ZM20.3149 17.116C19.7616 17.116 19.2773 16.9756 18.8623 16.6948C18.4473 16.4141 18.1258 16.0194 17.8979 15.5107C17.6701 14.998 17.5562 14.3999 17.5562 13.7163V13.7041C17.5562 13.0164 17.6701 12.4183 17.8979 11.9097C18.1258 11.401 18.4452 11.0063 18.8562 10.7256C19.2712 10.4448 19.7575 10.3044 20.3149 10.3044C20.616 10.3044 20.8988 10.3533 21.1633 10.4509C21.4319 10.5445 21.6699 10.6768 21.8774 10.8477C22.085 11.0186 22.2477 11.222 22.3657 11.458H22.4634V7.80811H23.5254V17H22.4634V15.9502H22.3657C22.2314 16.1943 22.0626 16.4039 21.8591 16.5789C21.6557 16.7498 21.4237 16.882 21.1633 16.9756C20.9029 17.0692 20.6201 17.116 20.3149 17.116ZM20.5591 16.176C20.9578 16.176 21.3017 16.0763 21.5906 15.877C21.8795 15.6776 22.1012 15.3948 22.2559 15.0286C22.4105 14.6583 22.4878 14.2209 22.4878 13.7163V13.7041C22.4878 13.1955 22.4105 12.7581 22.2559 12.3918C22.1012 12.0256 21.8795 11.7428 21.5906 11.5435C21.3017 11.3441 20.9578 11.2444 20.5591 11.2444C20.1603 11.2444 19.8165 11.3441 19.5276 11.5435C19.2428 11.7388 19.023 12.0195 18.8684 12.3857C18.7179 12.752 18.6426 13.1914 18.6426 13.7041V13.7163C18.6426 14.2249 18.7179 14.6644 18.8684 15.0347C19.023 15.4009 19.2428 15.6837 19.5276 15.8831C19.8165 16.0784 20.1603 16.176 20.5591 16.176ZM28.2678 17.116C27.6453 17.116 27.1061 16.9797 26.6504 16.707C26.1987 16.4303 25.8488 16.0377 25.6006 15.5291C25.3564 15.0204 25.2344 14.4162 25.2344 13.7163V13.7041C25.2344 13.0002 25.3564 12.3939 25.6006 11.8853C25.8488 11.3766 26.1987 10.986 26.6504 10.7134C27.1061 10.4408 27.6453 10.3044 28.2678 10.3044C28.8944 10.3044 29.4336 10.4408 29.8853 10.7134C30.3369 10.986 30.6848 11.3766 30.929 11.8853C31.1772 12.3939 31.3013 13.0002 31.3013 13.7041V13.7163C31.3013 14.4162 31.1772 15.0204 30.929 15.5291C30.6848 16.0377 30.3369 16.4303 29.8853 16.707C29.4336 16.9797 28.8944 17.116 28.2678 17.116ZM28.2678 16.176C28.6829 16.176 29.0348 16.0784 29.3237 15.8831C29.6126 15.6877 29.8324 15.407 29.9829 15.0408C30.1375 14.6746 30.2148 14.2331 30.2148 13.7163V13.7041C30.2148 13.1833 30.1375 12.7397 29.9829 12.3735C29.8324 12.0073 29.6126 11.7286 29.3237 11.5374C29.0348 11.342 28.6829 11.2444 28.2678 11.2444C27.8528 11.2444 27.5008 11.342 27.2119 11.5374C26.923 11.7286 26.7013 12.0073 26.5466 12.3735C26.3961 12.7397 26.3208 13.1833 26.3208 13.7041V13.7163C26.3208 14.2331 26.3961 14.6746 26.5466 15.0408C26.7013 15.407 26.923 15.6877 27.2119 15.8831C27.5008 16.0784 27.8528 16.176 28.2678 16.176ZM36.2207 17.116C35.9155 17.116 35.6327 17.0692 35.3723 16.9756C35.1119 16.882 34.88 16.7498 34.6765 16.5789C34.4731 16.4039 34.3042 16.1943 34.1699 15.9502H34.0723V17H33.0103V7.80811H34.0723V11.458H34.1699C34.292 11.222 34.4548 11.0186 34.6582 10.8477C34.8657 10.6768 35.1017 10.5445 35.3662 10.4509C35.6348 10.3533 35.9196 10.3044 36.2207 10.3044C36.7782 10.3044 37.2624 10.4448 37.6733 10.7256C38.0884 11.0063 38.4098 11.401 38.6377 11.9097C38.8656 12.4183 38.9795 13.0164 38.9795 13.7041V13.7163C38.9795 14.3999 38.8656 14.998 38.6377 15.5107C38.4098 16.0194 38.0884 16.4141 37.6733 16.6948C37.2624 16.9756 36.7782 17.116 36.2207 17.116ZM35.9766 16.176C36.3794 16.176 36.7232 16.0784 37.0081 15.8831C37.2929 15.6837 37.5106 15.4009 37.6611 15.0347C37.8158 14.6644 37.8931 14.2249 37.8931 13.7163V13.7041C37.8931 13.1914 37.8158 12.752 37.6611 12.3857C37.5106 12.0195 37.2929 11.7388 37.0081 11.5435C36.7232 11.3441 36.3794 11.2444 35.9766 11.2444C35.5778 11.2444 35.234 11.3441 34.9451 11.5435C34.6562 11.7428 34.4344 12.0256 34.2798 12.3918C34.1252 12.7581 34.0479 13.1955 34.0479 13.7041V13.7163C34.0479 14.2209 34.1252 14.6583 34.2798 15.0286C34.4344 15.3948 34.6562 15.6776 34.9451 15.877C35.234 16.0763 35.5778 16.176 35.9766 16.176ZM43.313 17.116C42.6864 17.116 42.1472 16.9776 41.6956 16.7009C41.248 16.4242 40.9021 16.0336 40.658 15.5291C40.4179 15.0204 40.2979 14.4223 40.2979 13.7346V13.7285C40.2979 13.049 40.4179 12.4529 40.658 11.9402C40.9021 11.4275 41.2459 11.0267 41.6895 10.7378C42.133 10.4489 42.6518 10.3044 43.2458 10.3044C43.844 10.3044 44.3567 10.4428 44.7839 10.7195C45.2153 10.9962 45.5448 11.3827 45.7727 11.8792C46.0046 12.3715 46.1206 12.9452 46.1206 13.6003V14.0154H40.8472V13.167H45.5774L45.0525 13.9421V13.521C45.0525 13.0042 44.9752 12.579 44.8206 12.2454C44.6659 11.9117 44.4523 11.6635 44.1797 11.5007C43.9071 11.3339 43.5938 11.2505 43.2397 11.2505C42.8857 11.2505 42.5684 11.338 42.2876 11.5129C42.0109 11.6838 41.7912 11.9382 41.6284 12.2759C41.4657 12.6136 41.3843 13.0286 41.3843 13.521V13.9421C41.3843 14.4101 41.4636 14.8109 41.6223 15.1445C41.781 15.4741 42.0068 15.7284 42.2998 15.9075C42.5928 16.0824 42.9386 16.1699 43.3374 16.1699C43.6344 16.1699 43.8928 16.1292 44.1125 16.0479C44.3323 15.9665 44.5133 15.8627 44.6558 15.7366C44.7982 15.6104 44.8979 15.4823 44.9548 15.3521L44.9792 15.2971H46.0413L46.0291 15.3459C45.9721 15.5697 45.8704 15.7874 45.7239 15.999C45.5815 16.2065 45.3963 16.3958 45.1685 16.5667C44.9406 16.7335 44.67 16.8678 44.3567 16.9695C44.0474 17.0671 43.6995 17.116 43.313 17.116ZM50.7593 17L53.0115 13.7102L50.7349 10.4204H51.9861L53.5486 12.8679H53.6462L55.1904 10.4204H56.3806L54.1467 13.6675L56.4111 17H55.166L53.6096 14.5159H53.512L51.9495 17H50.7593ZM59.9634 17.116C59.41 17.116 58.9258 16.9756 58.5107 16.6948C58.0957 16.4141 57.7743 16.0194 57.5464 15.5107C57.3185 14.998 57.2046 14.3999 57.2046 13.7163V13.7041C57.2046 13.0164 57.3185 12.4183 57.5464 11.9097C57.7743 11.401 58.0937 11.0063 58.5046 10.7256C58.9197 10.4448 59.4059 10.3044 59.9634 10.3044C60.2645 10.3044 60.5473 10.3533 60.8118 10.4509C61.0803 10.5445 61.3184 10.6768 61.5259 10.8477C61.7334 11.0186 61.8962 11.222 62.0142 11.458H62.1118V7.80811H63.1738V17H62.1118V15.9502H62.0142C61.8799 16.1943 61.711 16.4039 61.5076 16.5789C61.3041 16.7498 61.0722 16.882 60.8118 16.9756C60.5514 17.0692 60.2686 17.116 59.9634 17.116ZM60.2075 16.176C60.6063 16.176 60.9501 16.0763 61.239 15.877C61.5279 15.6776 61.7497 15.3948 61.9043 15.0286C62.0589 14.6583 62.1362 14.2209 62.1362 13.7163V13.7041C62.1362 13.1955 62.0589 12.7581 61.9043 12.3918C61.7497 12.0256 61.5279 11.7428 61.239 11.5435C60.9501 11.3441 60.6063 11.2444 60.2075 11.2444C59.8088 11.2444 59.4649 11.3441 59.176 11.5435C58.8912 11.7388 58.6715 12.0195 58.5168 12.3857C58.3663 12.752 58.291 13.1914 58.291 13.7041V13.7163C58.291 14.2249 58.3663 14.6644 58.5168 15.0347C58.6715 15.4009 58.8912 15.6837 59.176 15.8831C59.4649 16.0784 59.8088 16.176 60.2075 16.176Z" fill="#4493F8"/>
</svg>
