<svg width="51" height="26" viewBox="0 0 51 26" fill="none" xmlns="http://www.w3.org/2000/svg">
<rect width="51" height="26" rx="13" fill="#141D2E"/>
<path d="M12.771 17.1099C12.3519 17.1099 11.9755 17.0305 11.6418 16.8718C11.3123 16.7091 11.0518 16.4792 10.8606 16.1821C10.6694 15.8851 10.5737 15.5372 10.5737 15.1384V15.1262C10.5737 14.7275 10.6694 14.3877 10.8606 14.1069C11.0559 13.8262 11.3367 13.6064 11.7029 13.4478C12.0732 13.285 12.5208 13.1873 13.0457 13.1548L15.4932 13.0083V13.9421L13.2288 14.0886C12.773 14.1171 12.4373 14.2148 12.2217 14.3816C12.006 14.5444 11.8982 14.7743 11.8982 15.0713V15.0835C11.8982 15.3846 12.0142 15.6226 12.2461 15.7976C12.478 15.9685 12.771 16.054 13.125 16.054C13.4546 16.054 13.7476 15.9889 14.0039 15.8586C14.2643 15.7244 14.4678 15.5453 14.6143 15.3215C14.7607 15.0937 14.834 14.8373 14.834 14.5525V12.4651C14.834 12.0989 14.7201 11.8201 14.4922 11.6289C14.2684 11.4336 13.9347 11.3359 13.4912 11.3359C13.1209 11.3359 12.8178 11.401 12.5818 11.5312C12.3499 11.6615 12.1952 11.8446 12.1179 12.0806L12.1057 12.0989H10.8301L10.8362 12.0562C10.8891 11.6899 11.0335 11.3726 11.2695 11.104C11.5096 10.8314 11.8229 10.6198 12.2095 10.4692C12.6001 10.3187 13.0457 10.2434 13.5461 10.2434C14.1036 10.2434 14.5756 10.3329 14.9622 10.512C15.3528 10.6869 15.6478 10.9412 15.8472 11.2749C16.0506 11.6045 16.1523 12.0012 16.1523 12.4651V17H14.834V16.0601H14.7363C14.6061 16.2839 14.4434 16.4751 14.248 16.6338C14.0527 16.7884 13.831 16.9064 13.5828 16.9878C13.3346 17.0692 13.064 17.1099 12.771 17.1099ZM20.4309 17.1282C19.8979 17.1282 19.434 17.0509 19.0393 16.8962C18.6446 16.7375 18.3313 16.5199 18.0994 16.2432C17.8674 15.9624 17.7311 15.6369 17.6904 15.2666V15.2544H19.021V15.2666C19.1064 15.5148 19.2692 15.7162 19.5093 15.8708C19.7493 16.0255 20.0667 16.1028 20.4614 16.1028C20.734 16.1028 20.9721 16.0641 21.1755 15.9868C21.3831 15.9095 21.5458 15.8017 21.6638 15.6633C21.7818 15.525 21.8408 15.3663 21.8408 15.1873V15.175C21.8408 14.9675 21.7574 14.7926 21.5906 14.6501C21.4237 14.5077 21.1491 14.3918 20.7666 14.3022L19.7046 14.0581C19.2896 13.9645 18.9457 13.8363 18.6731 13.6736C18.4005 13.5108 18.1991 13.3114 18.0688 13.0754C17.9386 12.8354 17.8735 12.5546 17.8735 12.2332V12.2271C17.8735 11.8405 17.9834 11.4987 18.2031 11.2017C18.4229 10.9006 18.726 10.6666 19.1125 10.4998C19.5032 10.3289 19.9487 10.2434 20.4492 10.2434C20.9538 10.2434 21.3932 10.3228 21.7676 10.4814C22.146 10.6361 22.4451 10.8517 22.6648 11.1284C22.8845 11.401 23.0147 11.7184 23.0554 12.0806V12.0867H21.7859V12.0745C21.7249 11.8425 21.5784 11.6493 21.3464 11.4946C21.1186 11.34 20.8175 11.2627 20.4431 11.2627C20.203 11.2627 19.9894 11.3014 19.8022 11.3787C19.6151 11.4519 19.4666 11.5557 19.3567 11.6899C19.2509 11.8201 19.198 11.9748 19.198 12.1538V12.166C19.198 12.3044 19.2326 12.4264 19.3018 12.5322C19.375 12.634 19.4889 12.7255 19.6436 12.8069C19.7982 12.8842 19.9976 12.9534 20.2417 13.0144L21.2976 13.2524C21.9324 13.403 22.4044 13.6207 22.7136 13.9055C23.0269 14.1903 23.1836 14.5728 23.1836 15.053V15.0652C23.1836 15.4721 23.0636 15.8322 22.8235 16.1455C22.5834 16.4548 22.2559 16.6969 21.8408 16.8718C21.4299 17.0427 20.9599 17.1282 20.4309 17.1282ZM27.2119 17.0427C26.4876 17.0427 25.9627 16.9044 25.6372 16.6277C25.3158 16.3469 25.155 15.8892 25.155 15.2544V11.4153H24.1174V10.3716H25.155V8.69922H26.51V10.3716H27.9321V11.4153H26.51V14.9309C26.51 15.289 26.5812 15.5474 26.7236 15.7061C26.866 15.8607 27.1021 15.938 27.4316 15.938C27.5293 15.938 27.6127 15.936 27.6819 15.9319C27.7551 15.9278 27.8385 15.9217 27.9321 15.9136V16.9756C27.8263 16.9919 27.7124 17.0061 27.5903 17.0183C27.4683 17.0346 27.3421 17.0427 27.2119 17.0427ZM29.4824 17V10.3716H30.8069V11.3726H30.9106C31.0286 11.0186 31.2362 10.7439 31.5332 10.5486C31.8343 10.3533 32.2046 10.2556 32.644 10.2556C32.7539 10.2556 32.8617 10.2617 32.9675 10.2739C33.0733 10.2861 33.1588 10.3004 33.2239 10.3167V11.5374C33.1059 11.5129 32.9879 11.4946 32.8699 11.4824C32.7559 11.4702 32.6359 11.4641 32.5098 11.4641C32.172 11.4641 31.875 11.5292 31.6187 11.6594C31.3664 11.7896 31.167 11.9727 31.0205 12.2087C30.8781 12.4407 30.8069 12.7174 30.8069 13.0388V17H29.4824ZM37.1362 17.1282C36.4893 17.1282 35.9298 16.9898 35.4578 16.7131C34.9898 16.4364 34.6297 16.0417 34.3774 15.5291C34.1252 15.0123 33.999 14.3999 33.999 13.6919V13.6797C33.999 12.9676 34.1252 12.3552 34.3774 11.8425C34.6338 11.3298 34.9959 10.9351 35.4639 10.6584C35.9359 10.3818 36.4933 10.2434 37.1362 10.2434C37.7832 10.2434 38.3407 10.3818 38.8086 10.6584C39.2765 10.9311 39.6366 11.3258 39.8889 11.8425C40.1453 12.3552 40.2734 12.9676 40.2734 13.6797V13.6919C40.2734 14.3999 40.1453 15.0123 39.8889 15.5291C39.6366 16.0417 39.2765 16.4364 38.8086 16.7131C38.3447 16.9898 37.7873 17.1282 37.1362 17.1282ZM37.1362 16.0173C37.5146 16.0173 37.8361 15.9258 38.1006 15.7427C38.3651 15.5555 38.5665 15.289 38.7048 14.9431C38.8432 14.5972 38.9124 14.1802 38.9124 13.6919V13.6797C38.9124 13.1873 38.8432 12.7682 38.7048 12.4224C38.5665 12.0765 38.3651 11.812 38.1006 11.6289C37.8361 11.4417 37.5146 11.3481 37.1362 11.3481C36.7578 11.3481 36.4364 11.4417 36.1719 11.6289C35.9074 11.812 35.7039 12.0765 35.5615 12.4224C35.4232 12.7682 35.354 13.1873 35.354 13.6797V13.6919C35.354 14.1802 35.4232 14.5972 35.5615 14.9431C35.7039 15.289 35.9074 15.5555 36.1719 15.7427C36.4364 15.9258 36.7578 16.0173 37.1362 16.0173Z" fill="#4493F8"/>
</svg>
