<svg width="50" height="26" viewBox="0 0 50 26" fill="none" xmlns="http://www.w3.org/2000/svg">
<rect width="50" height="26" rx="13" fill="#141D2E"/>
<path d="M12.7954 17.116C12.3804 17.116 12.006 17.0366 11.6724 16.8779C11.3428 16.7192 11.0803 16.4934 10.885 16.2004C10.6938 15.9075 10.5981 15.5616 10.5981 15.1628V15.1506C10.5981 14.76 10.6917 14.4264 10.8789 14.1497C11.0661 13.8689 11.3387 13.6492 11.6968 13.4905C12.0549 13.3318 12.4882 13.2382 12.9968 13.2097L15.4138 13.0632V13.9116L13.125 14.0581C12.6245 14.0866 12.2583 14.1903 12.0264 14.3694C11.7985 14.5484 11.6846 14.8007 11.6846 15.1262V15.1384C11.6846 15.4721 11.8107 15.7325 12.063 15.9197C12.3153 16.1028 12.6326 16.1943 13.0151 16.1943C13.3773 16.1943 13.6987 16.1231 13.9795 15.9807C14.2603 15.8342 14.48 15.6369 14.6387 15.3887C14.8014 15.1405 14.8828 14.8597 14.8828 14.5464V12.4956C14.8828 12.0887 14.7587 11.7795 14.5105 11.5679C14.2664 11.3522 13.8981 11.2444 13.4058 11.2444C13.0111 11.2444 12.6876 11.3156 12.4353 11.458C12.183 11.5964 12.0142 11.7937 11.9287 12.05L11.9226 12.0684H10.8606L10.8667 12.0317C10.9237 11.6859 11.0661 11.3848 11.2939 11.1284C11.5259 10.868 11.825 10.6666 12.1912 10.5242C12.5574 10.3777 12.9744 10.3044 13.4424 10.3044C13.9795 10.3044 14.4332 10.3919 14.8035 10.5669C15.1778 10.7419 15.4606 10.9941 15.6519 11.3237C15.8472 11.6493 15.9448 12.0399 15.9448 12.4956V17H14.8828V16.0295H14.7852C14.6468 16.2615 14.4779 16.4588 14.2786 16.6216C14.0833 16.7843 13.8615 16.9084 13.6133 16.9939C13.3651 17.0753 13.0924 17.116 12.7954 17.116ZM20.144 17.116C19.6558 17.116 19.2244 17.0427 18.8501 16.8962C18.4757 16.7457 18.1746 16.5361 17.9468 16.2676C17.723 15.999 17.5907 15.6837 17.55 15.3215H18.6365C18.726 15.5942 18.901 15.8139 19.1614 15.9807C19.4218 16.1475 19.7616 16.231 20.1807 16.231C20.4777 16.231 20.7381 16.1882 20.9619 16.1028C21.1898 16.0133 21.3688 15.8932 21.499 15.7427C21.6292 15.5881 21.6943 15.4111 21.6943 15.2117V15.1995C21.6943 14.9757 21.6048 14.7865 21.4258 14.6318C21.2467 14.4731 20.9538 14.345 20.5469 14.2473L19.5276 14.0032C19.1166 13.9055 18.7789 13.7794 18.5144 13.6248C18.2499 13.4661 18.0546 13.2728 17.9285 13.0449C17.8023 12.813 17.7393 12.5404 17.7393 12.2271V12.2209C17.7393 11.8547 17.8451 11.5272 18.0566 11.2383C18.2723 10.9494 18.5653 10.7215 18.9355 10.5547C19.3058 10.3879 19.7229 10.3044 20.1868 10.3044C20.6466 10.3044 21.0535 10.3777 21.4075 10.5242C21.7655 10.6666 22.0524 10.87 22.2681 11.1345C22.4878 11.399 22.6221 11.7103 22.6709 12.0684H21.6272C21.558 11.8079 21.3993 11.5964 21.1511 11.4336C20.9029 11.2708 20.5794 11.1895 20.1807 11.1895C19.9202 11.1895 19.6883 11.2322 19.4849 11.3176C19.2814 11.399 19.1207 11.5129 19.0027 11.6594C18.8847 11.8059 18.8257 11.9768 18.8257 12.1721V12.1843C18.8257 12.3308 18.8643 12.461 18.9417 12.575C19.019 12.6889 19.139 12.7886 19.3018 12.874C19.4645 12.9595 19.6741 13.0347 19.9304 13.0999L20.9436 13.344C21.5621 13.4945 22.0219 13.7102 22.323 13.991C22.6282 14.2717 22.7808 14.6481 22.7808 15.1201V15.1323C22.7808 15.5229 22.6648 15.8688 22.4329 16.1699C22.2009 16.467 21.8856 16.6989 21.4868 16.8657C21.0921 17.0326 20.6445 17.116 20.144 17.116ZM26.7053 17.0488C26.0299 17.0488 25.5396 16.9125 25.2344 16.6399C24.9333 16.3673 24.7827 15.9176 24.7827 15.291V11.2993H23.7451V10.4204H24.7827V8.71753H25.8813V10.4204H27.3218V11.2993H25.8813V15.0225C25.8813 15.409 25.9546 15.6877 26.1011 15.8586C26.2476 16.0255 26.4917 16.1089 26.8335 16.1089C26.9271 16.1089 27.0064 16.1069 27.0715 16.1028C27.1407 16.0987 27.2241 16.0926 27.3218 16.0845V16.9878C27.2201 17.0041 27.1183 17.0183 27.0166 17.0305C26.9149 17.0427 26.8111 17.0488 26.7053 17.0488ZM28.9087 17V10.4204H29.9707V11.397H30.0684C30.1945 11.0511 30.4081 10.7826 30.7092 10.5913C31.0103 10.4001 31.3826 10.3044 31.8262 10.3044C31.9279 10.3044 32.0276 10.3105 32.1252 10.3228C32.227 10.3309 32.3043 10.339 32.3572 10.3472V11.3787C32.2473 11.3583 32.1395 11.3441 32.0337 11.3359C31.932 11.3237 31.8221 11.3176 31.7041 11.3176C31.3664 11.3176 31.0673 11.3848 30.8069 11.519C30.5465 11.6533 30.341 11.8405 30.1904 12.0806C30.0439 12.3206 29.9707 12.6014 29.9707 12.9229V17H28.9087ZM36.1902 17.116C35.5676 17.116 35.0285 16.9797 34.5728 16.707C34.1211 16.4303 33.7712 16.0377 33.5229 15.5291C33.2788 15.0204 33.1567 14.4162 33.1567 13.7163V13.7041C33.1567 13.0002 33.2788 12.3939 33.5229 11.8853C33.7712 11.3766 34.1211 10.986 34.5728 10.7134C35.0285 10.4408 35.5676 10.3044 36.1902 10.3044C36.8168 10.3044 37.356 10.4408 37.8076 10.7134C38.2593 10.986 38.6072 11.3766 38.8513 11.8853C39.0995 12.3939 39.2236 13.0002 39.2236 13.7041V13.7163C39.2236 14.4162 39.0995 15.0204 38.8513 15.5291C38.6072 16.0377 38.2593 16.4303 37.8076 16.707C37.356 16.9797 36.8168 17.116 36.1902 17.116ZM36.1902 16.176C36.6052 16.176 36.9572 16.0784 37.2461 15.8831C37.535 15.6877 37.7547 15.407 37.9053 15.0408C38.0599 14.6746 38.1372 14.2331 38.1372 13.7163V13.7041C38.1372 13.1833 38.0599 12.7397 37.9053 12.3735C37.7547 12.0073 37.535 11.7286 37.2461 11.5374C36.9572 11.342 36.6052 11.2444 36.1902 11.2444C35.7751 11.2444 35.4232 11.342 35.1343 11.5374C34.8454 11.7286 34.6236 12.0073 34.469 12.3735C34.3184 12.7397 34.2432 13.1833 34.2432 13.7041V13.7163C34.2432 14.2331 34.3184 14.6746 34.469 15.0408C34.6236 15.407 34.8454 15.6877 35.1343 15.8831C35.4232 16.0784 35.7751 16.176 36.1902 16.176Z" fill="#4493F8"/>
</svg>
