<svg width="36" height="26" viewBox="0 0 36 26" fill="none" xmlns="http://www.w3.org/2000/svg">
<rect width="36" height="26" rx="13" fill="#141D2E"/>
<path d="M13.7415 17.1282C13.0986 17.1282 12.5431 16.9898 12.0752 16.7131C11.6113 16.4324 11.2533 16.0336 11.001 15.5168C10.7487 15.0001 10.6226 14.3836 10.6226 13.6675V13.6553C10.6226 12.9513 10.7467 12.3451 10.9949 11.8364C11.2472 11.3278 11.6052 10.9351 12.0691 10.6584C12.537 10.3818 13.0924 10.2434 13.7354 10.2434C14.2928 10.2434 14.7709 10.3411 15.1697 10.5364C15.5725 10.7276 15.8919 10.9921 16.1279 11.3298C16.368 11.6635 16.5186 12.0439 16.5796 12.4712L16.5857 12.5017H15.3101L15.304 12.4895C15.2307 12.164 15.0618 11.8934 14.7974 11.6777C14.5329 11.458 14.1809 11.3481 13.7415 11.3481C13.3752 11.3481 13.0599 11.4417 12.7954 11.6289C12.5309 11.812 12.3275 12.0765 12.1851 12.4224C12.0467 12.7682 11.9775 13.1792 11.9775 13.6553V13.6675C11.9775 14.1558 12.0487 14.5749 12.1912 14.9248C12.3336 15.2747 12.537 15.5453 12.8015 15.7366C13.066 15.9237 13.3793 16.0173 13.7415 16.0173C14.1565 16.0173 14.4922 15.9258 14.7485 15.7427C15.009 15.5596 15.1921 15.289 15.2979 14.9309L15.3101 14.9004L16.5796 14.8943L16.5674 14.9492C16.4901 15.3805 16.3334 15.759 16.0974 16.0845C15.8614 16.41 15.5461 16.6663 15.1514 16.8535C14.7607 17.0366 14.2908 17.1282 13.7415 17.1282ZM19.2957 17H18.252L20.0403 8.19263H21.084L20.5286 10.9331L20.4797 11.0308L19.8816 14.0032L19.8877 14.0947L19.2957 17ZM22.1887 17H21.1389L21.731 14.0947L21.7798 14.0032L22.3779 11.0308L22.3718 10.9331L22.9272 8.19263H23.9771L22.1887 17ZM24.2334 14.6074H17.3242L17.5256 13.5698H19.3506L19.4788 13.6003H22.2498L22.3718 13.5698H24.4348L24.2334 14.6074ZM24.801 11.5312H22.7869L22.6587 11.5007H19.8938L19.7656 11.5312H17.8796L18.0872 10.4937H25.0024L24.801 11.5312Z" fill="#4493F8"/>
</svg>
