<svg width="35" height="26" viewBox="0 0 35 26" fill="none" xmlns="http://www.w3.org/2000/svg">
<rect width="35" height="26" rx="13" fill="#141D2E"/>
<path d="M13.6804 17.116C13.066 17.116 12.533 16.9756 12.0813 16.6948C11.6296 16.4141 11.2797 16.0173 11.0315 15.5046C10.7833 14.9919 10.6592 14.3877 10.6592 13.6919V13.6797C10.6592 12.9961 10.7812 12.402 11.0254 11.8975C11.2736 11.3929 11.6235 11.0023 12.0752 10.7256C12.5269 10.4448 13.0599 10.3044 13.6743 10.3044C14.2074 10.3044 14.6672 10.398 15.0537 10.5852C15.4403 10.7724 15.7495 11.0247 15.9814 11.342C16.2134 11.6554 16.3619 12.0073 16.427 12.3979L16.4331 12.4346H15.3772L15.3711 12.4163C15.2897 12.0907 15.1046 11.814 14.8157 11.5862C14.5268 11.3583 14.1463 11.2444 13.6743 11.2444C13.2796 11.2444 12.9378 11.3441 12.6489 11.5435C12.36 11.7428 12.1362 12.0256 11.9775 12.3918C11.8229 12.754 11.7456 13.1833 11.7456 13.6797V13.6919C11.7456 14.1965 11.825 14.6359 11.9836 15.0103C12.1423 15.3805 12.3661 15.6674 12.655 15.8708C12.9439 16.0743 13.2837 16.176 13.6743 16.176C14.1178 16.176 14.48 16.0804 14.7607 15.8892C15.0415 15.6979 15.2429 15.4192 15.365 15.053L15.3772 15.0164L16.427 15.0103L16.4148 15.0774C16.3253 15.4721 16.1666 15.8241 15.9387 16.1333C15.7109 16.4385 15.4097 16.6785 15.0354 16.8535C14.6611 17.0285 14.2094 17.116 13.6804 17.116ZM18.9783 17H18.1116L19.9121 8.19263H20.7788L20.2173 10.927L20.199 11.0247L19.5825 14.0398L19.5642 14.1375L18.9783 17ZM21.853 17H20.9802L21.5723 14.1375L21.5906 14.0398L22.207 11.0247L22.2253 10.927L22.7869 8.19263H23.6597L21.853 17ZM23.9526 14.5403H17.1777L17.3486 13.6614H19.1125H19.2407H21.9812H22.1094H24.1235L23.9526 14.5403ZM24.5203 11.4397H22.5732H22.439H19.7046H19.5703H17.7332L17.9102 10.5669H24.6912L24.5203 11.4397Z" fill="#4493F8"/>
</svg>
