<svg width="40" height="26" viewBox="0 0 40 26" fill="none" xmlns="http://www.w3.org/2000/svg">
<rect width="40" height="26" rx="13" fill="#141D2E"/>
<path d="M13.6804 17.116C13.066 17.116 12.533 16.9756 12.0813 16.6948C11.6296 16.4141 11.2797 16.0173 11.0315 15.5046C10.7833 14.9919 10.6592 14.3877 10.6592 13.6919V13.6797C10.6592 12.9961 10.7812 12.402 11.0254 11.8975C11.2736 11.3929 11.6235 11.0023 12.0752 10.7256C12.5269 10.4448 13.0599 10.3044 13.6743 10.3044C14.2074 10.3044 14.6672 10.398 15.0537 10.5852C15.4403 10.7724 15.7495 11.0247 15.9814 11.342C16.2134 11.6554 16.3619 12.0073 16.427 12.3979L16.4331 12.4346H15.3772L15.3711 12.4163C15.2897 12.0907 15.1046 11.814 14.8157 11.5862C14.5268 11.3583 14.1463 11.2444 13.6743 11.2444C13.2796 11.2444 12.9378 11.3441 12.6489 11.5435C12.36 11.7428 12.1362 12.0256 11.9775 12.3918C11.8229 12.754 11.7456 13.1833 11.7456 13.6797V13.6919C11.7456 14.1965 11.825 14.6359 11.9836 15.0103C12.1423 15.3805 12.3661 15.6674 12.655 15.8708C12.9439 16.0743 13.2837 16.176 13.6743 16.176C14.1178 16.176 14.48 16.0804 14.7607 15.8892C15.0415 15.6979 15.2429 15.4192 15.365 15.053L15.3772 15.0164L16.427 15.0103L16.4148 15.0774C16.3253 15.4721 16.1666 15.8241 15.9387 16.1333C15.7109 16.4385 15.4097 16.6785 15.0354 16.8535C14.6611 17.0285 14.2094 17.116 13.6804 17.116ZM20.2417 17.116C19.7534 17.116 19.3221 17.0427 18.9478 16.8962C18.5734 16.7457 18.2723 16.5361 18.0444 16.2676C17.8206 15.999 17.6884 15.6837 17.6477 15.3215H18.7341C18.8236 15.5942 18.9986 15.8139 19.259 15.9807C19.5194 16.1475 19.8592 16.231 20.2783 16.231C20.5754 16.231 20.8358 16.1882 21.0596 16.1028C21.2874 16.0133 21.4665 15.8932 21.5967 15.7427C21.7269 15.5881 21.792 15.4111 21.792 15.2117V15.1995C21.792 14.9757 21.7025 14.7865 21.5234 14.6318C21.3444 14.4731 21.0514 14.345 20.6445 14.2473L19.6252 14.0032C19.2143 13.9055 18.8765 13.7794 18.6121 13.6248C18.3476 13.4661 18.1523 13.2728 18.0261 13.0449C17.9 12.813 17.8369 12.5404 17.8369 12.2271V12.2209C17.8369 11.8547 17.9427 11.5272 18.1543 11.2383C18.37 10.9494 18.6629 10.7215 19.0332 10.5547C19.4035 10.3879 19.8206 10.3044 20.2844 10.3044C20.7442 10.3044 21.1511 10.3777 21.5051 10.5242C21.8632 10.6666 22.1501 10.87 22.3657 11.1345C22.5854 11.399 22.7197 11.7103 22.7686 12.0684H21.7249C21.6557 11.8079 21.497 11.5964 21.2488 11.4336C21.0006 11.2708 20.6771 11.1895 20.2783 11.1895C20.0179 11.1895 19.786 11.2322 19.5825 11.3176C19.3791 11.399 19.2183 11.5129 19.1003 11.6594C18.9823 11.8059 18.9233 11.9768 18.9233 12.1721V12.1843C18.9233 12.3308 18.962 12.461 19.0393 12.575C19.1166 12.6889 19.2367 12.7886 19.3994 12.874C19.5622 12.9595 19.7717 13.0347 20.0281 13.0999L21.0413 13.344C21.6597 13.4945 22.1195 13.7102 22.4207 13.991C22.7258 14.2717 22.8784 14.6481 22.8784 15.1201V15.1323C22.8784 15.5229 22.7625 15.8688 22.5305 16.1699C22.2986 16.467 21.9832 16.6989 21.5845 16.8657C21.1898 17.0326 20.7422 17.116 20.2417 17.116ZM26.6626 17.116C26.1743 17.116 25.743 17.0427 25.3687 16.8962C24.9943 16.7457 24.6932 16.5361 24.4653 16.2676C24.2415 15.999 24.1093 15.6837 24.0686 15.3215H25.155C25.2445 15.5942 25.4195 15.8139 25.6799 15.9807C25.9403 16.1475 26.2801 16.231 26.6992 16.231C26.9963 16.231 27.2567 16.1882 27.4805 16.1028C27.7083 16.0133 27.8874 15.8932 28.0176 15.7427C28.1478 15.5881 28.2129 15.4111 28.2129 15.2117V15.1995C28.2129 14.9757 28.1234 14.7865 27.9443 14.6318C27.7653 14.4731 27.4723 14.345 27.0654 14.2473L26.0461 14.0032C25.6352 13.9055 25.2974 13.7794 25.033 13.6248C24.7685 13.4661 24.5732 13.2728 24.447 13.0449C24.3209 12.813 24.2578 12.5404 24.2578 12.2271V12.2209C24.2578 11.8547 24.3636 11.5272 24.5752 11.2383C24.7909 10.9494 25.0838 10.7215 25.4541 10.5547C25.8244 10.3879 26.2415 10.3044 26.7053 10.3044C27.1651 10.3044 27.572 10.3777 27.926 10.5242C28.2841 10.6666 28.571 10.87 28.7866 11.1345C29.0063 11.399 29.1406 11.7103 29.1895 12.0684H28.1458C28.0766 11.8079 27.9179 11.5964 27.6697 11.4336C27.4215 11.2708 27.098 11.1895 26.6992 11.1895C26.4388 11.1895 26.2069 11.2322 26.0034 11.3176C25.8 11.399 25.6392 11.5129 25.5212 11.6594C25.4032 11.8059 25.3442 11.9768 25.3442 12.1721V12.1843C25.3442 12.3308 25.3829 12.461 25.4602 12.575C25.5375 12.6889 25.6576 12.7886 25.8203 12.874C25.9831 12.9595 26.1926 13.0347 26.449 13.0999L27.4622 13.344C28.0806 13.4945 28.5404 13.7102 28.8416 13.991C29.1467 14.2717 29.2993 14.6481 29.2993 15.1201V15.1323C29.2993 15.5229 29.1833 15.8688 28.9514 16.1699C28.7195 16.467 28.4041 16.6989 28.0054 16.8657C27.6107 17.0326 27.1631 17.116 26.6626 17.116Z" fill="#4493F8"/>
</svg>
