<svg width="41" height="26" viewBox="0 0 41 26" fill="none" xmlns="http://www.w3.org/2000/svg">
<rect width="41" height="26" rx="13" fill="#141D2E"/>
<path d="M13.7415 17.1282C13.0986 17.1282 12.5431 16.9898 12.0752 16.7131C11.6113 16.4324 11.2533 16.0336 11.001 15.5168C10.7487 15.0001 10.6226 14.3836 10.6226 13.6675V13.6553C10.6226 12.9513 10.7467 12.3451 10.9949 11.8364C11.2472 11.3278 11.6052 10.9351 12.0691 10.6584C12.537 10.3818 13.0924 10.2434 13.7354 10.2434C14.2928 10.2434 14.7709 10.3411 15.1697 10.5364C15.5725 10.7276 15.8919 10.9921 16.1279 11.3298C16.368 11.6635 16.5186 12.0439 16.5796 12.4712L16.5857 12.5017H15.3101L15.304 12.4895C15.2307 12.164 15.0618 11.8934 14.7974 11.6777C14.5329 11.458 14.1809 11.3481 13.7415 11.3481C13.3752 11.3481 13.0599 11.4417 12.7954 11.6289C12.5309 11.812 12.3275 12.0765 12.1851 12.4224C12.0467 12.7682 11.9775 13.1792 11.9775 13.6553V13.6675C11.9775 14.1558 12.0487 14.5749 12.1912 14.9248C12.3336 15.2747 12.537 15.5453 12.8015 15.7366C13.066 15.9237 13.3793 16.0173 13.7415 16.0173C14.1565 16.0173 14.4922 15.9258 14.7485 15.7427C15.009 15.5596 15.1921 15.289 15.2979 14.9309L15.3101 14.9004L16.5796 14.8943L16.5674 14.9492C16.4901 15.3805 16.3334 15.759 16.0974 16.0845C15.8614 16.41 15.5461 16.6663 15.1514 16.8535C14.7607 17.0366 14.2908 17.1282 13.7415 17.1282ZM20.4919 17.1282C19.9589 17.1282 19.495 17.0509 19.1003 16.8962C18.7056 16.7375 18.3923 16.5199 18.1604 16.2432C17.9285 15.9624 17.7922 15.6369 17.7515 15.2666V15.2544H19.082V15.2666C19.1675 15.5148 19.3302 15.7162 19.5703 15.8708C19.8104 16.0255 20.1278 16.1028 20.5225 16.1028C20.7951 16.1028 21.0331 16.0641 21.2366 15.9868C21.4441 15.9095 21.6069 15.8017 21.7249 15.6633C21.8429 15.525 21.9019 15.3663 21.9019 15.1873V15.175C21.9019 14.9675 21.8184 14.7926 21.6516 14.6501C21.4848 14.5077 21.2101 14.3918 20.8276 14.3022L19.7656 14.0581C19.3506 13.9645 19.0068 13.8363 18.7341 13.6736C18.4615 13.5108 18.2601 13.3114 18.1299 13.0754C17.9997 12.8354 17.9346 12.5546 17.9346 12.2332V12.2271C17.9346 11.8405 18.0444 11.4987 18.2642 11.2017C18.4839 10.9006 18.787 10.6666 19.1736 10.4998C19.5642 10.3289 20.0098 10.2434 20.5103 10.2434C21.0148 10.2434 21.4543 10.3228 21.8286 10.4814C22.207 10.6361 22.5061 10.8517 22.7258 11.1284C22.9456 11.401 23.0758 11.7184 23.1165 12.0806V12.0867H21.8469V12.0745C21.7859 11.8425 21.6394 11.6493 21.4075 11.4946C21.1796 11.34 20.8785 11.2627 20.5042 11.2627C20.2641 11.2627 20.0505 11.3014 19.8633 11.3787C19.6761 11.4519 19.5276 11.5557 19.4177 11.6899C19.3119 11.8201 19.259 11.9748 19.259 12.1538V12.166C19.259 12.3044 19.2936 12.4264 19.3628 12.5322C19.436 12.634 19.55 12.7255 19.7046 12.8069C19.8592 12.8842 20.0586 12.9534 20.3027 13.0144L21.3586 13.2524C21.9934 13.403 22.4654 13.6207 22.7747 13.9055C23.088 14.1903 23.2446 14.5728 23.2446 15.053V15.0652C23.2446 15.4721 23.1246 15.8322 22.8845 16.1455C22.6444 16.4548 22.3169 16.6969 21.9019 16.8718C21.4909 17.0427 21.0209 17.1282 20.4919 17.1282ZM27.1082 17.1282C26.5751 17.1282 26.1112 17.0509 25.7166 16.8962C25.3219 16.7375 25.0085 16.5199 24.7766 16.2432C24.5447 15.9624 24.4084 15.6369 24.3677 15.2666V15.2544H25.6982V15.2666C25.7837 15.5148 25.9465 15.7162 26.1865 15.8708C26.4266 16.0255 26.744 16.1028 27.1387 16.1028C27.4113 16.1028 27.6493 16.0641 27.8528 15.9868C28.0603 15.9095 28.2231 15.8017 28.3411 15.6633C28.4591 15.525 28.5181 15.3663 28.5181 15.1873V15.175C28.5181 14.9675 28.4347 14.7926 28.2678 14.6501C28.101 14.5077 27.8263 14.3918 27.4438 14.3022L26.3818 14.0581C25.9668 13.9645 25.623 13.8363 25.3503 13.6736C25.0777 13.5108 24.8763 13.3114 24.7461 13.0754C24.6159 12.8354 24.5508 12.5546 24.5508 12.2332V12.2271C24.5508 11.8405 24.6606 11.4987 24.8804 11.2017C25.1001 10.9006 25.4032 10.6666 25.7898 10.4998C26.1804 10.3289 26.626 10.2434 27.1265 10.2434C27.631 10.2434 28.0705 10.3228 28.4448 10.4814C28.8232 10.6361 29.1223 10.8517 29.342 11.1284C29.5618 11.401 29.692 11.7184 29.7327 12.0806V12.0867H28.4631V12.0745C28.4021 11.8425 28.2556 11.6493 28.0237 11.4946C27.7958 11.34 27.4947 11.2627 27.1204 11.2627C26.8803 11.2627 26.6667 11.3014 26.4795 11.3787C26.2923 11.4519 26.1438 11.5557 26.0339 11.6899C25.9281 11.8201 25.8752 11.9748 25.8752 12.1538V12.166C25.8752 12.3044 25.9098 12.4264 25.979 12.5322C26.0522 12.634 26.1662 12.7255 26.3208 12.8069C26.4754 12.8842 26.6748 12.9534 26.9189 13.0144L27.9749 13.2524C28.6096 13.403 29.0816 13.6207 29.3909 13.9055C29.7042 14.1903 29.8608 14.5728 29.8608 15.053V15.0652C29.8608 15.4721 29.7408 15.8322 29.5007 16.1455C29.2607 16.4548 28.9331 16.6969 28.5181 16.8718C28.1071 17.0427 27.6371 17.1282 27.1082 17.1282Z" fill="#4493F8"/>
</svg>
