<svg width="54" height="26" viewBox="0 0 54 26" fill="none" xmlns="http://www.w3.org/2000/svg">
<rect width="54" height="26" rx="13" fill="#141D2E"/>
<path d="M11.4282 17V11.2993H10.3357V10.4204H11.4282V9.68799C11.4282 9.24854 11.4994 8.88639 11.6418 8.60156C11.7883 8.31266 12.004 8.09904 12.2888 7.96069C12.5736 7.81828 12.9236 7.74707 13.3386 7.74707C13.4688 7.74707 13.5909 7.75317 13.7048 7.76538C13.8228 7.77352 13.9368 7.78776 14.0466 7.80811V8.65649C13.9815 8.64429 13.9062 8.63615 13.8208 8.63208C13.7354 8.62801 13.6458 8.62598 13.5522 8.62598C13.1738 8.62598 12.9012 8.71753 12.7344 8.90063C12.5716 9.08374 12.4902 9.35636 12.4902 9.71851V10.4204H13.9856V11.2993H12.4902V17H11.4282ZM15.542 17V10.4204H16.604V17H15.542ZM16.0791 9.15088C15.8797 9.15088 15.7068 9.07967 15.5603 8.93726C15.4179 8.79077 15.3467 8.61784 15.3467 8.41846C15.3467 8.21501 15.4179 8.04207 15.5603 7.89966C15.7068 7.75724 15.8797 7.68604 16.0791 7.68604C16.2826 7.68604 16.4555 7.75724 16.5979 7.89966C16.7403 8.04207 16.8115 8.21501 16.8115 8.41846C16.8115 8.61784 16.7403 8.79077 16.5979 8.93726C16.4555 9.07967 16.2826 9.15088 16.0791 9.15088ZM21.3159 19.3193C20.7869 19.3193 20.3251 19.2441 19.9304 19.0935C19.5357 18.947 19.2204 18.7375 18.9844 18.4648C18.7524 18.1963 18.608 17.883 18.551 17.5249L18.5632 17.5188H19.6619L19.668 17.5249C19.7249 17.7731 19.8958 17.9766 20.1807 18.1353C20.4655 18.298 20.8439 18.3794 21.3159 18.3794C21.9059 18.3794 22.3657 18.2451 22.6953 17.9766C23.029 17.7121 23.1958 17.3377 23.1958 16.8535V15.5229H23.0981C22.9598 15.763 22.7869 15.9685 22.5793 16.1394C22.3718 16.3103 22.1379 16.4405 21.8774 16.53C21.617 16.6155 21.3363 16.6582 21.0352 16.6582C20.4696 16.6582 19.9792 16.5239 19.5642 16.2554C19.1532 15.9827 18.8359 15.6084 18.6121 15.1323C18.3883 14.6562 18.2764 14.111 18.2764 13.4966V13.4844C18.2764 12.87 18.3883 12.3247 18.6121 11.8486C18.8399 11.3685 19.1614 10.9921 19.5764 10.7195C19.9915 10.4428 20.4858 10.3044 21.0596 10.3044C21.3688 10.3044 21.6536 10.3533 21.9141 10.4509C22.1745 10.5486 22.4044 10.6869 22.6038 10.866C22.8072 11.045 22.9761 11.2586 23.1104 11.5068H23.1836V10.4204H24.2456V16.9084C24.2456 17.3967 24.1256 17.8219 23.8855 18.1841C23.6495 18.5462 23.3118 18.825 22.8723 19.0203C22.4329 19.2196 21.9141 19.3193 21.3159 19.3193ZM21.2671 15.7183C21.674 15.7183 22.0219 15.6247 22.3108 15.4375C22.6038 15.2463 22.8276 14.9838 22.9822 14.6501C23.1409 14.3165 23.2202 13.932 23.2202 13.4966V13.4844C23.2202 13.049 23.1409 12.6624 22.9822 12.3247C22.8276 11.987 22.6038 11.7225 22.3108 11.5312C22.0219 11.34 21.674 11.2444 21.2671 11.2444C20.8602 11.2444 20.5143 11.34 20.2295 11.5312C19.9487 11.7225 19.7331 11.987 19.5825 12.3247C19.436 12.6624 19.3628 13.049 19.3628 13.4844V13.4966C19.3628 13.932 19.436 14.3165 19.5825 14.6501C19.7331 14.9838 19.9487 15.2463 20.2295 15.4375C20.5143 15.6247 20.8602 15.7183 21.2671 15.7183ZM26.2231 17V10.4204H27.2852V11.4214H27.3828C27.5293 11.0674 27.7531 10.7927 28.0542 10.5974C28.3594 10.4021 28.7276 10.3044 29.1589 10.3044C29.456 10.3044 29.7225 10.3533 29.9585 10.4509C30.1945 10.5486 30.3979 10.6849 30.5688 10.8599C30.7397 11.0308 30.8761 11.2301 30.9778 11.458H31.0754C31.1934 11.2261 31.3521 11.0247 31.5515 10.8538C31.7509 10.6788 31.9808 10.5445 32.2412 10.4509C32.5057 10.3533 32.7885 10.3044 33.0896 10.3044C33.5372 10.3044 33.9156 10.3879 34.2249 10.5547C34.5382 10.7215 34.7762 10.9657 34.939 11.2871C35.1017 11.6045 35.1831 11.9931 35.1831 12.4529V17H34.1211V12.697C34.1211 12.3715 34.0702 12.1029 33.9685 11.8914C33.8708 11.6757 33.7203 11.515 33.5168 11.4092C33.3134 11.2993 33.057 11.2444 32.7478 11.2444C32.4426 11.2444 32.1761 11.3136 31.9482 11.4519C31.7204 11.5903 31.5434 11.7754 31.4172 12.0073C31.2911 12.2352 31.228 12.4895 31.228 12.7703V17H30.166V12.5322C30.166 12.2718 30.109 12.046 29.9951 11.8547C29.8853 11.6594 29.7266 11.5089 29.519 11.4031C29.3156 11.2973 29.0755 11.2444 28.7988 11.2444C28.514 11.2444 28.2556 11.3197 28.0237 11.4702C27.7958 11.6208 27.6147 11.8242 27.4805 12.0806C27.3503 12.3328 27.2852 12.6136 27.2852 12.9229V17H26.2231ZM38.9062 17.116C38.4912 17.116 38.1169 17.0366 37.7832 16.8779C37.4536 16.7192 37.1912 16.4934 36.9958 16.2004C36.8046 15.9075 36.709 15.5616 36.709 15.1628V15.1506C36.709 14.76 36.8026 14.4264 36.9897 14.1497C37.1769 13.8689 37.4495 13.6492 37.8076 13.4905C38.1657 13.3318 38.599 13.2382 39.1077 13.2097L41.5247 13.0632V13.9116L39.2358 14.0581C38.7354 14.0866 38.3691 14.1903 38.1372 14.3694C37.9093 14.5484 37.7954 14.8007 37.7954 15.1262V15.1384C37.7954 15.4721 37.9215 15.7325 38.1738 15.9197C38.4261 16.1028 38.7435 16.1943 39.126 16.1943C39.4881 16.1943 39.8096 16.1231 40.0903 15.9807C40.3711 15.8342 40.5908 15.6369 40.7495 15.3887C40.9123 15.1405 40.9937 14.8597 40.9937 14.5464V12.4956C40.9937 12.0887 40.8695 11.7795 40.6213 11.5679C40.3772 11.3522 40.009 11.2444 39.5166 11.2444C39.1219 11.2444 38.7984 11.3156 38.5461 11.458C38.2939 11.5964 38.125 11.7937 38.0396 12.05L38.0334 12.0684H36.9714L36.9775 12.0317C37.0345 11.6859 37.1769 11.3848 37.4048 11.1284C37.6367 10.868 37.9358 10.6666 38.302 10.5242C38.6682 10.3777 39.0853 10.3044 39.5532 10.3044C40.0903 10.3044 40.544 10.3919 40.9143 10.5669C41.2887 10.7419 41.5715 10.9941 41.7627 11.3237C41.958 11.6493 42.0557 12.0399 42.0557 12.4956V17H40.9937V16.0295H40.896C40.7576 16.2615 40.5888 16.4588 40.3894 16.6216C40.1941 16.7843 39.9723 16.9084 39.7241 16.9939C39.4759 17.0753 39.2033 17.116 38.9062 17.116Z" fill="#4493F8"/>
</svg>
