<svg width="55" height="26" viewBox="0 0 55 26" fill="none" xmlns="http://www.w3.org/2000/svg">
<rect width="55" height="26" rx="13" fill="#141D2E"/>
<path d="M11.4221 17V11.4153H10.3296V10.3716H11.4221V9.67578C11.4221 9.23226 11.4954 8.86605 11.6418 8.57715C11.7924 8.28418 12.0203 8.06649 12.3254 7.92407C12.6306 7.78166 13.0151 7.71045 13.479 7.71045C13.6255 7.71045 13.7618 7.71655 13.8879 7.72876C14.0181 7.7369 14.1423 7.75114 14.2603 7.77148V8.74805C14.1992 8.73584 14.1239 8.7277 14.0344 8.72363C13.949 8.71549 13.8554 8.71143 13.7537 8.71143C13.3875 8.71143 13.125 8.79891 12.9663 8.97388C12.8117 9.14884 12.7344 9.40316 12.7344 9.73682V10.3716H14.1992V11.4153H12.7466V17H11.4221ZM15.7068 17V10.3716H17.0374V17H15.7068ZM16.3782 9.1875C16.1503 9.1875 15.955 9.10612 15.7922 8.94336C15.6295 8.7806 15.5481 8.58529 15.5481 8.35742C15.5481 8.12956 15.6295 7.93628 15.7922 7.77759C15.955 7.61483 16.1503 7.53345 16.3782 7.53345C16.606 7.53345 16.8014 7.61483 16.9641 7.77759C17.1269 7.93628 17.2083 8.12956 17.2083 8.35742C17.2083 8.58529 17.1269 8.7806 16.9641 8.94336C16.8014 9.10612 16.606 9.1875 16.3782 9.1875ZM21.7615 19.3376C21.2 19.3376 20.7117 19.2603 20.2966 19.1057C19.8857 18.9511 19.5601 18.7354 19.3201 18.4587C19.08 18.182 18.9335 17.8606 18.8806 17.4944L18.8867 17.4822H20.2295L20.2356 17.4944C20.2926 17.7222 20.4533 17.9094 20.7178 18.0559C20.9823 18.2024 21.3363 18.2756 21.7798 18.2756C22.325 18.2756 22.7502 18.1515 23.0554 17.9033C23.3647 17.6551 23.5193 17.3072 23.5193 16.8596V15.5596H23.4155C23.2853 15.7956 23.1185 15.999 22.915 16.1699C22.7116 16.3368 22.4797 16.4629 22.2192 16.5483C21.9588 16.6338 21.676 16.6765 21.3708 16.6765C20.8093 16.6765 20.321 16.5422 19.906 16.2737C19.495 16.0011 19.1777 15.6267 18.9539 15.1506C18.7341 14.6705 18.6243 14.1191 18.6243 13.4966V13.4844C18.6243 12.8537 18.7362 12.2962 18.96 11.812C19.1838 11.3237 19.5032 10.9433 19.9182 10.6707C20.3333 10.394 20.8276 10.2556 21.4014 10.2556C21.7106 10.2556 21.9934 10.3044 22.2498 10.4021C22.5102 10.4998 22.7401 10.6381 22.9395 10.8171C23.1388 10.9962 23.3036 11.2098 23.4338 11.458H23.5132V10.3716H24.8376V16.8657C24.8376 17.3662 24.7115 17.8016 24.4592 18.1719C24.211 18.5422 23.857 18.829 23.3972 19.0325C22.9374 19.2359 22.3922 19.3376 21.7615 19.3376ZM21.7432 15.5779C22.1175 15.5779 22.439 15.4904 22.7075 15.3154C22.9761 15.1364 23.1816 14.8902 23.324 14.5769C23.4705 14.2636 23.5437 13.9014 23.5437 13.4905V13.4783C23.5437 13.0714 23.4705 12.7092 23.324 12.3918C23.1816 12.0745 22.9761 11.8263 22.7075 11.6472C22.439 11.4682 22.1175 11.3787 21.7432 11.3787C21.3688 11.3787 21.0494 11.4682 20.7849 11.6472C20.5245 11.8263 20.3251 12.0745 20.1868 12.3918C20.0484 12.7052 19.9792 13.0673 19.9792 13.4783V13.4905C19.9792 13.9014 20.0484 14.2636 20.1868 14.5769C20.3251 14.8902 20.5245 15.1364 20.7849 15.3154C21.0494 15.4904 21.3688 15.5779 21.7432 15.5779ZM26.748 17V10.3716H28.0725V11.3909H28.1763C28.3228 11.0247 28.5506 10.7419 28.8599 10.5425C29.1732 10.3431 29.5475 10.2434 29.9829 10.2434C30.284 10.2434 30.5546 10.2922 30.7947 10.3899C31.0347 10.4875 31.2402 10.6259 31.4111 10.8049C31.5861 10.9799 31.7224 11.1874 31.8201 11.4275H31.9238C32.0337 11.1874 32.1883 10.9799 32.3877 10.8049C32.5871 10.6259 32.819 10.4875 33.0835 10.3899C33.3521 10.2922 33.6369 10.2434 33.938 10.2434C34.3856 10.2434 34.7681 10.3309 35.0854 10.5059C35.4028 10.6768 35.6449 10.925 35.8118 11.2505C35.9786 11.576 36.062 11.9687 36.062 12.4285V17H34.7375V12.7458C34.7375 12.4407 34.6908 12.1884 34.5972 11.989C34.5036 11.7856 34.3612 11.633 34.1699 11.5312C33.9827 11.4295 33.7467 11.3787 33.4619 11.3787C33.1812 11.3787 32.935 11.4438 32.7234 11.574C32.5159 11.7001 32.3531 11.871 32.2351 12.0867C32.1212 12.2983 32.0642 12.5383 32.0642 12.8069V17H30.7397V12.6116C30.7397 12.3593 30.6868 12.1416 30.5811 11.9585C30.4793 11.7713 30.3328 11.6289 30.1416 11.5312C29.9504 11.4295 29.7245 11.3787 29.4641 11.3787C29.1996 11.3787 28.9616 11.4478 28.75 11.5862C28.5425 11.7245 28.3777 11.9117 28.2556 12.1477C28.1335 12.3796 28.0725 12.6401 28.0725 12.929V17H26.748ZM39.7363 17.1099C39.3172 17.1099 38.9408 17.0305 38.6072 16.8718C38.2776 16.7091 38.0172 16.4792 37.8259 16.1821C37.6347 15.8851 37.5391 15.5372 37.5391 15.1384V15.1262C37.5391 14.7275 37.6347 14.3877 37.8259 14.1069C38.0212 13.8262 38.302 13.6064 38.6682 13.4478C39.0385 13.285 39.4861 13.1873 40.011 13.1548L42.4585 13.0083V13.9421L40.1941 14.0886C39.7384 14.1171 39.4027 14.2148 39.187 14.3816C38.9714 14.5444 38.8635 14.7743 38.8635 15.0713V15.0835C38.8635 15.3846 38.9795 15.6226 39.2114 15.7976C39.4434 15.9685 39.7363 16.054 40.0903 16.054C40.4199 16.054 40.7129 15.9889 40.9692 15.8586C41.2297 15.7244 41.4331 15.5453 41.5796 15.3215C41.7261 15.0937 41.7993 14.8373 41.7993 14.5525V12.4651C41.7993 12.0989 41.6854 11.8201 41.4575 11.6289C41.2337 11.4336 40.9001 11.3359 40.4565 11.3359C40.0863 11.3359 39.7831 11.401 39.5471 11.5312C39.3152 11.6615 39.1606 11.8446 39.0833 12.0806L39.071 12.0989H37.7954L37.8015 12.0562C37.8544 11.6899 37.9989 11.3726 38.2349 11.104C38.4749 10.8314 38.7882 10.6198 39.1748 10.4692C39.5654 10.3187 40.011 10.2434 40.5115 10.2434C41.0689 10.2434 41.5409 10.3329 41.9275 10.512C42.3181 10.6869 42.6131 10.9412 42.8125 11.2749C43.016 11.6045 43.1177 12.0012 43.1177 12.4651V17H41.7993V16.0601H41.7017C41.5715 16.2839 41.4087 16.4751 41.2134 16.6338C41.0181 16.7884 40.7963 16.9064 40.5481 16.9878C40.2999 17.0692 40.0293 17.1099 39.7363 17.1099Z" fill="#4493F8"/>
</svg>
