<svg width="46" height="26" viewBox="0 0 46 26" fill="none" xmlns="http://www.w3.org/2000/svg">
<rect width="46" height="26" rx="13" fill="#141D2E"/>
<path d="M11.0498 17V7.80811H12.1118V11.4092H12.2095C12.3763 11.0592 12.6164 10.7887 12.9297 10.5974C13.243 10.4021 13.6418 10.3044 14.126 10.3044C14.6183 10.3044 15.0354 10.4001 15.3772 10.5913C15.719 10.7785 15.9794 11.0531 16.1584 11.4153C16.3375 11.7774 16.427 12.2189 16.427 12.7397V17H15.365V12.9961C15.365 12.402 15.2389 11.9626 14.9866 11.6777C14.7384 11.3888 14.3518 11.2444 13.8269 11.2444C13.477 11.2444 13.1738 11.3197 12.9175 11.4702C12.6611 11.6208 12.4618 11.8344 12.3193 12.1111C12.181 12.3878 12.1118 12.7194 12.1118 13.106V17H11.0498ZM20.6873 17.0488C20.0118 17.0488 19.5215 16.9125 19.2163 16.6399C18.9152 16.3673 18.7646 15.9176 18.7646 15.291V11.2993H17.7271V10.4204H18.7646V8.71753H19.8633V10.4204H21.3037V11.2993H19.8633V15.0225C19.8633 15.409 19.9365 15.6877 20.083 15.8586C20.2295 16.0255 20.4736 16.1089 20.8154 16.1089C20.909 16.1089 20.9884 16.1069 21.0535 16.1028C21.1226 16.0987 21.2061 16.0926 21.3037 16.0845V16.9878C21.202 17.0041 21.1003 17.0183 20.9985 17.0305C20.8968 17.0427 20.7931 17.0488 20.6873 17.0488ZM22.8906 17V10.4204H23.9526V11.4214H24.0503C24.1968 11.0674 24.4206 10.7927 24.7217 10.5974C25.0269 10.4021 25.3951 10.3044 25.8264 10.3044C26.1235 10.3044 26.39 10.3533 26.626 10.4509C26.862 10.5486 27.0654 10.6849 27.2363 10.8599C27.4072 11.0308 27.5435 11.2301 27.6453 11.458H27.7429C27.8609 11.2261 28.0196 11.0247 28.219 10.8538C28.4184 10.6788 28.6483 10.5445 28.9087 10.4509C29.1732 10.3533 29.456 10.3044 29.7571 10.3044C30.2047 10.3044 30.5831 10.3879 30.8923 10.5547C31.2056 10.7215 31.4437 10.9657 31.6064 11.2871C31.7692 11.6045 31.8506 11.9931 31.8506 12.4529V17H30.7886V12.697C30.7886 12.3715 30.7377 12.1029 30.636 11.8914C30.5383 11.6757 30.3878 11.515 30.1843 11.4092C29.9809 11.2993 29.7245 11.2444 29.4153 11.2444C29.1101 11.2444 28.8436 11.3136 28.6157 11.4519C28.3879 11.5903 28.2109 11.7754 28.0847 12.0073C27.9586 12.2352 27.8955 12.4895 27.8955 12.7703V17H26.8335V12.5322C26.8335 12.2718 26.7765 12.046 26.6626 11.8547C26.5527 11.6594 26.394 11.5089 26.1865 11.4031C25.9831 11.2973 25.743 11.2444 25.4663 11.2444C25.1815 11.2444 24.9231 11.3197 24.6912 11.4702C24.4633 11.6208 24.2822 11.8242 24.1479 12.0806C24.0177 12.3328 23.9526 12.6136 23.9526 12.9229V17H22.8906ZM33.8281 17V7.80811H34.8901V17H33.8281Z" fill="#4493F8"/>
</svg>
