<svg width="47" height="26" viewBox="0 0 47 26" fill="none" xmlns="http://www.w3.org/2000/svg">
<rect width="47" height="26" rx="13" fill="#141D2E"/>
<path d="M11.0132 17V7.77148H12.3376V11.3726H12.4414C12.6042 11.0186 12.8442 10.7419 13.1616 10.5425C13.479 10.3431 13.8798 10.2434 14.364 10.2434C14.8564 10.2434 15.2734 10.339 15.6152 10.5303C15.957 10.7215 16.2174 11.0023 16.3965 11.3726C16.5755 11.7388 16.665 12.1843 16.665 12.7092V17H15.3345V13.0205C15.3345 12.4671 15.2185 12.0562 14.9866 11.7876C14.7587 11.515 14.4006 11.3787 13.9124 11.3787C13.5909 11.3787 13.3122 11.4499 13.0762 11.5923C12.8402 11.7306 12.6571 11.93 12.5269 12.1904C12.4007 12.4468 12.3376 12.754 12.3376 13.1121V17H11.0132ZM21.0107 17.0427C20.2865 17.0427 19.7616 16.9044 19.436 16.6277C19.1146 16.3469 18.9539 15.8892 18.9539 15.2544V11.4153H17.9163V10.3716H18.9539V8.69922H20.3088V10.3716H21.731V11.4153H20.3088V14.9309C20.3088 15.289 20.38 15.5474 20.5225 15.7061C20.6649 15.8607 20.9009 15.938 21.2305 15.938C21.3281 15.938 21.4115 15.936 21.4807 15.9319C21.554 15.9278 21.6374 15.9217 21.731 15.9136V16.9756C21.6252 16.9919 21.5112 17.0061 21.3892 17.0183C21.2671 17.0346 21.141 17.0427 21.0107 17.0427ZM23.2812 17V10.3716H24.6057V11.3909H24.7095C24.856 11.0247 25.0838 10.7419 25.3931 10.5425C25.7064 10.3431 26.0807 10.2434 26.5161 10.2434C26.8172 10.2434 27.0878 10.2922 27.3279 10.3899C27.568 10.4875 27.7734 10.6259 27.9443 10.8049C28.1193 10.9799 28.2556 11.1874 28.3533 11.4275H28.457C28.5669 11.1874 28.7215 10.9799 28.9209 10.8049C29.1203 10.6259 29.3522 10.4875 29.6167 10.3899C29.8853 10.2922 30.1701 10.2434 30.4712 10.2434C30.9188 10.2434 31.3013 10.3309 31.6187 10.5059C31.936 10.6768 32.1781 10.925 32.345 11.2505C32.5118 11.576 32.5952 11.9687 32.5952 12.4285V17H31.2708V12.7458C31.2708 12.4407 31.224 12.1884 31.1304 11.989C31.0368 11.7856 30.8944 11.633 30.7031 11.5312C30.516 11.4295 30.2799 11.3787 29.9951 11.3787C29.7144 11.3787 29.4682 11.4438 29.2566 11.574C29.0491 11.7001 28.8863 11.871 28.7683 12.0867C28.6544 12.2983 28.5974 12.5383 28.5974 12.8069V17H27.2729V12.6116C27.2729 12.3593 27.2201 12.1416 27.1143 11.9585C27.0125 11.7713 26.866 11.6289 26.6748 11.5312C26.4836 11.4295 26.2577 11.3787 25.9973 11.3787C25.7328 11.3787 25.4948 11.4478 25.2832 11.5862C25.0757 11.7245 24.9109 11.9117 24.7888 12.1477C24.6667 12.3796 24.6057 12.6401 24.6057 12.929V17H23.2812ZM34.5117 17V7.77148H35.8362V17H34.5117Z" fill="#4493F8"/>
</svg>
