<svg width="48" height="26" viewBox="0 0 48 26" fill="none" xmlns="http://www.w3.org/2000/svg">
<rect width="48" height="26" rx="13" fill="#141D2E"/>
<path d="M10.9888 17V7.74707H12.5085V11.3542H12.6123C12.771 10.9921 13.0111 10.7093 13.3325 10.5059C13.654 10.3024 14.0548 10.2007 14.5349 10.2007C15.0313 10.2007 15.4504 10.2983 15.7922 10.4937C16.134 10.6849 16.3924 10.9657 16.5674 11.3359C16.7464 11.7062 16.8359 12.1558 16.8359 12.6848V17H15.3162V13.0388C15.3162 12.518 15.2063 12.1274 14.9866 11.8669C14.7709 11.6065 14.4332 11.4763 13.9734 11.4763C13.6723 11.4763 13.4119 11.5435 13.1921 11.6777C12.9724 11.812 12.8035 12.0012 12.6855 12.2454C12.5675 12.4895 12.5085 12.7784 12.5085 13.1121V17H10.9888ZM21.2549 17.0305C20.4899 17.0305 19.9386 16.8901 19.6008 16.6094C19.2631 16.3286 19.0942 15.8688 19.0942 15.23V11.5068H18.0566V10.3289H19.0942V8.69312H20.6384V10.3289H22.0422V11.5068H20.6384V14.8699C20.6384 15.1995 20.7076 15.4416 20.8459 15.5962C20.9884 15.7467 21.2162 15.822 21.5295 15.822C21.6394 15.822 21.7289 15.82 21.7981 15.8159C21.8713 15.8078 21.9527 15.7996 22.0422 15.7915V16.9634C21.9364 16.9837 21.8144 17 21.676 17.0122C21.5417 17.0244 21.4014 17.0305 21.2549 17.0305ZM23.562 17V10.3289H25.0818V11.3665H25.1855C25.328 10.9962 25.5579 10.7093 25.8752 10.5059C26.1967 10.3024 26.5771 10.2007 27.0166 10.2007C27.3177 10.2007 27.5883 10.2495 27.8284 10.3472C28.0725 10.4448 28.2821 10.5832 28.457 10.7622C28.632 10.9412 28.7663 11.1549 28.8599 11.4031H28.9697C29.0796 11.163 29.2322 10.9535 29.4275 10.7744C29.6269 10.5913 29.8588 10.4509 30.1233 10.3533C30.3918 10.2515 30.6807 10.2007 30.99 10.2007C31.4376 10.2007 31.8201 10.2902 32.1375 10.4692C32.4589 10.6442 32.7051 10.8965 32.876 11.2261C33.0509 11.5557 33.1384 11.9504 33.1384 12.4102V17H31.6187V12.7825C31.6187 12.4895 31.5739 12.2474 31.4844 12.0562C31.3989 11.8649 31.2667 11.7205 31.0876 11.6228C30.9086 11.5251 30.6828 11.4763 30.4102 11.4763C30.1457 11.4763 29.9158 11.5374 29.7205 11.6594C29.5251 11.7774 29.3726 11.9382 29.2627 12.1416C29.1569 12.3451 29.104 12.575 29.104 12.8313V17H27.5842V12.6726C27.5842 12.4244 27.5354 12.2108 27.4377 12.0317C27.3442 11.8527 27.2058 11.7164 27.0227 11.6228C26.8437 11.5251 26.63 11.4763 26.3818 11.4763C26.1336 11.4763 25.9098 11.5414 25.7104 11.6716C25.5151 11.7978 25.3605 11.9727 25.2466 12.1965C25.1367 12.4163 25.0818 12.6645 25.0818 12.9412V17H23.562ZM34.9878 17V7.74707H36.5076V17H34.9878Z" fill="#4493F8"/>
</svg>
