<svg width="103" height="26" viewBox="0 0 103 26" fill="none" xmlns="http://www.w3.org/2000/svg">
<rect width="103" height="26" rx="13" fill="#1C2E14"/>
<path d="M21.946 17V10.3289H23.4597V17H21.946ZM22.709 9.21191C22.4608 9.21191 22.2472 9.12443 22.0681 8.94946C21.8891 8.7745 21.7996 8.56494 21.7996 8.3208C21.7996 8.06852 21.8891 7.85693 22.0681 7.68604C22.2472 7.51107 22.4608 7.42358 22.709 7.42358C22.9572 7.42358 23.1688 7.51107 23.3438 7.68604C23.5228 7.85693 23.6123 8.06852 23.6123 8.3208C23.6123 8.56494 23.5228 8.7745 23.3438 8.94946C23.1688 9.12443 22.9572 9.21191 22.709 9.21191ZM25.3335 17V10.3289H26.8533V11.3542H26.957C27.1157 10.9921 27.3558 10.7093 27.6772 10.5059C27.9987 10.3024 28.3995 10.2007 28.8796 10.2007C29.6243 10.2007 30.1939 10.4163 30.5886 10.8477C30.9833 11.279 31.1807 11.8914 31.1807 12.6848V17H29.6609V13.0388C29.6609 12.518 29.551 12.1274 29.3313 11.8669C29.1156 11.6065 28.7779 11.4763 28.3181 11.4763C28.017 11.4763 27.7566 11.5435 27.5369 11.6777C27.3171 11.812 27.1483 12.0012 27.0303 12.2454C26.9123 12.4895 26.8533 12.7784 26.8533 13.1121V17H25.3335ZM33.0056 14.1375V12.7581H37.0828V14.1375H33.0056ZM38.9688 19.2156V10.3289H40.4885V11.3726H40.5923C40.7144 11.1325 40.873 10.927 41.0684 10.7561C41.2677 10.5852 41.4976 10.453 41.7581 10.3594C42.0185 10.2658 42.3053 10.219 42.6187 10.219C43.1761 10.219 43.6583 10.3594 44.0652 10.6401C44.4762 10.9209 44.7935 11.3197 45.0173 11.8364C45.2452 12.3491 45.3591 12.9574 45.3591 13.6614V13.6736C45.3591 14.3816 45.2472 14.9919 45.0234 15.5046C44.7996 16.0173 44.4823 16.4141 44.0713 16.6948C43.6644 16.9715 43.1802 17.1099 42.6187 17.1099C42.3135 17.1099 42.0286 17.0631 41.7642 16.9695C41.4997 16.8718 41.2677 16.7355 41.0684 16.5605C40.869 16.3856 40.7103 16.1781 40.5923 15.938H40.4885V19.2156H38.9688ZM42.1426 15.8281C42.4884 15.8281 42.7855 15.7427 43.0337 15.5718C43.2819 15.3968 43.4731 15.1486 43.6074 14.8271C43.7417 14.5016 43.8088 14.1171 43.8088 13.6736V13.6614C43.8088 13.2097 43.7417 12.8232 43.6074 12.5017C43.4731 12.1803 43.2819 11.9341 43.0337 11.7632C42.7855 11.5882 42.4884 11.5007 42.1426 11.5007C41.7967 11.5007 41.4976 11.5882 41.2454 11.7632C40.9972 11.9341 40.8039 12.1803 40.6655 12.5017C40.5312 12.8232 40.4641 13.2077 40.4641 13.6553V13.6675C40.4641 14.1151 40.5312 14.5016 40.6655 14.8271C40.8039 15.1486 40.9992 15.3968 41.2515 15.5718C41.5037 15.7427 41.8008 15.8281 42.1426 15.8281ZM46.8911 17V10.3289H48.4109V11.3542H48.5146C48.6286 10.9962 48.832 10.7174 49.125 10.5181C49.422 10.3187 49.7903 10.219 50.2297 10.219C50.3437 10.219 50.4556 10.2271 50.5654 10.2434C50.6794 10.2556 50.7729 10.2719 50.8462 10.2922V11.6533C50.7241 11.6248 50.6 11.6045 50.4739 11.5923C50.3518 11.576 50.2236 11.5679 50.0894 11.5679C49.7516 11.5679 49.4566 11.6309 49.2043 11.7571C48.9521 11.8832 48.7568 12.0643 48.6184 12.3003C48.4801 12.5322 48.4109 12.8069 48.4109 13.1243V17H46.8911ZM54.8013 17.1343C54.138 17.1343 53.5663 16.9959 53.0862 16.7192C52.606 16.4385 52.2358 16.0397 51.9753 15.5229C51.719 15.0062 51.5908 14.3877 51.5908 13.6675V13.6553C51.5908 12.9432 51.721 12.3288 51.9814 11.812C52.2419 11.2912 52.6101 10.8924 53.0862 10.6157C53.5663 10.339 54.138 10.2007 54.8013 10.2007C55.4645 10.2007 56.0342 10.339 56.5103 10.6157C56.9904 10.8924 57.3607 11.2891 57.6211 11.8059C57.8815 12.3227 58.0117 12.9391 58.0117 13.6553V13.6675C58.0117 14.3877 57.8815 15.0062 57.6211 15.5229C57.3647 16.0397 56.9965 16.4385 56.5164 16.7192C56.0403 16.9959 55.4686 17.1343 54.8013 17.1343ZM54.8013 15.9014C55.1512 15.9014 55.4482 15.8139 55.6924 15.6389C55.9406 15.4599 56.1298 15.2056 56.26 14.876C56.3902 14.5423 56.4553 14.1415 56.4553 13.6736V13.6614C56.4553 13.1894 56.3902 12.7886 56.26 12.459C56.1298 12.1253 55.9406 11.871 55.6924 11.696C55.4482 11.517 55.1512 11.4275 54.8013 11.4275C54.4513 11.4275 54.1523 11.517 53.9041 11.696C53.6558 11.871 53.4666 12.1253 53.3364 12.459C53.2062 12.7886 53.1411 13.1894 53.1411 13.6614V13.6736C53.1411 14.1415 53.2062 14.5423 53.3364 14.876C53.4666 15.2096 53.6538 15.4639 53.8979 15.6389C54.1462 15.8139 54.4473 15.9014 54.8013 15.9014ZM62.4062 19.3438C61.8203 19.3438 61.3137 19.2664 60.8865 19.1118C60.4633 18.9572 60.1296 18.7375 59.8855 18.4526C59.6414 18.1719 59.4928 17.8443 59.4399 17.47L59.446 17.4517H60.9597L60.9719 17.47C61.0208 17.6816 61.1693 17.8545 61.4175 17.9888C61.6698 18.1271 62.0075 18.1963 62.4307 18.1963C62.9515 18.1963 63.3543 18.0803 63.6392 17.8484C63.9281 17.6165 64.0725 17.2869 64.0725 16.8596V15.5779H63.9688C63.8426 15.818 63.6778 16.0214 63.4744 16.1882C63.275 16.3551 63.0451 16.4812 62.7847 16.5667C62.5283 16.648 62.2455 16.6887 61.9363 16.6887C61.3748 16.6887 60.8885 16.5544 60.4775 16.2859C60.0666 16.0133 59.7492 15.6369 59.5254 15.1567C59.3057 14.6766 59.1958 14.1212 59.1958 13.4905V13.4783C59.1958 12.8354 59.3077 12.2698 59.5315 11.7815C59.7553 11.2932 60.0727 10.9107 60.4836 10.634C60.8987 10.3573 61.3931 10.219 61.9668 10.219C62.276 10.219 62.5588 10.2678 62.8152 10.3655C63.0756 10.4631 63.3035 10.6015 63.4988 10.7805C63.6982 10.9596 63.8609 11.1752 63.9871 11.4275H64.0664V10.3289H65.5862V16.8352C65.5862 17.3479 65.456 17.7914 65.1956 18.1658C64.9392 18.5442 64.573 18.8351 64.0969 19.0386C63.6208 19.242 63.0573 19.3438 62.4062 19.3438ZM62.4062 15.4802C62.7562 15.4802 63.0573 15.3968 63.3096 15.23C63.5618 15.0591 63.7551 14.8251 63.8894 14.5281C64.0278 14.231 64.0969 13.8852 64.0969 13.4905V13.4783C64.0969 13.0836 64.0278 12.7377 63.8894 12.4407C63.7551 12.1396 63.5618 11.9056 63.3096 11.7388C63.0573 11.5679 62.7562 11.4824 62.4062 11.4824C62.0522 11.4824 61.7511 11.5679 61.5029 11.7388C61.2588 11.9056 61.0716 12.1396 60.9414 12.4407C60.8153 12.7377 60.7522 13.0836 60.7522 13.4783V13.4905C60.7522 13.8811 60.8153 14.227 60.9414 14.5281C61.0716 14.8251 61.2588 15.0591 61.5029 15.23C61.7511 15.3968 62.0522 15.4802 62.4062 15.4802ZM67.4478 17V10.3289H68.9675V11.3542H69.0713C69.1852 10.9962 69.3887 10.7174 69.6816 10.5181C69.9787 10.3187 70.3469 10.219 70.7864 10.219C70.9003 10.219 71.0122 10.2271 71.1221 10.2434C71.236 10.2556 71.3296 10.2719 71.4028 10.2922V11.6533C71.2808 11.6248 71.1567 11.6045 71.0305 11.5923C70.9084 11.576 70.7803 11.5679 70.646 11.5679C70.3083 11.5679 70.0133 11.6309 69.761 11.7571C69.5087 11.8832 69.3134 12.0643 69.175 12.3003C69.0367 12.5322 68.9675 12.8069 68.9675 13.1243V17H67.4478ZM75.3335 17.1343C74.6702 17.1343 74.1006 16.9939 73.6245 16.7131C73.1525 16.4324 72.7883 16.0336 72.532 15.5168C72.2756 15.0001 72.1475 14.3877 72.1475 13.6797V13.6736C72.1475 12.9737 72.2736 12.3634 72.5259 11.8425C72.7822 11.3217 73.1444 10.9189 73.6123 10.634C74.0802 10.3451 74.6296 10.2007 75.2603 10.2007C75.895 10.2007 76.4403 10.3411 76.896 10.6218C77.3558 10.8985 77.7098 11.2871 77.958 11.7876C78.2062 12.2881 78.3303 12.874 78.3303 13.5454V14.0459H72.9104V13.0266H77.5857L76.8655 13.9788V13.3745C76.8655 12.931 76.7983 12.5627 76.6641 12.2698C76.5298 11.9768 76.3426 11.7571 76.1025 11.6106C75.8665 11.4641 75.5919 11.3909 75.2786 11.3909C74.9653 11.3909 74.6865 11.4682 74.4424 11.6228C74.2023 11.7734 74.0111 11.9972 73.8687 12.2942C73.7303 12.5872 73.6611 12.9473 73.6611 13.3745V13.9849C73.6611 14.3958 73.7303 14.7478 73.8687 15.0408C74.007 15.3297 74.2023 15.5535 74.4546 15.7122C74.7109 15.8668 75.0141 15.9441 75.364 15.9441C75.6366 15.9441 75.8706 15.9054 76.0659 15.8281C76.2653 15.7467 76.426 15.6511 76.5481 15.5413C76.6702 15.4273 76.7556 15.3195 76.8044 15.2178L76.8228 15.175H78.2632L78.251 15.23C78.1981 15.4456 78.1004 15.6654 77.958 15.8892C77.8197 16.1089 77.6305 16.3144 77.3904 16.5056C77.1544 16.6928 76.8655 16.8454 76.5237 16.9634C76.1819 17.0773 75.7852 17.1343 75.3335 17.1343ZM82.3708 17.1343C81.8053 17.1343 81.317 17.0549 80.906 16.8962C80.4991 16.7335 80.1777 16.5097 79.9417 16.2249C79.7056 15.936 79.5653 15.6023 79.5205 15.2239V15.2117H81.0281L81.0342 15.2239C81.1156 15.4558 81.2681 15.645 81.4919 15.7915C81.7157 15.938 82.0168 16.0112 82.3953 16.0112C82.6475 16.0112 82.8693 15.9766 83.0605 15.9075C83.2518 15.8342 83.4023 15.7345 83.5122 15.6084C83.6221 15.4823 83.677 15.3358 83.677 15.1689V15.1567C83.677 14.9614 83.5977 14.7987 83.439 14.6685C83.2803 14.5342 83.0178 14.4264 82.6516 14.345L81.5713 14.1008C81.1481 14.0072 80.7982 13.877 80.5215 13.7102C80.2448 13.5434 80.0373 13.3379 79.8989 13.0938C79.7646 12.8496 79.6975 12.5648 79.6975 12.2393V12.2332C79.6975 11.8303 79.8094 11.4763 80.0332 11.1711C80.2611 10.866 80.5764 10.6279 80.9792 10.457C81.3821 10.2861 81.8459 10.2007 82.3708 10.2007C82.912 10.2007 83.3779 10.2821 83.7686 10.4448C84.1592 10.6076 84.4644 10.8314 84.6841 11.1162C84.9038 11.401 85.0299 11.7245 85.0625 12.0867V12.0989H83.6343L83.6282 12.0806C83.5712 11.869 83.4349 11.6899 83.2192 11.5435C83.0076 11.3929 82.7228 11.3176 82.3647 11.3176C82.141 11.3176 81.9395 11.3522 81.7605 11.4214C81.5855 11.4906 81.4472 11.5882 81.3455 11.7144C81.2478 11.8364 81.199 11.9809 81.199 12.1477V12.1538C81.199 12.284 81.2315 12.3979 81.2966 12.4956C81.3658 12.5933 81.4736 12.6787 81.6201 12.752C81.7666 12.8252 81.9599 12.8903 82.2 12.9473L83.2803 13.1853C83.9354 13.3318 84.4196 13.5495 84.7329 13.8384C85.0462 14.1273 85.2029 14.5159 85.2029 15.0042V15.0164C85.2029 15.4395 85.0808 15.8098 84.8367 16.1272C84.5925 16.4446 84.2568 16.6928 83.8296 16.8718C83.4023 17.0468 82.9161 17.1343 82.3708 17.1343ZM89.1335 17.1343C88.568 17.1343 88.0797 17.0549 87.6687 16.8962C87.2618 16.7335 86.9403 16.5097 86.7043 16.2249C86.4683 15.936 86.328 15.6023 86.2832 15.2239V15.2117H87.7908L87.7969 15.2239C87.8783 15.4558 88.0308 15.645 88.2546 15.7915C88.4784 15.938 88.7795 16.0112 89.158 16.0112C89.4102 16.0112 89.632 15.9766 89.8232 15.9075C90.0145 15.8342 90.165 15.7345 90.2749 15.6084C90.3848 15.4823 90.4397 15.3358 90.4397 15.1689V15.1567C90.4397 14.9614 90.3604 14.7987 90.2017 14.6685C90.043 14.5342 89.7805 14.4264 89.4143 14.345L88.334 14.1008C87.9108 14.0072 87.5609 13.877 87.2842 13.7102C87.0075 13.5434 86.8 13.3379 86.6616 13.0938C86.5273 12.8496 86.4602 12.5648 86.4602 12.2393V12.2332C86.4602 11.8303 86.5721 11.4763 86.7959 11.1711C87.0238 10.866 87.3391 10.6279 87.7419 10.457C88.1448 10.2861 88.6086 10.2007 89.1335 10.2007C89.6747 10.2007 90.1406 10.2821 90.5312 10.4448C90.9219 10.6076 91.2271 10.8314 91.4468 11.1162C91.6665 11.401 91.7926 11.7245 91.8252 12.0867V12.0989H90.397L90.3909 12.0806C90.3339 11.869 90.1976 11.6899 89.9819 11.5435C89.7703 11.3929 89.4855 11.3176 89.1274 11.3176C88.9036 11.3176 88.7022 11.3522 88.5232 11.4214C88.3482 11.4906 88.2099 11.5882 88.1082 11.7144C88.0105 11.8364 87.9617 11.9809 87.9617 12.1477V12.1538C87.9617 12.284 87.9942 12.3979 88.0593 12.4956C88.1285 12.5933 88.2363 12.6787 88.3828 12.752C88.5293 12.8252 88.7226 12.8903 88.9626 12.9473L90.043 13.1853C90.6981 13.3318 91.1823 13.5495 91.4956 13.8384C91.8089 14.1273 91.9656 14.5159 91.9656 15.0042V15.0164C91.9656 15.4395 91.8435 15.8098 91.5994 16.1272C91.3552 16.4446 91.0195 16.6928 90.5923 16.8718C90.165 17.0468 89.6788 17.1343 89.1335 17.1343Z" fill="#89F844"/>
<circle cx="12" cy="13" r="4" fill="#89F844" fill-opacity="0.25"/>
<circle cx="12" cy="13" r="2" fill="#89F844"/>
</svg>
