<svg width="79" height="26" viewBox="0 0 79 26" fill="none" xmlns="http://www.w3.org/2000/svg">
<rect width="79" height="26" rx="13" fill="#141D2E"/>
<path d="M10.1404 19.2705C10.0916 19.2705 10.0407 19.2685 9.98779 19.2644C9.9349 19.2644 9.8881 19.2644 9.84741 19.2644V18.178C9.87996 18.178 9.91048 18.178 9.93896 18.178C9.96745 18.178 9.99797 18.178 10.0305 18.178C10.3723 18.178 10.6144 18.1108 10.7568 17.9766C10.8993 17.8423 10.9705 17.6104 10.9705 17.2808V10.3716H12.2949V17.2869C12.2949 17.9664 12.1159 18.4669 11.7578 18.7883C11.4038 19.1098 10.8647 19.2705 10.1404 19.2705ZM11.6296 9.1875C11.4058 9.1875 11.2105 9.10612 11.0437 8.94336C10.8809 8.7806 10.7996 8.58529 10.7996 8.35742C10.7996 8.12956 10.8809 7.93628 11.0437 7.77759C11.2105 7.61483 11.4058 7.53345 11.6296 7.53345C11.8616 7.53345 12.0589 7.61483 12.2217 7.77759C12.3844 7.93628 12.4658 8.12956 12.4658 8.35742C12.4658 8.58529 12.3844 8.7806 12.2217 8.94336C12.0589 9.10612 11.8616 9.1875 11.6296 9.1875ZM16.0425 17.1099C15.6234 17.1099 15.247 17.0305 14.9133 16.8718C14.5837 16.7091 14.3233 16.4792 14.1321 16.1821C13.9408 15.8851 13.8452 15.5372 13.8452 15.1384V15.1262C13.8452 14.7275 13.9408 14.3877 14.1321 14.1069C14.3274 13.8262 14.6082 13.6064 14.9744 13.4478C15.3446 13.285 15.7922 13.1873 16.3171 13.1548L18.7646 13.0083V13.9421L16.5002 14.0886C16.0445 14.1171 15.7088 14.2148 15.4932 14.3816C15.2775 14.5444 15.1697 14.7743 15.1697 15.0713V15.0835C15.1697 15.3846 15.2856 15.6226 15.5176 15.7976C15.7495 15.9685 16.0425 16.054 16.3965 16.054C16.7261 16.054 17.019 15.9889 17.2754 15.8586C17.5358 15.7244 17.7393 15.5453 17.8857 15.3215C18.0322 15.0937 18.1055 14.8373 18.1055 14.5525V12.4651C18.1055 12.0989 17.9915 11.8201 17.7637 11.6289C17.5399 11.4336 17.2062 11.3359 16.7627 11.3359C16.3924 11.3359 16.0893 11.401 15.8533 11.5312C15.6213 11.6615 15.4667 11.8446 15.3894 12.0806L15.3772 12.0989H14.1016L14.1077 12.0562C14.1606 11.6899 14.305 11.3726 14.541 11.104C14.7811 10.8314 15.0944 10.6198 15.481 10.4692C15.8716 10.3187 16.3171 10.2434 16.8176 10.2434C17.3751 10.2434 17.8471 10.3329 18.2336 10.512C18.6243 10.6869 18.9193 10.9412 19.1187 11.2749C19.3221 11.6045 19.4238 12.0012 19.4238 12.4651V17H18.1055V16.0601H18.0078C17.8776 16.2839 17.7148 16.4751 17.5195 16.6338C17.3242 16.7884 17.1025 16.9064 16.8542 16.9878C16.606 17.0692 16.3354 17.1099 16.0425 17.1099ZM22.8967 17L20.498 10.3716H21.908L23.562 15.6572H23.6597L25.3076 10.3716H26.7053L24.3127 17H22.8967ZM29.6289 17.1099C29.2098 17.1099 28.8334 17.0305 28.4998 16.8718C28.1702 16.7091 27.9097 16.4792 27.7185 16.1821C27.5273 15.8851 27.4316 15.5372 27.4316 15.1384V15.1262C27.4316 14.7275 27.5273 14.3877 27.7185 14.1069C27.9138 13.8262 28.1946 13.6064 28.5608 13.4478C28.9311 13.285 29.3787 13.1873 29.9036 13.1548L32.3511 13.0083V13.9421L30.0867 14.0886C29.6309 14.1171 29.2952 14.2148 29.0796 14.3816C28.8639 14.5444 28.7561 14.7743 28.7561 15.0713V15.0835C28.7561 15.3846 28.8721 15.6226 29.104 15.7976C29.3359 15.9685 29.6289 16.054 29.9829 16.054C30.3125 16.054 30.6055 15.9889 30.8618 15.8586C31.1222 15.7244 31.3257 15.5453 31.4722 15.3215C31.6187 15.0937 31.6919 14.8373 31.6919 14.5525V12.4651C31.6919 12.0989 31.578 11.8201 31.3501 11.6289C31.1263 11.4336 30.7926 11.3359 30.3491 11.3359C29.9788 11.3359 29.6757 11.401 29.4397 11.5312C29.2078 11.6615 29.0531 11.8446 28.9758 12.0806L28.9636 12.0989H27.688L27.6941 12.0562C27.747 11.6899 27.8914 11.3726 28.1274 11.104C28.3675 10.8314 28.6808 10.6198 29.0674 10.4692C29.458 10.3187 29.9036 10.2434 30.4041 10.2434C30.9615 10.2434 31.4335 10.3329 31.8201 10.512C32.2107 10.6869 32.5057 10.9412 32.7051 11.2749C32.9085 11.6045 33.0103 12.0012 33.0103 12.4651V17H31.6919V16.0601H31.5942C31.464 16.2839 31.3013 16.4751 31.106 16.6338C30.9106 16.7884 30.6889 16.9064 30.4407 16.9878C30.1925 17.0692 29.9219 17.1099 29.6289 17.1099ZM37.2888 17.1282C36.7558 17.1282 36.2919 17.0509 35.8972 16.8962C35.5025 16.7375 35.1892 16.5199 34.9573 16.2432C34.7253 15.9624 34.589 15.6369 34.5483 15.2666V15.2544H35.8789V15.2666C35.9644 15.5148 36.1271 15.7162 36.3672 15.8708C36.6073 16.0255 36.9246 16.1028 37.3193 16.1028C37.592 16.1028 37.83 16.0641 38.0334 15.9868C38.241 15.9095 38.4037 15.8017 38.5217 15.6633C38.6397 15.525 38.6987 15.3663 38.6987 15.1873V15.175C38.6987 14.9675 38.6153 14.7926 38.4485 14.6501C38.2817 14.5077 38.007 14.3918 37.6245 14.3022L36.5625 14.0581C36.1475 13.9645 35.8036 13.8363 35.531 13.6736C35.2584 13.5108 35.057 13.3114 34.9268 13.0754C34.7965 12.8354 34.7314 12.5546 34.7314 12.2332V12.2271C34.7314 11.8405 34.8413 11.4987 35.061 11.2017C35.2808 10.9006 35.5839 10.6666 35.9705 10.4998C36.3611 10.3289 36.8066 10.2434 37.3071 10.2434C37.8117 10.2434 38.2511 10.3228 38.6255 10.4814C39.0039 10.6361 39.303 10.8517 39.5227 11.1284C39.7424 11.401 39.8726 11.7184 39.9133 12.0806V12.0867H38.6438V12.0745C38.5828 11.8425 38.4363 11.6493 38.2043 11.4946C37.9765 11.34 37.6754 11.2627 37.301 11.2627C37.061 11.2627 36.8473 11.3014 36.6602 11.3787C36.473 11.4519 36.3245 11.5557 36.2146 11.6899C36.1088 11.8201 36.0559 11.9748 36.0559 12.1538V12.166C36.0559 12.3044 36.0905 12.4264 36.1597 12.5322C36.2329 12.634 36.3468 12.7255 36.5015 12.8069C36.6561 12.8842 36.8555 12.9534 37.0996 13.0144L38.1555 13.2524C38.7903 13.403 39.2623 13.6207 39.5715 13.9055C39.8848 14.1903 40.0415 14.5728 40.0415 15.053V15.0652C40.0415 15.4721 39.9215 15.8322 39.6814 16.1455C39.4413 16.4548 39.1138 16.6969 38.6987 16.8718C38.2878 17.0427 37.8178 17.1282 37.2888 17.1282ZM44.4055 17.1282C43.7626 17.1282 43.2072 16.9898 42.7393 16.7131C42.2754 16.4324 41.9173 16.0336 41.665 15.5168C41.4128 15.0001 41.2866 14.3836 41.2866 13.6675V13.6553C41.2866 12.9513 41.4107 12.3451 41.6589 11.8364C41.9112 11.3278 42.2693 10.9351 42.7332 10.6584C43.2011 10.3818 43.7565 10.2434 44.3994 10.2434C44.9569 10.2434 45.435 10.3411 45.8337 10.5364C46.2366 10.7276 46.556 10.9921 46.792 11.3298C47.0321 11.6635 47.1826 12.0439 47.2437 12.4712L47.2498 12.5017H45.9741L45.968 12.4895C45.8948 12.164 45.7259 11.8934 45.4614 11.6777C45.1969 11.458 44.845 11.3481 44.4055 11.3481C44.0393 11.3481 43.724 11.4417 43.4595 11.6289C43.195 11.812 42.9915 12.0765 42.8491 12.4224C42.7108 12.7682 42.6416 13.1792 42.6416 13.6553V13.6675C42.6416 14.1558 42.7128 14.5749 42.8552 14.9248C42.9976 15.2747 43.2011 15.5453 43.4656 15.7366C43.7301 15.9237 44.0434 16.0173 44.4055 16.0173C44.8206 16.0173 45.1562 15.9258 45.4126 15.7427C45.673 15.5596 45.8561 15.289 45.9619 14.9309L45.9741 14.9004L47.2437 14.8943L47.2314 14.9492C47.1541 15.3805 46.9975 15.759 46.7615 16.0845C46.5255 16.41 46.2101 16.6663 45.8154 16.8535C45.4248 17.0366 44.9548 17.1282 44.4055 17.1282ZM48.7451 17V10.3716H50.0696V11.3726H50.1733C50.2913 11.0186 50.4989 10.7439 50.7959 10.5486C51.097 10.3533 51.4673 10.2556 51.9067 10.2556C52.0166 10.2556 52.1244 10.2617 52.2302 10.2739C52.336 10.2861 52.4215 10.3004 52.4866 10.3167V11.5374C52.3686 11.5129 52.2506 11.4946 52.1326 11.4824C52.0186 11.4702 51.8986 11.4641 51.7725 11.4641C51.4347 11.4641 51.1377 11.5292 50.8813 11.6594C50.6291 11.7896 50.4297 11.9727 50.2832 12.2087C50.1408 12.4407 50.0696 12.7174 50.0696 13.0388V17H48.7451ZM53.7805 17V10.3716H55.1111V17H53.7805ZM54.4519 9.1875C54.224 9.1875 54.0287 9.10612 53.866 8.94336C53.7032 8.7806 53.6218 8.58529 53.6218 8.35742C53.6218 8.12956 53.7032 7.93628 53.866 7.77759C54.0287 7.61483 54.224 7.53345 54.4519 7.53345C54.6798 7.53345 54.8751 7.61483 55.0378 7.77759C55.2006 7.93628 55.282 8.12956 55.282 8.35742C55.282 8.58529 55.2006 8.7806 55.0378 8.94336C54.8751 9.10612 54.6798 9.1875 54.4519 9.1875ZM57.0337 19.2095V10.3716H58.3582V11.4153H58.4619C58.5881 11.1711 58.7508 10.9636 58.9502 10.7927C59.1536 10.6218 59.3856 10.4896 59.646 10.396C59.9064 10.3024 60.1912 10.2556 60.5005 10.2556C61.0579 10.2556 61.5422 10.398 61.9531 10.6829C62.3641 10.9636 62.6815 11.3604 62.9053 11.873C63.1331 12.3817 63.2471 12.9839 63.2471 13.6797V13.6919C63.2471 14.3918 63.1352 14.998 62.9114 15.5107C62.6876 16.0194 62.3702 16.4141 61.9592 16.6948C61.5483 16.9715 61.062 17.1099 60.5005 17.1099C60.1953 17.1099 59.9105 17.0631 59.646 16.9695C59.3815 16.8718 59.1475 16.7375 58.9441 16.5667C58.7406 16.3958 58.5799 16.1903 58.4619 15.9502H58.3582V19.2095H57.0337ZM60.1221 15.9746C60.4924 15.9746 60.8097 15.8831 61.0742 15.7C61.3387 15.5168 61.5401 15.2544 61.6785 14.9126C61.8209 14.5708 61.8921 14.1639 61.8921 13.6919V13.6797C61.8921 13.2036 61.8209 12.7947 61.6785 12.4529C61.5401 12.1111 61.3387 11.8486 61.0742 11.6655C60.8097 11.4824 60.4924 11.3909 60.1221 11.3909C59.7559 11.3909 59.4385 11.4845 59.1699 11.6716C58.9014 11.8547 58.6959 12.1172 58.5535 12.459C58.4111 12.7967 58.3398 13.2036 58.3398 13.6797V13.6919C58.3398 14.1598 58.4111 14.5647 58.5535 14.9065C58.6959 15.2483 58.9014 15.5128 59.1699 15.7C59.4385 15.8831 59.7559 15.9746 60.1221 15.9746ZM67.3364 17.0427C66.6121 17.0427 66.0872 16.9044 65.7617 16.6277C65.4403 16.3469 65.2795 15.8892 65.2795 15.2544V11.4153H64.2419V10.3716H65.2795V8.69922H66.6345V10.3716H68.0566V11.4153H66.6345V14.9309C66.6345 15.289 66.7057 15.5474 66.8481 15.7061C66.9906 15.8607 67.2266 15.938 67.5562 15.938C67.6538 15.938 67.7372 15.936 67.8064 15.9319C67.8796 15.9278 67.9631 15.9217 68.0566 15.9136V16.9756C67.9508 16.9919 67.8369 17.0061 67.7148 17.0183C67.5928 17.0346 67.4666 17.0427 67.3364 17.0427Z" fill="#4493F8"/>
</svg>
