<svg width="77" height="26" viewBox="0 0 77 26" fill="none" xmlns="http://www.w3.org/2000/svg">
<rect width="77" height="26" rx="13" fill="#141D2E"/>
<path d="M10.0488 19.2583C10.0203 19.2583 9.99186 19.2583 9.96338 19.2583C9.93083 19.2583 9.89827 19.2583 9.86572 19.2583V18.3184C9.89421 18.3184 9.92065 18.3184 9.94507 18.3184C9.96948 18.3184 9.99593 18.3184 10.0244 18.3184C10.3825 18.3184 10.6348 18.2451 10.7812 18.0986C10.9318 17.9562 11.0071 17.7039 11.0071 17.3418V10.4204H12.0691V17.3235C12.0691 17.9989 11.9043 18.4893 11.5747 18.7944C11.2492 19.1037 10.7406 19.2583 10.0488 19.2583ZM11.5381 9.15088C11.3387 9.15088 11.1658 9.07967 11.0193 8.93726C10.8769 8.79077 10.8057 8.61784 10.8057 8.41846C10.8057 8.21501 10.8769 8.04207 11.0193 7.89966C11.1658 7.75724 11.3387 7.68604 11.5381 7.68604C11.7415 7.68604 11.9145 7.75724 12.0569 7.89966C12.1993 8.04207 12.2705 8.21501 12.2705 8.41846C12.2705 8.61784 12.1993 8.79077 12.0569 8.93726C11.9145 9.07967 11.7415 9.15088 11.5381 9.15088ZM15.8838 17.116C15.4688 17.116 15.0944 17.0366 14.7607 16.8779C14.4312 16.7192 14.1687 16.4934 13.9734 16.2004C13.7821 15.9075 13.6865 15.5616 13.6865 15.1628V15.1506C13.6865 14.76 13.7801 14.4264 13.9673 14.1497C14.1545 13.8689 14.4271 13.6492 14.7852 13.4905C15.1432 13.3318 15.5766 13.2382 16.0852 13.2097L18.5022 13.0632V13.9116L16.2134 14.0581C15.7129 14.0866 15.3467 14.1903 15.1147 14.3694C14.8869 14.5484 14.7729 14.8007 14.7729 15.1262V15.1384C14.7729 15.4721 14.8991 15.7325 15.1514 15.9197C15.4036 16.1028 15.721 16.1943 16.1035 16.1943C16.4657 16.1943 16.7871 16.1231 17.0679 15.9807C17.3486 15.8342 17.5684 15.6369 17.7271 15.3887C17.8898 15.1405 17.9712 14.8597 17.9712 14.5464V12.4956C17.9712 12.0887 17.8471 11.7795 17.5989 11.5679C17.3547 11.3522 16.9865 11.2444 16.4941 11.2444C16.0994 11.2444 15.776 11.3156 15.5237 11.458C15.2714 11.5964 15.1025 11.7937 15.0171 12.05L15.011 12.0684H13.949L13.9551 12.0317C14.012 11.6859 14.1545 11.3848 14.3823 11.1284C14.6143 10.868 14.9133 10.6666 15.2795 10.5242C15.6458 10.3777 16.0628 10.3044 16.5308 10.3044C17.0679 10.3044 17.5216 10.3919 17.8918 10.5669C18.2662 10.7419 18.549 10.9941 18.7402 11.3237C18.9355 11.6493 19.0332 12.0399 19.0332 12.4956V17H17.9712V16.0295H17.8735C17.7352 16.2615 17.5663 16.4588 17.3669 16.6216C17.1716 16.7843 16.9499 16.9084 16.7017 16.9939C16.4535 17.0753 16.1808 17.116 15.8838 17.116ZM22.5916 17L20.1562 10.4204H21.2793L23.0798 15.8403H23.1775L24.978 10.4204H26.1011L23.6658 17H22.5916ZM29.0674 17.116C28.6523 17.116 28.278 17.0366 27.9443 16.8779C27.6147 16.7192 27.3523 16.4934 27.157 16.2004C26.9657 15.9075 26.8701 15.5616 26.8701 15.1628V15.1506C26.8701 14.76 26.9637 14.4264 27.1509 14.1497C27.3381 13.8689 27.6107 13.6492 27.9688 13.4905C28.3268 13.3318 28.7602 13.2382 29.2688 13.2097L31.6858 13.0632V13.9116L29.397 14.0581C28.8965 14.0866 28.5303 14.1903 28.2983 14.3694C28.0705 14.5484 27.9565 14.8007 27.9565 15.1262V15.1384C27.9565 15.4721 28.0827 15.7325 28.335 15.9197C28.5872 16.1028 28.9046 16.1943 29.2871 16.1943C29.6493 16.1943 29.9707 16.1231 30.2515 15.9807C30.5322 15.8342 30.752 15.6369 30.9106 15.3887C31.0734 15.1405 31.1548 14.8597 31.1548 14.5464V12.4956C31.1548 12.0887 31.0307 11.7795 30.7825 11.5679C30.5383 11.3522 30.1701 11.2444 29.6777 11.2444C29.283 11.2444 28.9596 11.3156 28.7073 11.458C28.455 11.5964 28.2861 11.7937 28.2007 12.05L28.1946 12.0684H27.1326L27.1387 12.0317C27.1956 11.6859 27.3381 11.3848 27.5659 11.1284C27.7979 10.868 28.0969 10.6666 28.4631 10.5242C28.8293 10.3777 29.2464 10.3044 29.7144 10.3044C30.2515 10.3044 30.7052 10.3919 31.0754 10.5669C31.4498 10.7419 31.7326 10.9941 31.9238 11.3237C32.1191 11.6493 32.2168 12.0399 32.2168 12.4956V17H31.1548V16.0295H31.0571C30.9188 16.2615 30.7499 16.4588 30.5505 16.6216C30.3552 16.7843 30.1335 16.9084 29.8853 16.9939C29.637 17.0753 29.3644 17.116 29.0674 17.116ZM36.416 17.116C35.9277 17.116 35.4964 17.0427 35.1221 16.8962C34.7477 16.7457 34.4466 16.5361 34.2188 16.2676C33.995 15.999 33.8627 15.6837 33.822 15.3215H34.9084C34.998 15.5942 35.1729 15.8139 35.4333 15.9807C35.6938 16.1475 36.0335 16.231 36.4526 16.231C36.7497 16.231 37.0101 16.1882 37.2339 16.1028C37.4618 16.0133 37.6408 15.8932 37.771 15.7427C37.9012 15.5881 37.9663 15.4111 37.9663 15.2117V15.1995C37.9663 14.9757 37.8768 14.7865 37.6978 14.6318C37.5187 14.4731 37.2257 14.345 36.8188 14.2473L35.7996 14.0032C35.3886 13.9055 35.0509 13.7794 34.7864 13.6248C34.5219 13.4661 34.3266 13.2728 34.2004 13.0449C34.0743 12.813 34.0112 12.5404 34.0112 12.2271V12.2209C34.0112 11.8547 34.117 11.5272 34.3286 11.2383C34.5443 10.9494 34.8372 10.7215 35.2075 10.5547C35.5778 10.3879 35.9949 10.3044 36.4587 10.3044C36.9185 10.3044 37.3254 10.3777 37.6794 10.5242C38.0375 10.6666 38.3244 10.87 38.54 11.1345C38.7598 11.399 38.894 11.7103 38.9429 12.0684H37.8992C37.83 11.8079 37.6713 11.5964 37.4231 11.4336C37.1749 11.2708 36.8514 11.1895 36.4526 11.1895C36.1922 11.1895 35.9603 11.2322 35.7568 11.3176C35.5534 11.399 35.3927 11.5129 35.2747 11.6594C35.1567 11.8059 35.0977 11.9768 35.0977 12.1721V12.1843C35.0977 12.3308 35.1363 12.461 35.2136 12.575C35.2909 12.6889 35.411 12.7886 35.5737 12.874C35.7365 12.9595 35.946 13.0347 36.2024 13.0999L37.2156 13.344C37.8341 13.4945 38.2939 13.7102 38.595 13.991C38.9001 14.2717 39.0527 14.6481 39.0527 15.1201V15.1323C39.0527 15.5229 38.9368 15.8688 38.7048 16.1699C38.4729 16.467 38.1576 16.6989 37.7588 16.8657C37.3641 17.0326 36.9165 17.116 36.416 17.116ZM43.3923 17.116C42.7779 17.116 42.2449 16.9756 41.7932 16.6948C41.3416 16.4141 40.9916 16.0173 40.7434 15.5046C40.4952 14.9919 40.3711 14.3877 40.3711 13.6919V13.6797C40.3711 12.9961 40.4932 12.402 40.7373 11.8975C40.9855 11.3929 41.3354 11.0023 41.7871 10.7256C42.2388 10.4448 42.7718 10.3044 43.3862 10.3044C43.9193 10.3044 44.3791 10.398 44.7656 10.5852C45.1522 10.7724 45.4614 11.0247 45.6934 11.342C45.9253 11.6554 46.0738 12.0073 46.1389 12.3979L46.145 12.4346H45.0891L45.083 12.4163C45.0016 12.0907 44.8165 11.814 44.5276 11.5862C44.2387 11.3583 43.8582 11.2444 43.3862 11.2444C42.9915 11.2444 42.6497 11.3441 42.3608 11.5435C42.0719 11.7428 41.8481 12.0256 41.6895 12.3918C41.5348 12.754 41.4575 13.1833 41.4575 13.6797V13.6919C41.4575 14.1965 41.5369 14.6359 41.6956 15.0103C41.8542 15.3805 42.078 15.6674 42.3669 15.8708C42.6558 16.0743 42.9956 16.176 43.3862 16.176C43.8298 16.176 44.1919 16.0804 44.4727 15.8892C44.7534 15.6979 44.9548 15.4192 45.0769 15.053L45.0891 15.0164L46.1389 15.0103L46.1267 15.0774C46.0372 15.4721 45.8785 15.8241 45.6506 16.1333C45.4228 16.4385 45.1217 16.6785 44.7473 16.8535C44.373 17.0285 43.9213 17.116 43.3923 17.116ZM47.6953 17V10.4204H48.7573V11.397H48.855C48.9811 11.0511 49.1947 10.7826 49.4958 10.5913C49.797 10.4001 50.1693 10.3044 50.6128 10.3044C50.7145 10.3044 50.8142 10.3105 50.9119 10.3228C51.0136 10.3309 51.0909 10.339 51.1438 10.3472V11.3787C51.0339 11.3583 50.9261 11.3441 50.8203 11.3359C50.7186 11.3237 50.6087 11.3176 50.4907 11.3176C50.153 11.3176 49.8539 11.3848 49.5935 11.519C49.3331 11.6533 49.1276 11.8405 48.9771 12.0806C48.8306 12.3206 48.7573 12.6014 48.7573 12.9229V17H47.6953ZM52.4805 17V10.4204H53.5425V17H52.4805ZM53.0176 9.15088C52.8182 9.15088 52.6453 9.07967 52.4988 8.93726C52.3564 8.79077 52.2852 8.61784 52.2852 8.41846C52.2852 8.21501 52.3564 8.04207 52.4988 7.89966C52.6453 7.75724 52.8182 7.68604 53.0176 7.68604C53.221 7.68604 53.394 7.75724 53.5364 7.89966C53.6788 8.04207 53.75 8.21501 53.75 8.41846C53.75 8.61784 53.6788 8.79077 53.5364 8.93726C53.394 9.07967 53.221 9.15088 53.0176 9.15088ZM55.5444 19.1973V10.4204H56.6064V11.4702H56.7041C56.8384 11.2261 57.0072 11.0186 57.2107 10.8477C57.4141 10.6727 57.6461 10.5384 57.9065 10.4448C58.1669 10.3512 58.4497 10.3044 58.7549 10.3044C59.3123 10.3044 59.7965 10.4469 60.2075 10.7317C60.6226 11.0125 60.944 11.4071 61.1719 11.9158C61.3997 12.4244 61.5137 13.0205 61.5137 13.7041V13.7163C61.5137 14.404 61.3997 15.0021 61.1719 15.5107C60.944 16.0194 60.6226 16.4141 60.2075 16.6948C59.7965 16.9756 59.3123 17.116 58.7549 17.116C58.4538 17.116 58.1689 17.0692 57.9004 16.9756C57.6359 16.8779 57.3999 16.7437 57.1924 16.5728C56.9889 16.4019 56.8262 16.1984 56.7041 15.9624H56.6064V19.1973H55.5444ZM58.5107 16.176C58.9136 16.176 59.2574 16.0784 59.5422 15.8831C59.8271 15.6837 60.0448 15.4009 60.1953 15.0347C60.3499 14.6644 60.4272 14.2249 60.4272 13.7163V13.7041C60.4272 13.1914 60.3499 12.752 60.1953 12.3857C60.0448 12.0195 59.8271 11.7388 59.5422 11.5435C59.2574 11.3441 58.9136 11.2444 58.5107 11.2444C58.112 11.2444 57.7681 11.3441 57.4792 11.5435C57.1903 11.7428 56.9686 12.0256 56.814 12.3918C56.6593 12.7581 56.582 13.1955 56.582 13.7041V13.7163C56.582 14.2209 56.6593 14.6583 56.814 15.0286C56.9686 15.3948 57.1903 15.6776 57.4792 15.877C57.7681 16.0763 58.112 16.176 58.5107 16.176ZM65.5115 17.0488C64.836 17.0488 64.3457 16.9125 64.0405 16.6399C63.7394 16.3673 63.5889 15.9176 63.5889 15.291V11.2993H62.5513V10.4204H63.5889V8.71753H64.6875V10.4204H66.1279V11.2993H64.6875V15.0225C64.6875 15.409 64.7607 15.6877 64.9072 15.8586C65.0537 16.0255 65.2979 16.1089 65.6396 16.1089C65.7332 16.1089 65.8126 16.1069 65.8777 16.1028C65.9469 16.0987 66.0303 16.0926 66.1279 16.0845V16.9878C66.0262 17.0041 65.9245 17.0183 65.8228 17.0305C65.721 17.0427 65.6173 17.0488 65.5115 17.0488Z" fill="#4493F8"/>
</svg>
