<svg width="44" height="26" viewBox="0 0 44 26" fill="none" xmlns="http://www.w3.org/2000/svg">
<rect width="44" height="26" rx="13" fill="#141D2E"/>
<path d="M10.9277 19.2156V10.3289H12.4475V11.3726H12.5513C12.6733 11.1325 12.832 10.927 13.0273 10.7561C13.2267 10.5852 13.4566 10.453 13.717 10.3594C13.9775 10.2658 14.2643 10.219 14.5776 10.219C15.1351 10.219 15.6173 10.3594 16.0242 10.6401C16.4351 10.9209 16.7525 11.3197 16.9763 11.8364C17.2042 12.3491 17.3181 12.9574 17.3181 13.6614V13.6736C17.3181 14.3816 17.2062 14.9919 16.9824 15.5046C16.7586 16.0173 16.4412 16.4141 16.0303 16.6948C15.6234 16.9715 15.1392 17.1099 14.5776 17.1099C14.2725 17.1099 13.9876 17.0631 13.7231 16.9695C13.4587 16.8718 13.2267 16.7355 13.0273 16.5605C12.828 16.3856 12.6693 16.1781 12.5513 15.938H12.4475V19.2156H10.9277ZM14.1016 15.8281C14.4474 15.8281 14.7445 15.7427 14.9927 15.5718C15.2409 15.3968 15.4321 15.1486 15.5664 14.8271C15.7007 14.5016 15.7678 14.1171 15.7678 13.6736V13.6614C15.7678 13.2097 15.7007 12.8232 15.5664 12.5017C15.4321 12.1803 15.2409 11.9341 14.9927 11.7632C14.7445 11.5882 14.4474 11.5007 14.1016 11.5007C13.7557 11.5007 13.4566 11.5882 13.2043 11.7632C12.9561 11.9341 12.7629 12.1803 12.6245 12.5017C12.4902 12.8232 12.4231 13.2077 12.4231 13.6553V13.6675C12.4231 14.1151 12.4902 14.5016 12.6245 14.8271C12.7629 15.1486 12.9582 15.3968 13.2104 15.5718C13.4627 15.7427 13.7598 15.8281 14.1016 15.8281ZM18.9111 17V7.74707H20.4309V11.3542H20.5347C20.6934 10.9921 20.9334 10.7093 21.2549 10.5059C21.5763 10.3024 21.9771 10.2007 22.4573 10.2007C22.9537 10.2007 23.3728 10.2983 23.7146 10.4937C24.0564 10.6849 24.3148 10.9657 24.4897 11.3359C24.6688 11.7062 24.7583 12.1558 24.7583 12.6848V17H23.2385V13.0388C23.2385 12.518 23.1287 12.1274 22.9089 11.8669C22.6933 11.6065 22.3556 11.4763 21.8958 11.4763C21.5946 11.4763 21.3342 11.5435 21.1145 11.6777C20.8948 11.812 20.7259 12.0012 20.6079 12.2454C20.4899 12.4895 20.4309 12.7784 20.4309 13.1121V17H18.9111ZM26.5527 19.2156V10.3289H28.0725V11.3726H28.1763C28.2983 11.1325 28.457 10.927 28.6523 10.7561C28.8517 10.5852 29.0816 10.453 29.342 10.3594C29.6025 10.2658 29.8893 10.219 30.2026 10.219C30.7601 10.219 31.2423 10.3594 31.6492 10.6401C32.0601 10.9209 32.3775 11.3197 32.6013 11.8364C32.8292 12.3491 32.9431 12.9574 32.9431 13.6614V13.6736C32.9431 14.3816 32.8312 14.9919 32.6074 15.5046C32.3836 16.0173 32.0662 16.4141 31.6553 16.6948C31.2484 16.9715 30.7642 17.1099 30.2026 17.1099C29.8975 17.1099 29.6126 17.0631 29.3481 16.9695C29.0837 16.8718 28.8517 16.7355 28.6523 16.5605C28.453 16.3856 28.2943 16.1781 28.1763 15.938H28.0725V19.2156H26.5527ZM29.7266 15.8281C30.0724 15.8281 30.3695 15.7427 30.6177 15.5718C30.8659 15.3968 31.0571 15.1486 31.1914 14.8271C31.3257 14.5016 31.3928 14.1171 31.3928 13.6736V13.6614C31.3928 13.2097 31.3257 12.8232 31.1914 12.5017C31.0571 12.1803 30.8659 11.9341 30.6177 11.7632C30.3695 11.5882 30.0724 11.5007 29.7266 11.5007C29.3807 11.5007 29.0816 11.5882 28.8293 11.7632C28.5811 11.9341 28.3879 12.1803 28.2495 12.5017C28.1152 12.8232 28.0481 13.2077 28.0481 13.6553V13.6675C28.0481 14.1151 28.1152 14.5016 28.2495 14.8271C28.3879 15.1486 28.5832 15.3968 28.8354 15.5718C29.0877 15.7427 29.3848 15.8281 29.7266 15.8281Z" fill="#4493F8"/>
</svg>
