<svg width="43" height="26" viewBox="0 0 43 26" fill="none" xmlns="http://www.w3.org/2000/svg">
    <style>
        .button:hover rect {
        fill: #4493F8;
        }
        .button:hover path {
        fill: #F0F6FC;
        }
    </style>
    <g class="button">
        <rect width="43" height="26" rx="13" fill="#141D2E"/>
        <path d="M10.9888 19.1973V10.4204H12.0508V11.4702H12.1484C12.2827 11.2261 12.4516 11.0186 12.655 10.8477C12.8585 10.6727 13.0904 10.5384 13.3508 10.4448C13.6112 10.3512 13.894 10.3044 14.1992 10.3044C14.7567 10.3044 15.2409 10.4469 15.6519 10.7317C16.0669 11.0125 16.3883 11.4071 16.6162 11.9158C16.8441 12.4244 16.958 13.0205 16.958 13.7041V13.7163C16.958 14.404 16.8441 15.0021 16.6162 15.5107C16.3883 16.0194 16.0669 16.4141 15.6519 16.6948C15.2409 16.9756 14.7567 17.116 14.1992 17.116C13.8981 17.116 13.6133 17.0692 13.3447 16.9756C13.0802 16.8779 12.8442 16.7437 12.6367 16.5728C12.4333 16.4019 12.2705 16.1984 12.1484 15.9624H12.0508V19.1973H10.9888ZM13.9551 16.176C14.3579 16.176 14.7017 16.0784 14.9866 15.8831C15.2714 15.6837 15.4891 15.4009 15.6396 15.0347C15.7943 14.6644 15.8716 14.2249 15.8716 13.7163V13.7041C15.8716 13.1914 15.7943 12.752 15.6396 12.3857C15.4891 12.0195 15.2714 11.7388 14.9866 11.5435C14.7017 11.3441 14.3579 11.2444 13.9551 11.2444C13.5563 11.2444 13.2125 11.3441 12.9236 11.5435C12.6347 11.7428 12.4129 12.0256 12.2583 12.3918C12.1037 12.7581 12.0264 13.1955 12.0264 13.7041V13.7163C12.0264 14.2209 12.1037 14.6583 12.2583 15.0286C12.4129 15.3948 12.6347 15.6776 12.9236 15.877C13.2125 16.0763 13.5563 16.176 13.9551 16.176ZM18.6792 17V7.80811H19.7412V11.4092H19.8389C20.0057 11.0592 20.2458 10.7887 20.5591 10.5974C20.8724 10.4021 21.2712 10.3044 21.7554 10.3044C22.2477 10.3044 22.6648 10.4001 23.0066 10.5913C23.3484 10.7785 23.6088 11.0531 23.7878 11.4153C23.9669 11.7774 24.0564 12.2189 24.0564 12.7397V17H22.9944V12.9961C22.9944 12.402 22.8682 11.9626 22.616 11.6777C22.3678 11.3888 21.9812 11.2444 21.4563 11.2444C21.1064 11.2444 20.8032 11.3197 20.5469 11.4702C20.2905 11.6208 20.0911 11.8344 19.9487 12.1111C19.8104 12.3878 19.7412 12.7194 19.7412 13.106V17H18.6792ZM25.979 19.1973V10.4204H27.041V11.4702H27.1387C27.2729 11.2261 27.4418 11.0186 27.6453 10.8477C27.8487 10.6727 28.0806 10.5384 28.3411 10.4448C28.6015 10.3512 28.8843 10.3044 29.1895 10.3044C29.7469 10.3044 30.2311 10.4469 30.6421 10.7317C31.0571 11.0125 31.3786 11.4071 31.6064 11.9158C31.8343 12.4244 31.9482 13.0205 31.9482 13.7041V13.7163C31.9482 14.404 31.8343 15.0021 31.6064 15.5107C31.3786 16.0194 31.0571 16.4141 30.6421 16.6948C30.2311 16.9756 29.7469 17.116 29.1895 17.116C28.8883 17.116 28.6035 17.0692 28.335 16.9756C28.0705 16.8779 27.8345 16.7437 27.627 16.5728C27.4235 16.4019 27.2607 16.1984 27.1387 15.9624H27.041V19.1973H25.979ZM28.9453 16.176C29.3481 16.176 29.692 16.0784 29.9768 15.8831C30.2616 15.6837 30.4793 15.4009 30.6299 15.0347C30.7845 14.6644 30.8618 14.2249 30.8618 13.7163V13.7041C30.8618 13.1914 30.7845 12.752 30.6299 12.3857C30.4793 12.0195 30.2616 11.7388 29.9768 11.5435C29.692 11.3441 29.3481 11.2444 28.9453 11.2444C28.5465 11.2444 28.2027 11.3441 27.9138 11.5435C27.6249 11.7428 27.4032 12.0256 27.2485 12.3918C27.0939 12.7581 27.0166 13.1955 27.0166 13.7041V13.7163C27.0166 14.2209 27.0939 14.6583 27.2485 15.0286C27.4032 15.3948 27.6249 15.6776 27.9138 15.877C28.2027 16.0763 28.5465 16.176 28.9453 16.176Z" fill="#4493F8"/>
    </g>
</svg>