<svg width="44" height="26" viewBox="0 0 44 26" fill="none" xmlns="http://www.w3.org/2000/svg">
<rect width="44" height="26" rx="13" fill="#141D2E"/>
<path d="M10.9521 19.2095V10.3716H12.2766V11.4153H12.3804C12.5065 11.1711 12.6693 10.9636 12.8687 10.7927C13.0721 10.6218 13.304 10.4896 13.5645 10.396C13.8249 10.3024 14.1097 10.2556 14.4189 10.2556C14.9764 10.2556 15.4606 10.398 15.8716 10.6829C16.2826 10.9636 16.5999 11.3604 16.8237 11.873C17.0516 12.3817 17.1655 12.9839 17.1655 13.6797V13.6919C17.1655 14.3918 17.0536 14.998 16.8298 15.5107C16.606 16.0194 16.2887 16.4141 15.8777 16.6948C15.4667 16.9715 14.9805 17.1099 14.4189 17.1099C14.1138 17.1099 13.8289 17.0631 13.5645 16.9695C13.3 16.8718 13.066 16.7375 12.8625 16.5667C12.6591 16.3958 12.4984 16.1903 12.3804 15.9502H12.2766V19.2095H10.9521ZM14.0405 15.9746C14.4108 15.9746 14.7282 15.8831 14.9927 15.7C15.2572 15.5168 15.4586 15.2544 15.5969 14.9126C15.7393 14.5708 15.8105 14.1639 15.8105 13.6919V13.6797C15.8105 13.2036 15.7393 12.7947 15.5969 12.4529C15.4586 12.1111 15.2572 11.8486 14.9927 11.6655C14.7282 11.4824 14.4108 11.3909 14.0405 11.3909C13.6743 11.3909 13.3569 11.4845 13.0884 11.6716C12.8198 11.8547 12.6143 12.1172 12.4719 12.459C12.3295 12.7967 12.2583 13.2036 12.2583 13.6797V13.6919C12.2583 14.1598 12.3295 14.5647 12.4719 14.9065C12.6143 15.2483 12.8198 15.5128 13.0884 15.7C13.3569 15.8831 13.6743 15.9746 14.0405 15.9746ZM18.8135 17V7.77148H20.1379V11.3726H20.2417C20.4045 11.0186 20.6445 10.7419 20.9619 10.5425C21.2793 10.3431 21.6801 10.2434 22.1643 10.2434C22.6567 10.2434 23.0737 10.339 23.4155 10.5303C23.7573 10.7215 24.0177 11.0023 24.1968 11.3726C24.3758 11.7388 24.4653 12.1843 24.4653 12.7092V17H23.1348V13.0205C23.1348 12.4671 23.0188 12.0562 22.7869 11.7876C22.559 11.515 22.2009 11.3787 21.7126 11.3787C21.3912 11.3787 21.1125 11.4499 20.8765 11.5923C20.6405 11.7306 20.4574 11.93 20.3271 12.1904C20.201 12.4468 20.1379 12.754 20.1379 13.1121V17H18.8135ZM26.3086 19.2095V10.3716H27.6331V11.4153H27.7368C27.863 11.1711 28.0257 10.9636 28.2251 10.7927C28.4285 10.6218 28.6605 10.4896 28.9209 10.396C29.1813 10.3024 29.4661 10.2556 29.7754 10.2556C30.3328 10.2556 30.8171 10.398 31.228 10.6829C31.639 10.9636 31.9564 11.3604 32.1802 11.873C32.408 12.3817 32.522 12.9839 32.522 13.6797V13.6919C32.522 14.3918 32.4101 14.998 32.1863 15.5107C31.9625 16.0194 31.6451 16.4141 31.2341 16.6948C30.8232 16.9715 30.3369 17.1099 29.7754 17.1099C29.4702 17.1099 29.1854 17.0631 28.9209 16.9695C28.6564 16.8718 28.4224 16.7375 28.219 16.5667C28.0155 16.3958 27.8548 16.1903 27.7368 15.9502H27.6331V19.2095H26.3086ZM29.397 15.9746C29.7673 15.9746 30.0846 15.8831 30.3491 15.7C30.6136 15.5168 30.815 15.2544 30.9534 14.9126C31.0958 14.5708 31.167 14.1639 31.167 13.6919V13.6797C31.167 13.2036 31.0958 12.7947 30.9534 12.4529C30.815 12.1111 30.6136 11.8486 30.3491 11.6655C30.0846 11.4824 29.7673 11.3909 29.397 11.3909C29.0308 11.3909 28.7134 11.4845 28.4448 11.6716C28.1763 11.8547 27.9708 12.1172 27.8284 12.459C27.686 12.7967 27.6147 13.2036 27.6147 13.6797V13.6919C27.6147 14.1598 27.686 14.5647 27.8284 14.9065C27.9708 15.2483 28.1763 15.5128 28.4448 15.7C28.7134 15.8831 29.0308 15.9746 29.397 15.9746Z" fill="#4493F8"/>
</svg>
