<svg width="52" height="26" viewBox="0 0 52 26" fill="none" xmlns="http://www.w3.org/2000/svg">
<rect width="52" height="26" rx="13" fill="#141D2E"/>
<path d="M10.9521 17V10.3716H12.2766V11.3726H12.3804C12.4984 11.0186 12.7059 10.7439 13.0029 10.5486C13.304 10.3533 13.6743 10.2556 14.1138 10.2556C14.2236 10.2556 14.3315 10.2617 14.4373 10.2739C14.5431 10.2861 14.6285 10.3004 14.6936 10.3167V11.5374C14.5756 11.5129 14.4576 11.4946 14.3396 11.4824C14.2257 11.4702 14.1056 11.4641 13.9795 11.4641C13.6418 11.4641 13.3447 11.5292 13.0884 11.6594C12.8361 11.7896 12.6367 11.9727 12.4902 12.2087C12.3478 12.4407 12.2766 12.7174 12.2766 13.0388V17H10.9521ZM18.5815 17.1282C17.9346 17.1282 17.3792 16.9898 16.9153 16.7131C16.4514 16.4324 16.0933 16.0356 15.8411 15.5229C15.5929 15.0103 15.4688 14.404 15.4688 13.7041V13.698C15.4688 13.0063 15.5929 12.402 15.8411 11.8853C16.0933 11.3685 16.4473 10.9657 16.9031 10.6768C17.3629 10.3879 17.9 10.2434 18.5144 10.2434C19.1329 10.2434 19.6639 10.3818 20.1074 10.6584C20.555 10.9351 20.8988 11.3237 21.1389 11.8242C21.379 12.3206 21.499 12.9025 21.499 13.5698V14.0337H16.1401V13.0876H20.8398L20.2051 13.9666V13.4355C20.2051 12.9635 20.1318 12.5729 19.9854 12.2637C19.8429 11.9504 19.6456 11.7164 19.3933 11.5618C19.141 11.4071 18.8501 11.3298 18.5205 11.3298C18.1909 11.3298 17.8959 11.4112 17.6355 11.574C17.3792 11.7327 17.1757 11.9687 17.0251 12.282C16.8787 12.5953 16.8054 12.9798 16.8054 13.4355V13.9666C16.8054 14.4019 16.8787 14.7743 17.0251 15.0835C17.1716 15.3927 17.3792 15.6287 17.6477 15.7915C17.9203 15.9543 18.2418 16.0356 18.6121 16.0356C18.8969 16.0356 19.141 15.997 19.3445 15.9197C19.552 15.8383 19.7209 15.7386 19.8511 15.6206C19.9854 15.5026 20.0769 15.3866 20.1257 15.2727L20.1501 15.2239H21.4319L21.4197 15.2788C21.3627 15.4985 21.263 15.7183 21.1206 15.938C20.9782 16.1536 20.789 16.351 20.553 16.53C20.321 16.7091 20.0403 16.8535 19.7107 16.9634C19.3852 17.0732 19.0088 17.1282 18.5815 17.1282ZM24.8926 17.1099C24.4735 17.1099 24.0971 17.0305 23.7634 16.8718C23.4338 16.7091 23.1734 16.4792 22.9822 16.1821C22.7909 15.8851 22.6953 15.5372 22.6953 15.1384V15.1262C22.6953 14.7275 22.7909 14.3877 22.9822 14.1069C23.1775 13.8262 23.4583 13.6064 23.8245 13.4478C24.1947 13.285 24.6423 13.1873 25.1672 13.1548L27.6147 13.0083V13.9421L25.3503 14.0886C24.8946 14.1171 24.5589 14.2148 24.3433 14.3816C24.1276 14.5444 24.0198 14.7743 24.0198 15.0713V15.0835C24.0198 15.3846 24.1357 15.6226 24.3677 15.7976C24.5996 15.9685 24.8926 16.054 25.2466 16.054C25.5762 16.054 25.8691 15.9889 26.1255 15.8586C26.3859 15.7244 26.5894 15.5453 26.7358 15.3215C26.8823 15.0937 26.9556 14.8373 26.9556 14.5525V12.4651C26.9556 12.0989 26.8416 11.8201 26.6138 11.6289C26.39 11.4336 26.0563 11.3359 25.6128 11.3359C25.2425 11.3359 24.9394 11.401 24.7034 11.5312C24.4714 11.6615 24.3168 11.8446 24.2395 12.0806L24.2273 12.0989H22.9517L22.9578 12.0562C23.0107 11.6899 23.1551 11.3726 23.3911 11.104C23.6312 10.8314 23.9445 10.6198 24.3311 10.4692C24.7217 10.3187 25.1672 10.2434 25.6677 10.2434C26.2252 10.2434 26.6972 10.3329 27.0837 10.512C27.4744 10.6869 27.7694 10.9412 27.9688 11.2749C28.1722 11.6045 28.2739 12.0012 28.2739 12.4651V17H26.9556V16.0601H26.8579C26.7277 16.2839 26.5649 16.4751 26.3696 16.6338C26.1743 16.7884 25.9526 16.9064 25.7043 16.9878C25.4561 17.0692 25.1855 17.1099 24.8926 17.1099ZM32.9309 17.1282C32.288 17.1282 31.7326 16.9898 31.2646 16.7131C30.8008 16.4324 30.4427 16.0336 30.1904 15.5168C29.9382 15.0001 29.812 14.3836 29.812 13.6675V13.6553C29.812 12.9513 29.9361 12.3451 30.1843 11.8364C30.4366 11.3278 30.7947 10.9351 31.2585 10.6584C31.7265 10.3818 32.2819 10.2434 32.9248 10.2434C33.4823 10.2434 33.9604 10.3411 34.3591 10.5364C34.762 10.7276 35.0814 10.9921 35.3174 11.3298C35.5575 11.6635 35.708 12.0439 35.769 12.4712L35.7751 12.5017H34.4995L34.4934 12.4895C34.4202 12.164 34.2513 11.8934 33.9868 11.6777C33.7223 11.458 33.3704 11.3481 32.9309 11.3481C32.5647 11.3481 32.2493 11.4417 31.9849 11.6289C31.7204 11.812 31.5169 12.0765 31.3745 12.4224C31.2362 12.7682 31.167 13.1792 31.167 13.6553V13.6675C31.167 14.1558 31.2382 14.5749 31.3806 14.9248C31.523 15.2747 31.7265 15.5453 31.991 15.7366C32.2555 15.9237 32.5688 16.0173 32.9309 16.0173C33.3459 16.0173 33.6816 15.9258 33.938 15.7427C34.1984 15.5596 34.3815 15.289 34.4873 14.9309L34.4995 14.9004L35.769 14.8943L35.7568 14.9492C35.6795 15.3805 35.5229 15.759 35.2869 16.0845C35.0509 16.41 34.7355 16.6663 34.3408 16.8535C33.9502 17.0366 33.4802 17.1282 32.9309 17.1282ZM39.8706 17.0427C39.1463 17.0427 38.6214 16.9044 38.2959 16.6277C37.9744 16.3469 37.8137 15.8892 37.8137 15.2544V11.4153H36.7761V10.3716H37.8137V8.69922H39.1687V10.3716H40.5908V11.4153H39.1687V14.9309C39.1687 15.289 39.2399 15.5474 39.3823 15.7061C39.5247 15.8607 39.7607 15.938 40.0903 15.938C40.188 15.938 40.2714 15.936 40.3406 15.9319C40.4138 15.9278 40.4972 15.9217 40.5908 15.9136V16.9756C40.485 16.9919 40.3711 17.0061 40.249 17.0183C40.127 17.0346 40.0008 17.0427 39.8706 17.0427Z" fill="#4493F8"/>
</svg>
