<svg width="51" height="26" viewBox="0 0 51 26" fill="none" xmlns="http://www.w3.org/2000/svg">
<rect width="51" height="26" rx="13" fill="#141D2E"/>
<path d="M10.9888 17V10.4204H12.0508V11.397H12.1484C12.2746 11.0511 12.4882 10.7826 12.7893 10.5913C13.0904 10.4001 13.4627 10.3044 13.9062 10.3044C14.008 10.3044 14.1077 10.3105 14.2053 10.3228C14.307 10.3309 14.3844 10.339 14.4373 10.3472V11.3787C14.3274 11.3583 14.2196 11.3441 14.1138 11.3359C14.012 11.3237 13.9022 11.3176 13.7842 11.3176C13.4465 11.3176 13.1474 11.3848 12.887 11.519C12.6265 11.6533 12.4211 11.8405 12.2705 12.0806C12.124 12.3206 12.0508 12.6014 12.0508 12.9229V17H10.9888ZM18.252 17.116C17.6253 17.116 17.0862 16.9776 16.6345 16.7009C16.1869 16.4242 15.8411 16.0336 15.5969 15.5291C15.3569 15.0204 15.2368 14.4223 15.2368 13.7346V13.7285C15.2368 13.049 15.3569 12.4529 15.5969 11.9402C15.8411 11.4275 16.1849 11.0267 16.6284 10.7378C17.0719 10.4489 17.5907 10.3044 18.1848 10.3044C18.783 10.3044 19.2957 10.4428 19.7229 10.7195C20.1542 10.9962 20.4838 11.3827 20.7117 11.8792C20.9436 12.3715 21.0596 12.9452 21.0596 13.6003V14.0154H15.7861V13.167H20.5164L19.9915 13.9421V13.521C19.9915 13.0042 19.9141 12.579 19.7595 12.2454C19.6049 11.9117 19.3913 11.6635 19.1187 11.5007C18.846 11.3339 18.5327 11.2505 18.1787 11.2505C17.8247 11.2505 17.5073 11.338 17.2266 11.5129C16.9499 11.6838 16.7301 11.9382 16.5674 12.2759C16.4046 12.6136 16.3232 13.0286 16.3232 13.521V13.9421C16.3232 14.4101 16.4026 14.8109 16.5613 15.1445C16.72 15.4741 16.9458 15.7284 17.2388 15.9075C17.5317 16.0824 17.8776 16.1699 18.2764 16.1699C18.5734 16.1699 18.8318 16.1292 19.0515 16.0479C19.2712 15.9665 19.4523 15.8627 19.5947 15.7366C19.7371 15.6104 19.8368 15.4823 19.8938 15.3521L19.9182 15.2971H20.9802L20.968 15.3459C20.9111 15.5697 20.8093 15.7874 20.6628 15.999C20.5204 16.2065 20.3353 16.3958 20.1074 16.5667C19.8796 16.7335 19.609 16.8678 19.2957 16.9695C18.9864 17.0671 18.6385 17.116 18.252 17.116ZM24.5142 17.116C24.0991 17.116 23.7248 17.0366 23.3911 16.8779C23.0615 16.7192 22.7991 16.4934 22.6038 16.2004C22.4125 15.9075 22.3169 15.5616 22.3169 15.1628V15.1506C22.3169 14.76 22.4105 14.4264 22.5977 14.1497C22.7848 13.8689 23.0575 13.6492 23.4155 13.4905C23.7736 13.3318 24.2069 13.2382 24.7156 13.2097L27.1326 13.0632V13.9116L24.8438 14.0581C24.3433 14.0866 23.9771 14.1903 23.7451 14.3694C23.5173 14.5484 23.4033 14.8007 23.4033 15.1262V15.1384C23.4033 15.4721 23.5295 15.7325 23.7817 15.9197C24.034 16.1028 24.3514 16.1943 24.7339 16.1943C25.096 16.1943 25.4175 16.1231 25.6982 15.9807C25.979 15.8342 26.1987 15.6369 26.3574 15.3887C26.5202 15.1405 26.6016 14.8597 26.6016 14.5464V12.4956C26.6016 12.0887 26.4775 11.7795 26.2292 11.5679C25.9851 11.3522 25.6169 11.2444 25.1245 11.2444C24.7298 11.2444 24.4063 11.3156 24.1541 11.458C23.9018 11.5964 23.7329 11.7937 23.6475 12.05L23.6414 12.0684H22.5793L22.5854 12.0317C22.6424 11.6859 22.7848 11.3848 23.0127 11.1284C23.2446 10.868 23.5437 10.6666 23.9099 10.5242C24.2761 10.3777 24.6932 10.3044 25.1611 10.3044C25.6982 10.3044 26.1519 10.3919 26.5222 10.5669C26.8966 10.7419 27.1794 10.9941 27.3706 11.3237C27.5659 11.6493 27.6636 12.0399 27.6636 12.4956V17H26.6016V16.0295H26.5039C26.3656 16.2615 26.1967 16.4588 25.9973 16.6216C25.802 16.7843 25.5802 16.9084 25.332 16.9939C25.0838 17.0753 24.8112 17.116 24.5142 17.116ZM32.2961 17.116C31.6817 17.116 31.1487 16.9756 30.697 16.6948C30.2454 16.4141 29.8954 16.0173 29.6472 15.5046C29.399 14.9919 29.2749 14.3877 29.2749 13.6919V13.6797C29.2749 12.9961 29.397 12.402 29.6411 11.8975C29.8893 11.3929 30.2393 11.0023 30.6909 10.7256C31.1426 10.4448 31.6756 10.3044 32.29 10.3044C32.8231 10.3044 33.2829 10.398 33.6694 10.5852C34.056 10.7724 34.3652 11.0247 34.5972 11.342C34.8291 11.6554 34.9776 12.0073 35.0427 12.3979L35.0488 12.4346H33.9929L33.9868 12.4163C33.9054 12.0907 33.7203 11.814 33.4314 11.5862C33.1425 11.3583 32.762 11.2444 32.29 11.2444C31.8953 11.2444 31.5535 11.3441 31.2646 11.5435C30.9757 11.7428 30.752 12.0256 30.5933 12.3918C30.4386 12.754 30.3613 13.1833 30.3613 13.6797V13.6919C30.3613 14.1965 30.4407 14.6359 30.5994 15.0103C30.7581 15.3805 30.9819 15.6674 31.2708 15.8708C31.5597 16.0743 31.8994 16.176 32.29 16.176C32.7336 16.176 33.0957 16.0804 33.3765 15.8892C33.6572 15.6979 33.8586 15.4192 33.9807 15.053L33.9929 15.0164L35.0427 15.0103L35.0305 15.0774C34.941 15.4721 34.7823 15.8241 34.5544 16.1333C34.3266 16.4385 34.0255 16.6785 33.6511 16.8535C33.2768 17.0285 32.8251 17.116 32.2961 17.116ZM39.0588 17.0488C38.3834 17.0488 37.8931 16.9125 37.5879 16.6399C37.2868 16.3673 37.1362 15.9176 37.1362 15.291V11.2993H36.0986V10.4204H37.1362V8.71753H38.2349V10.4204H39.6753V11.2993H38.2349V15.0225C38.2349 15.409 38.3081 15.6877 38.4546 15.8586C38.6011 16.0255 38.8452 16.1089 39.187 16.1089C39.2806 16.1089 39.3599 16.1069 39.425 16.1028C39.4942 16.0987 39.5776 16.0926 39.6753 16.0845V16.9878C39.5736 17.0041 39.4718 17.0183 39.3701 17.0305C39.2684 17.0427 39.1646 17.0488 39.0588 17.0488Z" fill="#4493F8"/>
</svg>
