<svg width="52" height="26" viewBox="0 0 52 26" fill="none" xmlns="http://www.w3.org/2000/svg">
<rect width="52" height="26" rx="13" fill="#141D2E"/>
<path d="M10.9277 17V10.3289H12.4475V11.3542H12.5513C12.6652 10.9962 12.8687 10.7174 13.1616 10.5181C13.4587 10.3187 13.8269 10.219 14.2664 10.219C14.3803 10.219 14.4922 10.2271 14.6021 10.2434C14.716 10.2556 14.8096 10.2719 14.8828 10.2922V11.6533C14.7607 11.6248 14.6366 11.6045 14.5105 11.5923C14.3884 11.576 14.2603 11.5679 14.126 11.5679C13.7882 11.5679 13.4932 11.6309 13.241 11.7571C12.9887 11.8832 12.7934 12.0643 12.655 12.3003C12.5167 12.5322 12.4475 12.8069 12.4475 13.1243V17H10.9277ZM18.8135 17.1343C18.1502 17.1343 17.5806 16.9939 17.1045 16.7131C16.6325 16.4324 16.2683 16.0336 16.012 15.5168C15.7556 15.0001 15.6274 14.3877 15.6274 13.6797V13.6736C15.6274 12.9737 15.7536 12.3634 16.0059 11.8425C16.2622 11.3217 16.6243 10.9189 17.0923 10.634C17.5602 10.3451 18.1095 10.2007 18.7402 10.2007C19.375 10.2007 19.9202 10.3411 20.376 10.6218C20.8358 10.8985 21.1898 11.2871 21.438 11.7876C21.6862 12.2881 21.8103 12.874 21.8103 13.5454V14.0459H16.3904V13.0266H21.0657L20.3455 13.9788V13.3745C20.3455 12.931 20.2783 12.5627 20.144 12.2698C20.0098 11.9768 19.8226 11.7571 19.5825 11.6106C19.3465 11.4641 19.0719 11.3909 18.7585 11.3909C18.4452 11.3909 18.1665 11.4682 17.9224 11.6228C17.6823 11.7734 17.491 11.9972 17.3486 12.2942C17.2103 12.5872 17.1411 12.9473 17.1411 13.3745V13.9849C17.1411 14.3958 17.2103 14.7478 17.3486 15.0408C17.487 15.3297 17.6823 15.5535 17.9346 15.7122C18.1909 15.8668 18.4941 15.9441 18.844 15.9441C19.1166 15.9441 19.3506 15.9054 19.5459 15.8281C19.7453 15.7467 19.906 15.6511 20.0281 15.5413C20.1501 15.4273 20.2356 15.3195 20.2844 15.2178L20.3027 15.175H21.7432L21.731 15.23C21.6781 15.4456 21.5804 15.6654 21.438 15.8892C21.2996 16.1089 21.1104 16.3144 20.8704 16.5056C20.6344 16.6928 20.3455 16.8454 20.0037 16.9634C19.6619 17.0773 19.2651 17.1343 18.8135 17.1343ZM25.1489 17.1099C24.7298 17.1099 24.3534 17.0285 24.0198 16.8657C23.6902 16.703 23.4298 16.4731 23.2385 16.176C23.0514 15.8749 22.9578 15.5209 22.9578 15.114V15.1018C22.9578 14.7071 23.0554 14.3674 23.2507 14.0825C23.446 13.7936 23.7329 13.5678 24.1113 13.405C24.4897 13.2423 24.9495 13.1466 25.4907 13.1182L27.9565 12.9656V13.9666L25.7043 14.113C25.2771 14.1375 24.9618 14.227 24.7583 14.3816C24.5549 14.5362 24.4531 14.7519 24.4531 15.0286V15.0408C24.4531 15.3256 24.561 15.5474 24.7766 15.7061C24.9963 15.8647 25.2751 15.9441 25.6128 15.9441C25.918 15.9441 26.1906 15.8831 26.4307 15.761C26.6707 15.6389 26.8599 15.4741 26.9983 15.2666C27.1366 15.055 27.2058 14.817 27.2058 14.5525V12.4407C27.2058 12.107 27.1 11.8527 26.8884 11.6777C26.6768 11.4987 26.3635 11.4092 25.9485 11.4092C25.6026 11.4092 25.3198 11.4702 25.1001 11.5923C24.8804 11.7103 24.7319 11.8792 24.6545 12.0989L24.6484 12.1233H23.2141L23.2202 12.0684C23.269 11.694 23.4155 11.3665 23.6597 11.0857C23.9038 10.8049 24.2273 10.5872 24.6301 10.4326C25.033 10.278 25.4968 10.2007 26.0217 10.2007C26.5995 10.2007 27.0878 10.2902 27.4866 10.4692C27.8853 10.6442 28.1885 10.9006 28.396 11.2383C28.6035 11.5719 28.7073 11.9727 28.7073 12.4407V17H27.2058V16.0845H27.1021C26.98 16.2961 26.8213 16.4792 26.626 16.6338C26.4347 16.7884 26.215 16.9064 25.9668 16.9878C25.7186 17.0692 25.446 17.1099 25.1489 17.1099ZM33.3948 17.1343C32.7234 17.1343 32.1497 16.9959 31.6736 16.7192C31.1975 16.4425 30.8333 16.0438 30.5811 15.5229C30.3288 15.0021 30.2026 14.3796 30.2026 13.6553V13.6431C30.2026 12.9229 30.3288 12.3064 30.5811 11.7937C30.8333 11.281 31.1975 10.8883 31.6736 10.6157C32.1497 10.339 32.7214 10.2007 33.3887 10.2007C33.9624 10.2007 34.4548 10.3004 34.8657 10.4998C35.2808 10.6951 35.6083 10.9677 35.8484 11.3176C36.0925 11.6635 36.2431 12.0684 36.3 12.5322V12.5566H34.8657L34.8596 12.5383C34.7904 12.2128 34.6318 11.9463 34.3835 11.7388C34.1394 11.5312 33.8098 11.4275 33.3948 11.4275C33.0489 11.4275 32.7519 11.515 32.5037 11.6899C32.2595 11.8649 32.0723 12.1172 31.9421 12.4468C31.8119 12.7764 31.7468 13.1751 31.7468 13.6431V13.6553C31.7468 14.1273 31.8119 14.5321 31.9421 14.8699C32.0764 15.2035 32.2656 15.4599 32.5098 15.6389C32.7539 15.8139 33.0489 15.9014 33.3948 15.9014C33.7895 15.9014 34.1069 15.8118 34.3469 15.6328C34.5911 15.4538 34.7599 15.1893 34.8535 14.8394L34.8657 14.8149L36.2939 14.8088L36.2878 14.8638C36.2146 15.3154 36.0559 15.7122 35.8118 16.054C35.5717 16.3958 35.2502 16.6623 34.8474 16.8535C34.4446 17.0407 33.9604 17.1343 33.3948 17.1343ZM40.4565 17.0305C39.6916 17.0305 39.1402 16.8901 38.8025 16.6094C38.4648 16.3286 38.2959 15.8688 38.2959 15.23V11.5068H37.2583V10.3289H38.2959V8.69312H39.8401V10.3289H41.2439V11.5068H39.8401V14.8699C39.8401 15.1995 39.9093 15.4416 40.0476 15.5962C40.19 15.7467 40.4179 15.822 40.7312 15.822C40.8411 15.822 40.9306 15.82 40.9998 15.8159C41.073 15.8078 41.1544 15.7996 41.2439 15.7915V16.9634C41.1381 16.9837 41.016 17 40.8777 17.0122C40.7434 17.0244 40.603 17.0305 40.4565 17.0305Z" fill="#4493F8"/>
</svg>
