<svg width="39" height="26" viewBox="0 0 39 26" fill="none" xmlns="http://www.w3.org/2000/svg">
<rect width="39" height="26" rx="13" fill="#141D2E"/>
<path d="M13.4485 17.1343C12.8829 17.1343 12.3946 17.0549 11.9836 16.8962C11.5767 16.7335 11.2553 16.5097 11.0193 16.2249C10.7833 15.936 10.6429 15.6023 10.5981 15.2239V15.2117H12.1057L12.1118 15.2239C12.1932 15.4558 12.3458 15.645 12.5696 15.7915C12.7934 15.938 13.0945 16.0112 13.4729 16.0112C13.7252 16.0112 13.9469 15.9766 14.1382 15.9075C14.3294 15.8342 14.48 15.7345 14.5898 15.6084C14.6997 15.4823 14.7546 15.3358 14.7546 15.1689V15.1567C14.7546 14.9614 14.6753 14.7987 14.5166 14.6685C14.3579 14.5342 14.0955 14.4264 13.7292 14.345L12.6489 14.1008C12.2257 14.0072 11.8758 13.877 11.5991 13.7102C11.3224 13.5434 11.1149 13.3379 10.9766 13.0938C10.8423 12.8496 10.7751 12.5648 10.7751 12.2393V12.2332C10.7751 11.8303 10.887 11.4763 11.1108 11.1711C11.3387 10.866 11.6541 10.6279 12.0569 10.457C12.4597 10.2861 12.9236 10.2007 13.4485 10.2007C13.9897 10.2007 14.4556 10.2821 14.8462 10.4448C15.2368 10.6076 15.542 10.8314 15.7617 11.1162C15.9814 11.401 16.1076 11.7245 16.1401 12.0867V12.0989H14.7119L14.7058 12.0806C14.6488 11.869 14.5125 11.6899 14.2969 11.5435C14.0853 11.3929 13.8005 11.3176 13.4424 11.3176C13.2186 11.3176 13.0172 11.3522 12.8381 11.4214C12.6632 11.4906 12.5248 11.5882 12.4231 11.7144C12.3254 11.8364 12.2766 11.9809 12.2766 12.1477V12.1538C12.2766 12.284 12.3092 12.3979 12.3743 12.4956C12.4434 12.5933 12.5513 12.6787 12.6978 12.752C12.8442 12.8252 13.0375 12.8903 13.2776 12.9473L14.3579 13.1853C15.013 13.3318 15.4972 13.5495 15.8105 13.8384C16.1239 14.1273 16.2805 14.5159 16.2805 15.0042V15.0164C16.2805 15.4395 16.1584 15.8098 15.9143 16.1272C15.6702 16.4446 15.3345 16.6928 14.9072 16.8718C14.48 17.0468 13.9937 17.1343 13.4485 17.1343ZM22.3657 19.2156V15.9868H22.262C22.148 16.2228 21.9914 16.4242 21.792 16.5911C21.5967 16.7579 21.3647 16.8861 21.0962 16.9756C20.8317 17.0651 20.5408 17.1099 20.2234 17.1099C19.6659 17.1099 19.1817 16.9715 18.7708 16.6948C18.3598 16.4141 18.0424 16.0153 17.8186 15.4985C17.5989 14.9818 17.489 14.3735 17.489 13.6736V13.6614C17.489 12.9534 17.5989 12.343 17.8186 11.8303C18.0424 11.3136 18.3598 10.9168 18.7708 10.6401C19.1858 10.3594 19.6761 10.219 20.2417 10.219C20.5428 10.219 20.8236 10.2678 21.084 10.3655C21.3485 10.4631 21.5824 10.6035 21.7859 10.7866C21.9934 10.9657 22.1602 11.1813 22.2864 11.4336H22.3657V10.3289H23.8855V19.2156H22.3657ZM20.7117 15.8281C21.0535 15.8281 21.3485 15.7406 21.5967 15.5657C21.849 15.3907 22.0443 15.1425 22.1826 14.821C22.321 14.4955 22.3901 14.113 22.3901 13.6736V13.6614C22.3901 13.2179 22.321 12.8354 22.1826 12.5139C22.0443 12.1884 21.849 11.9382 21.5967 11.7632C21.3485 11.5882 21.0514 11.5007 20.7056 11.5007C20.3638 11.5007 20.0667 11.5882 19.8145 11.7632C19.5622 11.9341 19.3689 12.1823 19.2346 12.5078C19.1003 12.8293 19.0332 13.2138 19.0332 13.6614V13.6736C19.0332 14.1212 19.1003 14.5057 19.2346 14.8271C19.373 15.1486 19.5662 15.3968 19.8145 15.5718C20.0627 15.7427 20.3617 15.8281 20.7117 15.8281ZM25.7959 17V7.74707H27.3157V17H25.7959Z" fill="#4493F8"/>
</svg>
