<svg width="86" height="26" viewBox="0 0 86 26" fill="none" xmlns="http://www.w3.org/2000/svg">
<rect width="86" height="26" rx="13" fill="#141D2E"/>
<path d="M13.3264 17.0488C12.651 17.0488 12.1606 16.9125 11.8555 16.6399C11.5544 16.3673 11.4038 15.9176 11.4038 15.291V11.2993H10.3662V10.4204H11.4038V8.71753H12.5024V10.4204H13.9429V11.2993H12.5024V15.0225C12.5024 15.409 12.5757 15.6877 12.7222 15.8586C12.8687 16.0255 13.1128 16.1089 13.4546 16.1089C13.5482 16.1089 13.6275 16.1069 13.6926 16.1028C13.7618 16.0987 13.8452 16.0926 13.9429 16.0845V16.9878C13.8411 17.0041 13.7394 17.0183 13.6377 17.0305C13.536 17.0427 13.4322 17.0488 13.3264 17.0488ZM17.3364 17.116C16.9214 17.116 16.547 17.0366 16.2134 16.8779C15.8838 16.7192 15.6213 16.4934 15.426 16.2004C15.2348 15.9075 15.1392 15.5616 15.1392 15.1628V15.1506C15.1392 14.76 15.2327 14.4264 15.4199 14.1497C15.6071 13.8689 15.8797 13.6492 16.2378 13.4905C16.5959 13.3318 17.0292 13.2382 17.5378 13.2097L19.9548 13.0632V13.9116L17.666 14.0581C17.1655 14.0866 16.7993 14.1903 16.5674 14.3694C16.3395 14.5484 16.2256 14.8007 16.2256 15.1262V15.1384C16.2256 15.4721 16.3517 15.7325 16.604 15.9197C16.8563 16.1028 17.1737 16.1943 17.5562 16.1943C17.9183 16.1943 18.2397 16.1231 18.5205 15.9807C18.8013 15.8342 19.021 15.6369 19.1797 15.3887C19.3424 15.1405 19.4238 14.8597 19.4238 14.5464V12.4956C19.4238 12.0887 19.2997 11.7795 19.0515 11.5679C18.8074 11.3522 18.4391 11.2444 17.9468 11.2444C17.5521 11.2444 17.2286 11.3156 16.9763 11.458C16.724 11.5964 16.5552 11.7937 16.4697 12.05L16.4636 12.0684H15.4016L15.4077 12.0317C15.4647 11.6859 15.6071 11.3848 15.835 11.1284C16.0669 10.868 16.366 10.6666 16.7322 10.5242C17.0984 10.3777 17.5155 10.3044 17.9834 10.3044C18.5205 10.3044 18.9742 10.3919 19.3445 10.5669C19.7188 10.7419 20.0016 10.9941 20.1929 11.3237C20.3882 11.6493 20.4858 12.0399 20.4858 12.4956V17H19.4238V16.0295H19.3262C19.1878 16.2615 19.019 16.4588 18.8196 16.6216C18.6243 16.7843 18.4025 16.9084 18.1543 16.9939C17.9061 17.0753 17.6335 17.116 17.3364 17.116ZM22.4512 17V10.4204H23.5132V17H22.4512ZM22.9883 9.15088C22.7889 9.15088 22.616 9.07967 22.4695 8.93726C22.3271 8.79077 22.2559 8.61784 22.2559 8.41846C22.2559 8.21501 22.3271 8.04207 22.4695 7.89966C22.616 7.75724 22.7889 7.68604 22.9883 7.68604C23.1917 7.68604 23.3647 7.75724 23.5071 7.89966C23.6495 8.04207 23.7207 8.21501 23.7207 8.41846C23.7207 8.61784 23.6495 8.79077 23.5071 8.93726C23.3647 9.07967 23.1917 9.15088 22.9883 9.15088ZM25.5762 17V7.80811H26.6382V17H25.5762ZM29.9463 17L28.103 10.4204H29.165L30.459 15.6816H30.5566L32.0276 10.4204H33.0347L34.5056 15.6816H34.6033L35.8972 10.4204H36.9531L35.1099 17H34.0417L32.5708 11.9097H32.4731L31.0083 17H29.9463ZM38.3813 17V10.4204H39.4434V17H38.3813ZM38.9185 9.15088C38.7191 9.15088 38.5461 9.07967 38.3997 8.93726C38.2572 8.79077 38.186 8.61784 38.186 8.41846C38.186 8.21501 38.2572 8.04207 38.3997 7.89966C38.5461 7.75724 38.7191 7.68604 38.9185 7.68604C39.1219 7.68604 39.2948 7.75724 39.4373 7.89966C39.5797 8.04207 39.6509 8.21501 39.6509 8.41846C39.6509 8.61784 39.5797 8.79077 39.4373 8.93726C39.2948 9.07967 39.1219 9.15088 38.9185 9.15088ZM41.4453 17V10.4204H42.5073V11.4092H42.605C42.7718 11.0592 43.0119 10.7887 43.3252 10.5974C43.6385 10.4021 44.0373 10.3044 44.5215 10.3044C45.262 10.3044 45.8297 10.516 46.2244 10.9392C46.6231 11.3583 46.8225 11.9585 46.8225 12.7397V17H45.7605V12.9961C45.7605 12.402 45.6344 11.9626 45.3821 11.6777C45.1339 11.3888 44.7473 11.2444 44.2224 11.2444C43.8725 11.2444 43.5693 11.3197 43.313 11.4702C43.0566 11.6208 42.8573 11.8344 42.7148 12.1111C42.5765 12.3878 42.5073 12.7194 42.5073 13.106V17H41.4453ZM51.1743 17.116C50.6209 17.116 50.1367 16.9756 49.7217 16.6948C49.3066 16.4141 48.9852 16.0194 48.7573 15.5107C48.5295 14.998 48.4155 14.3999 48.4155 13.7163V13.7041C48.4155 13.0164 48.5295 12.4183 48.7573 11.9097C48.9852 11.401 49.3046 11.0063 49.7156 10.7256C50.1306 10.4448 50.6169 10.3044 51.1743 10.3044C51.4754 10.3044 51.7582 10.3533 52.0227 10.4509C52.2913 10.5445 52.5293 10.6768 52.7368 10.8477C52.9443 11.0186 53.1071 11.222 53.2251 11.458H53.3228V7.80811H54.3848V17H53.3228V15.9502H53.2251C53.0908 16.1943 52.922 16.4039 52.7185 16.5789C52.5151 16.7498 52.2831 16.882 52.0227 16.9756C51.7623 17.0692 51.4795 17.116 51.1743 17.116ZM51.4185 16.176C51.8172 16.176 52.1611 16.0763 52.45 15.877C52.7389 15.6776 52.9606 15.3948 53.1152 15.0286C53.2699 14.6583 53.3472 14.2209 53.3472 13.7163V13.7041C53.3472 13.1955 53.2699 12.7581 53.1152 12.3918C52.9606 12.0256 52.7389 11.7428 52.45 11.5435C52.1611 11.3441 51.8172 11.2444 51.4185 11.2444C51.0197 11.2444 50.6759 11.3441 50.387 11.5435C50.1021 11.7388 49.8824 12.0195 49.7278 12.3857C49.5772 12.752 49.502 13.1914 49.502 13.7041V13.7163C49.502 14.2249 49.5772 14.6644 49.7278 15.0347C49.8824 15.4009 50.1021 15.6837 50.387 15.8831C50.6759 16.0784 51.0197 16.176 51.4185 16.176ZM59.115 17.116C58.5006 17.116 57.9675 16.9756 57.5159 16.6948C57.0642 16.4141 56.7143 16.0173 56.4661 15.5046C56.2179 14.9919 56.0938 14.3877 56.0938 13.6919V13.6797C56.0938 12.9961 56.2158 12.402 56.46 11.8975C56.7082 11.3929 57.0581 11.0023 57.5098 10.7256C57.9614 10.4448 58.4945 10.3044 59.1089 10.3044C59.6419 10.3044 60.1017 10.398 60.4883 10.5852C60.8748 10.7724 61.1841 11.0247 61.416 11.342C61.6479 11.6554 61.7965 12.0073 61.8616 12.3979L61.8677 12.4346H60.8118L60.8057 12.4163C60.7243 12.0907 60.5391 11.814 60.2502 11.5862C59.9613 11.3583 59.5809 11.2444 59.1089 11.2444C58.7142 11.2444 58.3724 11.3441 58.0835 11.5435C57.7946 11.7428 57.5708 12.0256 57.4121 12.3918C57.2575 12.754 57.1802 13.1833 57.1802 13.6797V13.6919C57.1802 14.1965 57.2595 14.6359 57.4182 15.0103C57.5769 15.3805 57.8007 15.6674 58.0896 15.8708C58.3785 16.0743 58.7183 16.176 59.1089 16.176C59.5524 16.176 59.9146 16.0804 60.1953 15.8892C60.4761 15.6979 60.6775 15.4192 60.7996 15.053L60.8118 15.0164L61.8616 15.0103L61.8494 15.0774C61.7598 15.4721 61.6012 15.8241 61.3733 16.1333C61.1454 16.4385 60.8443 16.6785 60.47 16.8535C60.0956 17.0285 59.644 17.116 59.115 17.116ZM65.6763 17.116C65.188 17.116 64.7567 17.0427 64.3823 16.8962C64.008 16.7457 63.7069 16.5361 63.479 16.2676C63.2552 15.999 63.123 15.6837 63.0823 15.3215H64.1687C64.2582 15.5942 64.4332 15.8139 64.6936 15.9807C64.954 16.1475 65.2938 16.231 65.7129 16.231C66.0099 16.231 66.2703 16.1882 66.4941 16.1028C66.722 16.0133 66.901 15.8932 67.0312 15.7427C67.1615 15.5881 67.2266 15.4111 67.2266 15.2117V15.1995C67.2266 14.9757 67.137 14.7865 66.958 14.6318C66.779 14.4731 66.486 14.345 66.0791 14.2473L65.0598 14.0032C64.6488 13.9055 64.3111 13.7794 64.0466 13.6248C63.7821 13.4661 63.5868 13.2728 63.4607 13.0449C63.3346 12.813 63.2715 12.5404 63.2715 12.2271V12.2209C63.2715 11.8547 63.3773 11.5272 63.5889 11.2383C63.8045 10.9494 64.0975 10.7215 64.4678 10.5547C64.8381 10.3879 65.2551 10.3044 65.719 10.3044C66.1788 10.3044 66.5857 10.3777 66.9397 10.5242C67.2978 10.6666 67.5846 10.87 67.8003 11.1345C68.02 11.399 68.1543 11.7103 68.2031 12.0684H67.1594C67.0903 11.8079 66.9316 11.5964 66.6833 11.4336C66.4351 11.2708 66.1117 11.1895 65.7129 11.1895C65.4525 11.1895 65.2205 11.2322 65.0171 11.3176C64.8136 11.399 64.6529 11.5129 64.5349 11.6594C64.4169 11.8059 64.3579 11.9768 64.3579 12.1721V12.1843C64.3579 12.3308 64.3966 12.461 64.4739 12.575C64.5512 12.6889 64.6712 12.7886 64.834 12.874C64.9967 12.9595 65.2063 13.0347 65.4626 13.0999L66.4758 13.344C67.0943 13.4945 67.5541 13.7102 67.8552 13.991C68.1604 14.2717 68.313 14.6481 68.313 15.1201V15.1323C68.313 15.5229 68.197 15.8688 67.9651 16.1699C67.7332 16.467 67.4178 16.6989 67.019 16.8657C66.6243 17.0326 66.1768 17.116 65.6763 17.116ZM72.0972 17.116C71.6089 17.116 71.1776 17.0427 70.8032 16.8962C70.4289 16.7457 70.1278 16.5361 69.8999 16.2676C69.6761 15.999 69.5439 15.6837 69.5032 15.3215H70.5896C70.6791 15.5942 70.8541 15.8139 71.1145 15.9807C71.3749 16.1475 71.7147 16.231 72.1338 16.231C72.4308 16.231 72.6912 16.1882 72.915 16.1028C73.1429 16.0133 73.3219 15.8932 73.4521 15.7427C73.5824 15.5881 73.6475 15.4111 73.6475 15.2117V15.1995C73.6475 14.9757 73.5579 14.7865 73.3789 14.6318C73.1999 14.4731 72.9069 14.345 72.5 14.2473L71.4807 14.0032C71.0697 13.9055 70.732 13.7794 70.4675 13.6248C70.203 13.4661 70.0077 13.2728 69.8816 13.0449C69.7555 12.813 69.6924 12.5404 69.6924 12.2271V12.2209C69.6924 11.8547 69.7982 11.5272 70.0098 11.2383C70.2254 10.9494 70.5184 10.7215 70.8887 10.5547C71.259 10.3879 71.676 10.3044 72.1399 10.3044C72.5997 10.3044 73.0066 10.3777 73.3606 10.5242C73.7187 10.6666 74.0055 10.87 74.2212 11.1345C74.4409 11.399 74.5752 11.7103 74.624 12.0684H73.5803C73.5111 11.8079 73.3525 11.5964 73.1042 11.4336C72.856 11.2708 72.5326 11.1895 72.1338 11.1895C71.8734 11.1895 71.6414 11.2322 71.438 11.3176C71.2345 11.399 71.0738 11.5129 70.9558 11.6594C70.8378 11.8059 70.7788 11.9768 70.7788 12.1721V12.1843C70.7788 12.3308 70.8175 12.461 70.8948 12.575C70.9721 12.6889 71.0921 12.7886 71.2549 12.874C71.4176 12.9595 71.6272 13.0347 71.8835 13.0999L72.8967 13.344C73.5152 13.4945 73.975 13.7102 74.2761 13.991C74.5813 14.2717 74.7339 14.6481 74.7339 15.1201V15.1323C74.7339 15.5229 74.6179 15.8688 74.386 16.1699C74.1541 16.467 73.8387 16.6989 73.4399 16.8657C73.0452 17.0326 72.5977 17.116 72.0972 17.116Z" fill="#4493F8"/>
</svg>
