<svg width="88" height="26" viewBox="0 0 88 26" fill="none" xmlns="http://www.w3.org/2000/svg">
<rect width="88" height="26" rx="13" fill="#141D2E"/>
<path d="M13.4546 17.0427C12.7303 17.0427 12.2054 16.9044 11.8799 16.6277C11.5584 16.3469 11.3977 15.8892 11.3977 15.2544V11.4153H10.3601V10.3716H11.3977V8.69922H12.7527V10.3716H14.1748V11.4153H12.7527V14.9309C12.7527 15.289 12.8239 15.5474 12.9663 15.7061C13.1087 15.8607 13.3447 15.938 13.6743 15.938C13.772 15.938 13.8554 15.936 13.9246 15.9319C13.9978 15.9278 14.0812 15.9217 14.1748 15.9136V16.9756C14.069 16.9919 13.9551 17.0061 13.833 17.0183C13.7109 17.0346 13.5848 17.0427 13.4546 17.0427ZM17.5439 17.1099C17.1248 17.1099 16.7485 17.0305 16.4148 16.8718C16.0852 16.7091 15.8248 16.4792 15.6335 16.1821C15.4423 15.8851 15.3467 15.5372 15.3467 15.1384V15.1262C15.3467 14.7275 15.4423 14.3877 15.6335 14.1069C15.8289 13.8262 16.1096 13.6064 16.4758 13.4478C16.8461 13.285 17.2937 13.1873 17.8186 13.1548L20.2661 13.0083V13.9421L18.0017 14.0886C17.546 14.1171 17.2103 14.2148 16.9946 14.3816C16.779 14.5444 16.6711 14.7743 16.6711 15.0713V15.0835C16.6711 15.3846 16.7871 15.6226 17.019 15.7976C17.251 15.9685 17.5439 16.054 17.8979 16.054C18.2275 16.054 18.5205 15.9889 18.7769 15.8586C19.0373 15.7244 19.2407 15.5453 19.3872 15.3215C19.5337 15.0937 19.6069 14.8373 19.6069 14.5525V12.4651C19.6069 12.0989 19.493 11.8201 19.2651 11.6289C19.0413 11.4336 18.7077 11.3359 18.2642 11.3359C17.8939 11.3359 17.5907 11.401 17.3547 11.5312C17.1228 11.6615 16.9682 11.8446 16.8909 12.0806L16.8787 12.0989H15.603L15.6091 12.0562C15.662 11.6899 15.8065 11.3726 16.0425 11.104C16.2826 10.8314 16.5959 10.6198 16.9824 10.4692C17.373 10.3187 17.8186 10.2434 18.3191 10.2434C18.8765 10.2434 19.3486 10.3329 19.7351 10.512C20.1257 10.6869 20.4207 10.9412 20.6201 11.2749C20.8236 11.6045 20.9253 12.0012 20.9253 12.4651V17H19.6069V16.0601H19.5093C19.3791 16.2839 19.2163 16.4751 19.021 16.6338C18.8257 16.7884 18.6039 16.9064 18.3557 16.9878C18.1075 17.0692 17.8369 17.1099 17.5439 17.1099ZM22.8113 17V10.3716H24.1418V17H22.8113ZM23.4827 9.1875C23.2548 9.1875 23.0595 9.10612 22.8967 8.94336C22.734 8.7806 22.6526 8.58529 22.6526 8.35742C22.6526 8.12956 22.734 7.93628 22.8967 7.77759C23.0595 7.61483 23.2548 7.53345 23.4827 7.53345C23.7105 7.53345 23.9058 7.61483 24.0686 7.77759C24.2314 7.93628 24.3127 8.12956 24.3127 8.35742C24.3127 8.58529 24.2314 8.7806 24.0686 8.94336C23.9058 9.10612 23.7105 9.1875 23.4827 9.1875ZM26.1255 17V7.77148H27.45V17H26.1255ZM30.6909 17L28.866 10.3716H30.2026L31.3867 15.4863H31.4905L32.8516 10.3716H34.115L35.4822 15.4863H35.5798L36.77 10.3716H38.0823L36.2634 17H34.8901L33.5168 12.0562H33.4131L32.052 17H30.6909ZM39.4617 17V10.3716H40.7922V17H39.4617ZM40.1331 9.1875C39.9052 9.1875 39.7099 9.10612 39.5471 8.94336C39.3844 8.7806 39.303 8.58529 39.303 8.35742C39.303 8.12956 39.3844 7.93628 39.5471 7.77759C39.7099 7.61483 39.9052 7.53345 40.1331 7.53345C40.3609 7.53345 40.5562 7.61483 40.719 7.77759C40.8818 7.93628 40.9631 8.12956 40.9631 8.35742C40.9631 8.58529 40.8818 8.7806 40.719 8.94336C40.5562 9.10612 40.3609 9.1875 40.1331 9.1875ZM42.7148 17V10.3716H44.0393V11.3726H44.1431C44.3058 11.0186 44.5459 10.7419 44.8633 10.5425C45.1807 10.3431 45.5815 10.2434 46.0657 10.2434C46.8103 10.2434 47.38 10.457 47.7747 10.8843C48.1694 11.3115 48.3667 11.9198 48.3667 12.7092V17H47.0361V13.0205C47.0361 12.4671 46.9202 12.0562 46.6882 11.7876C46.4604 11.515 46.1023 11.3787 45.614 11.3787C45.2926 11.3787 45.0138 11.4499 44.7778 11.5923C44.5418 11.7306 44.3587 11.93 44.2285 12.1904C44.1024 12.4468 44.0393 12.754 44.0393 13.1121V17H42.7148ZM52.627 17.1099C52.0736 17.1099 51.5894 16.9715 51.1743 16.6948C50.7633 16.4141 50.4439 16.0173 50.2161 15.5046C49.9923 14.9919 49.8804 14.3877 49.8804 13.6919V13.6797C49.8804 12.9798 49.9923 12.3735 50.2161 11.8608C50.4399 11.3481 50.7572 10.9535 51.1682 10.6768C51.5792 10.396 52.0654 10.2556 52.627 10.2556C52.9321 10.2556 53.217 10.3044 53.4814 10.4021C53.7459 10.4957 53.9799 10.63 54.1833 10.8049C54.3868 10.9758 54.5475 11.1813 54.6655 11.4214H54.7632V7.77148H56.0938V17H54.7632V15.9563H54.6655C54.5353 16.1964 54.3705 16.4039 54.1711 16.5789C53.9718 16.7498 53.7419 16.882 53.4814 16.9756C53.221 17.0651 52.9362 17.1099 52.627 17.1099ZM53.0054 15.9746C53.3716 15.9746 53.689 15.8831 53.9575 15.7C54.2261 15.5168 54.4316 15.2544 54.574 14.9126C54.7164 14.5667 54.7876 14.1598 54.7876 13.6919V13.6797C54.7876 13.2077 54.7144 12.8008 54.5679 12.459C54.4255 12.1172 54.22 11.8547 53.9514 11.6716C53.6869 11.4845 53.3716 11.3909 53.0054 11.3909C52.6392 11.3909 52.3218 11.4845 52.0532 11.6716C51.7887 11.8547 51.5853 12.1172 51.4429 12.459C51.3045 12.7967 51.2354 13.2036 51.2354 13.6797V13.6919C51.2354 14.1639 51.3045 14.5708 51.4429 14.9126C51.5853 15.2544 51.7887 15.5168 52.0532 15.7C52.3218 15.8831 52.6392 15.9746 53.0054 15.9746ZM60.8484 17.1282C60.2055 17.1282 59.6501 16.9898 59.1821 16.7131C58.7183 16.4324 58.3602 16.0336 58.1079 15.5168C57.8556 15.0001 57.7295 14.3836 57.7295 13.6675V13.6553C57.7295 12.9513 57.8536 12.3451 58.1018 11.8364C58.3541 11.3278 58.7122 10.9351 59.176 10.6584C59.644 10.3818 60.1994 10.2434 60.8423 10.2434C61.3997 10.2434 61.8778 10.3411 62.2766 10.5364C62.6794 10.7276 62.9989 10.9921 63.2349 11.3298C63.4749 11.6635 63.6255 12.0439 63.6865 12.4712L63.6926 12.5017H62.417L62.4109 12.4895C62.3376 12.164 62.1688 11.8934 61.9043 11.6777C61.6398 11.458 61.2878 11.3481 60.8484 11.3481C60.4822 11.3481 60.1668 11.4417 59.9023 11.6289C59.6379 11.812 59.4344 12.0765 59.292 12.4224C59.1536 12.7682 59.0845 13.1792 59.0845 13.6553V13.6675C59.0845 14.1558 59.1557 14.5749 59.2981 14.9248C59.4405 15.2747 59.644 15.5453 59.9084 15.7366C60.1729 15.9237 60.4862 16.0173 60.8484 16.0173C61.2634 16.0173 61.5991 15.9258 61.8555 15.7427C62.1159 15.5596 62.299 15.289 62.4048 14.9309L62.417 14.9004L63.6865 14.8943L63.6743 14.9492C63.597 15.3805 63.4403 15.759 63.2043 16.0845C62.9683 16.41 62.653 16.6663 62.2583 16.8535C61.8677 17.0366 61.3977 17.1282 60.8484 17.1282ZM67.5989 17.1282C67.0658 17.1282 66.602 17.0509 66.2073 16.8962C65.8126 16.7375 65.4993 16.5199 65.2673 16.2432C65.0354 15.9624 64.8991 15.6369 64.8584 15.2666V15.2544H66.189V15.2666C66.2744 15.5148 66.4372 15.7162 66.6772 15.8708C66.9173 16.0255 67.2347 16.1028 67.6294 16.1028C67.902 16.1028 68.1401 16.0641 68.3435 15.9868C68.551 15.9095 68.7138 15.8017 68.8318 15.6633C68.9498 15.525 69.0088 15.3663 69.0088 15.1873V15.175C69.0088 14.9675 68.9254 14.7926 68.7585 14.6501C68.5917 14.5077 68.3171 14.3918 67.9346 14.3022L66.8726 14.0581C66.4575 13.9645 66.1137 13.8363 65.8411 13.6736C65.5684 13.5108 65.367 13.3114 65.2368 13.0754C65.1066 12.8354 65.0415 12.5546 65.0415 12.2332V12.2271C65.0415 11.8405 65.1514 11.4987 65.3711 11.2017C65.5908 10.9006 65.894 10.6666 66.2805 10.4998C66.6711 10.3289 67.1167 10.2434 67.6172 10.2434C68.1217 10.2434 68.5612 10.3228 68.9355 10.4814C69.314 10.6361 69.613 10.8517 69.8328 11.1284C70.0525 11.401 70.1827 11.7184 70.2234 12.0806V12.0867H68.9539V12.0745C68.8928 11.8425 68.7463 11.6493 68.5144 11.4946C68.2865 11.34 67.9854 11.2627 67.6111 11.2627C67.371 11.2627 67.1574 11.3014 66.9702 11.3787C66.783 11.4519 66.6345 11.5557 66.5247 11.6899C66.4189 11.8201 66.366 11.9748 66.366 12.1538V12.166C66.366 12.3044 66.4006 12.4264 66.4697 12.5322C66.543 12.634 66.6569 12.7255 66.8115 12.8069C66.9661 12.8842 67.1655 12.9534 67.4097 13.0144L68.4656 13.2524C69.1003 13.403 69.5723 13.6207 69.8816 13.9055C70.1949 14.1903 70.3516 14.5728 70.3516 15.053V15.0652C70.3516 15.4721 70.2315 15.8322 69.9915 16.1455C69.7514 16.4548 69.4238 16.6969 69.0088 16.8718C68.5978 17.0427 68.1278 17.1282 67.5989 17.1282ZM74.2151 17.1282C73.682 17.1282 73.2182 17.0509 72.8235 16.8962C72.4288 16.7375 72.1155 16.5199 71.8835 16.2432C71.6516 15.9624 71.5153 15.6369 71.4746 15.2666V15.2544H72.8052V15.2666C72.8906 15.5148 73.0534 15.7162 73.2935 15.8708C73.5335 16.0255 73.8509 16.1028 74.2456 16.1028C74.5182 16.1028 74.7563 16.0641 74.9597 15.9868C75.1672 15.9095 75.33 15.8017 75.448 15.6633C75.566 15.525 75.625 15.3663 75.625 15.1873V15.175C75.625 14.9675 75.5416 14.7926 75.3748 14.6501C75.2079 14.5077 74.9333 14.3918 74.5508 14.3022L73.4888 14.0581C73.0737 13.9645 72.7299 13.8363 72.4573 13.6736C72.1847 13.5108 71.9832 13.3114 71.853 13.0754C71.7228 12.8354 71.6577 12.5546 71.6577 12.2332V12.2271C71.6577 11.8405 71.7676 11.4987 71.9873 11.2017C72.207 10.9006 72.5102 10.6666 72.8967 10.4998C73.2874 10.3289 73.7329 10.2434 74.2334 10.2434C74.738 10.2434 75.1774 10.3228 75.5518 10.4814C75.9302 10.6361 76.2292 10.8517 76.449 11.1284C76.6687 11.401 76.7989 11.7184 76.8396 12.0806V12.0867H75.5701V12.0745C75.509 11.8425 75.3625 11.6493 75.1306 11.4946C74.9028 11.34 74.6016 11.2627 74.2273 11.2627C73.9872 11.2627 73.7736 11.3014 73.5864 11.3787C73.3993 11.4519 73.2507 11.5557 73.1409 11.6899C73.0351 11.8201 72.9822 11.9748 72.9822 12.1538V12.166C72.9822 12.3044 73.0168 12.4264 73.0859 12.5322C73.1592 12.634 73.2731 12.7255 73.4277 12.8069C73.5824 12.8842 73.7817 12.9534 74.0259 13.0144L75.0818 13.2524C75.7166 13.403 76.1886 13.6207 76.4978 13.9055C76.8111 14.1903 76.9678 14.5728 76.9678 15.053V15.0652C76.9678 15.4721 76.8477 15.8322 76.6077 16.1455C76.3676 16.4548 76.04 16.6969 75.625 16.8718C75.214 17.0427 74.7441 17.1282 74.2151 17.1282Z" fill="#4493F8"/>
</svg>
