<svg width="90" height="26" viewBox="0 0 90 26" fill="none" xmlns="http://www.w3.org/2000/svg">
<rect width="90" height="26" rx="13" fill="#141D2E"/>
<path d="M13.5522 17.0305C12.7873 17.0305 12.2359 16.8901 11.8982 16.6094C11.5605 16.3286 11.3916 15.8688 11.3916 15.23V11.5068H10.354V10.3289H11.3916V8.69312H12.9358V10.3289H14.3396V11.5068H12.9358V14.8699C12.9358 15.1995 13.005 15.4416 13.1433 15.5962C13.2857 15.7467 13.5136 15.822 13.8269 15.822C13.9368 15.822 14.0263 15.82 14.0955 15.8159C14.1687 15.8078 14.2501 15.7996 14.3396 15.7915V16.9634C14.2338 16.9837 14.1117 17 13.9734 17.0122C13.8391 17.0244 13.6987 17.0305 13.5522 17.0305ZM17.6782 17.1099C17.2591 17.1099 16.8827 17.0285 16.5491 16.8657C16.2195 16.703 15.9591 16.4731 15.7678 16.176C15.5806 15.8749 15.4871 15.5209 15.4871 15.114V15.1018C15.4871 14.7071 15.5847 14.3674 15.78 14.0825C15.9753 13.7936 16.2622 13.5678 16.6406 13.405C17.019 13.2423 17.4788 13.1466 18.02 13.1182L20.4858 12.9656V13.9666L18.2336 14.113C17.8064 14.1375 17.491 14.227 17.2876 14.3816C17.0841 14.5362 16.9824 14.7519 16.9824 15.0286V15.0408C16.9824 15.3256 17.0903 15.5474 17.3059 15.7061C17.5256 15.8647 17.8044 15.9441 18.1421 15.9441C18.4473 15.9441 18.7199 15.8831 18.96 15.761C19.2 15.6389 19.3892 15.4741 19.5276 15.2666C19.6659 15.055 19.7351 14.817 19.7351 14.5525V12.4407C19.7351 12.107 19.6293 11.8527 19.4177 11.6777C19.2061 11.4987 18.8928 11.4092 18.4778 11.4092C18.1319 11.4092 17.8491 11.4702 17.6294 11.5923C17.4097 11.7103 17.2611 11.8792 17.1838 12.0989L17.1777 12.1233H15.7434L15.7495 12.0684C15.7983 11.694 15.9448 11.3665 16.189 11.0857C16.4331 10.8049 16.7566 10.5872 17.1594 10.4326C17.5623 10.278 18.0261 10.2007 18.551 10.2007C19.1288 10.2007 19.6171 10.2902 20.0159 10.4692C20.4146 10.6442 20.7178 10.9006 20.9253 11.2383C21.1328 11.5719 21.2366 11.9727 21.2366 12.4407V17H19.7351V16.0845H19.6313C19.5093 16.2961 19.3506 16.4792 19.1553 16.6338C18.964 16.7884 18.7443 16.9064 18.4961 16.9878C18.2479 17.0692 17.9753 17.1099 17.6782 17.1099ZM23.0798 17V10.3289H24.5935V17H23.0798ZM23.8428 9.21191C23.5946 9.21191 23.3809 9.12443 23.2019 8.94946C23.0229 8.7745 22.9333 8.56494 22.9333 8.3208C22.9333 8.06852 23.0229 7.85693 23.2019 7.68604C23.3809 7.51107 23.5946 7.42358 23.8428 7.42358C24.091 7.42358 24.3026 7.51107 24.4775 7.68604C24.6566 7.85693 24.7461 8.06852 24.7461 8.3208C24.7461 8.56494 24.6566 8.7745 24.4775 8.94946C24.3026 9.12443 24.091 9.21191 23.8428 9.21191ZM26.5283 17V7.74707H28.0481V17H26.5283ZM31.2341 17L29.4214 10.3289H30.9473L32.052 15.3459H32.1619L33.4436 10.3289H34.8901L36.178 15.3459H36.2878L37.3926 10.3289H38.9001L37.0874 17H35.5005L34.2004 12.166H34.0967L32.8027 17H31.2341ZM40.2307 17V10.3289H41.7444V17H40.2307ZM40.9937 9.21191C40.7454 9.21191 40.5318 9.12443 40.3528 8.94946C40.1737 8.7745 40.0842 8.56494 40.0842 8.3208C40.0842 8.06852 40.1737 7.85693 40.3528 7.68604C40.5318 7.51107 40.7454 7.42358 40.9937 7.42358C41.2419 7.42358 41.4535 7.51107 41.6284 7.68604C41.8075 7.85693 41.897 8.06852 41.897 8.3208C41.897 8.56494 41.8075 8.7745 41.6284 8.94946C41.4535 9.12443 41.2419 9.21191 40.9937 9.21191ZM43.6182 17V10.3289H45.1379V11.3542H45.2417C45.4004 10.9921 45.6405 10.7093 45.9619 10.5059C46.2834 10.3024 46.6842 10.2007 47.1643 10.2007C47.9089 10.2007 48.4786 10.4163 48.8733 10.8477C49.268 11.279 49.4653 11.8914 49.4653 12.6848V17H47.9456V13.0388C47.9456 12.518 47.8357 12.1274 47.616 11.8669C47.4003 11.6065 47.0626 11.4763 46.6028 11.4763C46.3017 11.4763 46.0413 11.5435 45.8215 11.6777C45.6018 11.812 45.4329 12.0012 45.3149 12.2454C45.1969 12.4895 45.1379 12.7784 45.1379 13.1121V17H43.6182ZM53.6646 17.1099C53.1112 17.1099 52.629 16.9715 52.218 16.6948C51.807 16.4141 51.4897 16.0153 51.2659 15.4985C51.0421 14.9818 50.9302 14.3735 50.9302 13.6736V13.6614C50.9302 12.9534 51.04 12.343 51.2598 11.8303C51.4836 11.3136 51.7989 10.9168 52.2058 10.6401C52.6168 10.3594 53.103 10.219 53.6646 10.219C53.9697 10.219 54.2546 10.2678 54.519 10.3655C54.7835 10.4591 55.0155 10.5933 55.2148 10.7683C55.4183 10.9433 55.577 11.1508 55.6909 11.3909H55.8008V7.74707H57.3145V17H55.8008V15.9563H55.6909C55.5688 16.1964 55.4081 16.4039 55.2087 16.5789C55.0134 16.7498 54.7856 16.882 54.5251 16.9756C54.2647 17.0651 53.9779 17.1099 53.6646 17.1099ZM54.1406 15.8281C54.4865 15.8281 54.7835 15.7427 55.0317 15.5718C55.284 15.3968 55.4773 15.1486 55.6116 14.8271C55.7499 14.5016 55.8191 14.1171 55.8191 13.6736V13.6614C55.8191 13.2138 55.7499 12.8293 55.6116 12.5078C55.4773 12.1864 55.284 11.9382 55.0317 11.7632C54.7835 11.5882 54.4865 11.5007 54.1406 11.5007C53.7988 11.5007 53.5018 11.5882 53.2495 11.7632C53.0013 11.9341 52.8101 12.1823 52.6758 12.5078C52.5415 12.8293 52.4744 13.2138 52.4744 13.6614V13.6736C52.4744 14.1212 52.5415 14.5057 52.6758 14.8271C52.8101 15.1486 53.0013 15.3968 53.2495 15.5718C53.4977 15.7427 53.7948 15.8281 54.1406 15.8281ZM62.0935 17.1343C61.4221 17.1343 60.8484 16.9959 60.3723 16.7192C59.8962 16.4425 59.5321 16.0438 59.2798 15.5229C59.0275 15.0021 58.9014 14.3796 58.9014 13.6553V13.6431C58.9014 12.9229 59.0275 12.3064 59.2798 11.7937C59.5321 11.281 59.8962 10.8883 60.3723 10.6157C60.8484 10.339 61.4201 10.2007 62.0874 10.2007C62.6611 10.2007 63.1535 10.3004 63.5645 10.4998C63.9795 10.6951 64.307 10.9677 64.5471 11.3176C64.7913 11.6635 64.9418 12.0684 64.9988 12.5322V12.5566H63.5645L63.5583 12.5383C63.4892 12.2128 63.3305 11.9463 63.0823 11.7388C62.8381 11.5312 62.5085 11.4275 62.0935 11.4275C61.7476 11.4275 61.4506 11.515 61.2024 11.6899C60.9583 11.8649 60.7711 12.1172 60.6409 12.4468C60.5107 12.7764 60.4456 13.1751 60.4456 13.6431V13.6553C60.4456 14.1273 60.5107 14.5321 60.6409 14.8699C60.7751 15.2035 60.9644 15.4599 61.2085 15.6389C61.4526 15.8139 61.7476 15.9014 62.0935 15.9014C62.4882 15.9014 62.8056 15.8118 63.0457 15.6328C63.2898 15.4538 63.4587 15.1893 63.5522 14.8394L63.5645 14.8149L64.9927 14.8088L64.9866 14.8638C64.9133 15.3154 64.7546 15.7122 64.5105 16.054C64.2704 16.3958 63.949 16.6623 63.5461 16.8535C63.1433 17.0407 62.6591 17.1343 62.0935 17.1343ZM68.9661 17.1343C68.4005 17.1343 67.9122 17.0549 67.5012 16.8962C67.0943 16.7335 66.7729 16.5097 66.5369 16.2249C66.3009 15.936 66.1605 15.6023 66.1157 15.2239V15.2117H67.6233L67.6294 15.2239C67.7108 15.4558 67.8634 15.645 68.0872 15.7915C68.311 15.938 68.6121 16.0112 68.9905 16.0112C69.2428 16.0112 69.4645 15.9766 69.6558 15.9075C69.847 15.8342 69.9976 15.7345 70.1074 15.6084C70.2173 15.4823 70.2722 15.3358 70.2722 15.1689V15.1567C70.2722 14.9614 70.1929 14.7987 70.0342 14.6685C69.8755 14.5342 69.613 14.4264 69.2468 14.345L68.1665 14.1008C67.7433 14.0072 67.3934 13.877 67.1167 13.7102C66.84 13.5434 66.6325 13.3379 66.4941 13.0938C66.3599 12.8496 66.2927 12.5648 66.2927 12.2393V12.2332C66.2927 11.8303 66.4046 11.4763 66.6284 11.1711C66.8563 10.866 67.1716 10.6279 67.5745 10.457C67.9773 10.2861 68.4412 10.2007 68.9661 10.2007C69.5072 10.2007 69.9731 10.2821 70.3638 10.4448C70.7544 10.6076 71.0596 10.8314 71.2793 11.1162C71.499 11.401 71.6252 11.7245 71.6577 12.0867V12.0989H70.2295L70.2234 12.0806C70.1664 11.869 70.0301 11.6899 69.8145 11.5435C69.6029 11.3929 69.318 11.3176 68.96 11.3176C68.7362 11.3176 68.5347 11.3522 68.3557 11.4214C68.1807 11.4906 68.0424 11.5882 67.9407 11.7144C67.843 11.8364 67.7942 11.9809 67.7942 12.1477V12.1538C67.7942 12.284 67.8267 12.3979 67.8918 12.4956C67.961 12.5933 68.0688 12.6787 68.2153 12.752C68.3618 12.8252 68.5551 12.8903 68.7952 12.9473L69.8755 13.1853C70.5306 13.3318 71.0148 13.5495 71.3281 13.8384C71.6414 14.1273 71.7981 14.5159 71.7981 15.0042V15.0164C71.7981 15.4395 71.676 15.8098 71.4319 16.1272C71.1877 16.4446 70.8521 16.6928 70.4248 16.8718C69.9976 17.0468 69.5113 17.1343 68.9661 17.1343ZM75.7288 17.1343C75.1632 17.1343 74.6749 17.0549 74.2639 16.8962C73.857 16.7335 73.5356 16.5097 73.2996 16.2249C73.0636 15.936 72.9232 15.6023 72.8784 15.2239V15.2117H74.386L74.3921 15.2239C74.4735 15.4558 74.6261 15.645 74.8499 15.7915C75.0736 15.938 75.3748 16.0112 75.7532 16.0112C76.0055 16.0112 76.2272 15.9766 76.4185 15.9075C76.6097 15.8342 76.7603 15.7345 76.8701 15.6084C76.98 15.4823 77.0349 15.3358 77.0349 15.1689V15.1567C77.0349 14.9614 76.9556 14.7987 76.7969 14.6685C76.6382 14.5342 76.3757 14.4264 76.0095 14.345L74.9292 14.1008C74.506 14.0072 74.1561 13.877 73.8794 13.7102C73.6027 13.5434 73.3952 13.3379 73.2568 13.0938C73.1226 12.8496 73.0554 12.5648 73.0554 12.2393V12.2332C73.0554 11.8303 73.1673 11.4763 73.3911 11.1711C73.619 10.866 73.9343 10.6279 74.3372 10.457C74.74 10.2861 75.2039 10.2007 75.7288 10.2007C76.2699 10.2007 76.7358 10.2821 77.1265 10.4448C77.5171 10.6076 77.8223 10.8314 78.042 11.1162C78.2617 11.401 78.3879 11.7245 78.4204 12.0867V12.0989H76.9922L76.9861 12.0806C76.9291 11.869 76.7928 11.6899 76.5771 11.5435C76.3656 11.3929 76.0807 11.3176 75.7227 11.3176C75.4989 11.3176 75.2974 11.3522 75.1184 11.4214C74.9434 11.4906 74.8051 11.5882 74.7034 11.7144C74.6057 11.8364 74.5569 11.9809 74.5569 12.1477V12.1538C74.5569 12.284 74.5894 12.3979 74.6545 12.4956C74.7237 12.5933 74.8315 12.6787 74.978 12.752C75.1245 12.8252 75.3178 12.8903 75.5579 12.9473L76.6382 13.1853C77.2933 13.3318 77.7775 13.5495 78.0908 13.8384C78.4041 14.1273 78.5608 14.5159 78.5608 15.0042V15.0164C78.5608 15.4395 78.4387 15.8098 78.1946 16.1272C77.9504 16.4446 77.6147 16.6928 77.1875 16.8718C76.7603 17.0468 76.274 17.1343 75.7288 17.1343Z" fill="#4493F8"/>
</svg>
