<svg width="82" height="26" viewBox="0 0 82 26" fill="none" xmlns="http://www.w3.org/2000/svg">
<rect width="82" height="26" rx="13" fill="#141D2E"/>
<path d="M13.4546 17.0427C12.7303 17.0427 12.2054 16.9044 11.8799 16.6277C11.5584 16.3469 11.3977 15.8892 11.3977 15.2544V11.4153H10.3601V10.3716H11.3977V8.69922H12.7527V10.3716H14.1748V11.4153H12.7527V14.9309C12.7527 15.289 12.8239 15.5474 12.9663 15.7061C13.1087 15.8607 13.3447 15.938 13.6743 15.938C13.772 15.938 13.8554 15.936 13.9246 15.9319C13.9978 15.9278 14.0812 15.9217 14.1748 15.9136V16.9756C14.069 16.9919 13.9551 17.0061 13.833 17.0183C13.7109 17.0346 13.5848 17.0427 13.4546 17.0427ZM16.3721 19.3315C16.2907 19.3315 16.2032 19.3275 16.1096 19.3193C16.016 19.3153 15.9265 19.3092 15.8411 19.301V18.2573C15.9062 18.2655 15.9774 18.2716 16.0547 18.2756C16.1361 18.2797 16.2134 18.2817 16.2866 18.2817C16.5959 18.2817 16.8461 18.2085 17.0374 18.062C17.2286 17.9196 17.373 17.6816 17.4707 17.3479L17.5684 17.0061L15.1636 10.3716H16.5979L18.4717 16.3469L18.0566 15.6633H18.5632L18.1543 16.3469L20.022 10.3716H21.4197L18.9539 17.2502C18.7667 17.7792 18.5592 18.1943 18.3313 18.4954C18.1034 18.8005 17.8328 19.0162 17.5195 19.1423C17.2062 19.2685 16.8237 19.3315 16.3721 19.3315ZM22.7686 19.2095V10.3716H24.093V11.4153H24.1968C24.3229 11.1711 24.4857 10.9636 24.6851 10.7927C24.8885 10.6218 25.1204 10.4896 25.3809 10.396C25.6413 10.3024 25.9261 10.2556 26.2354 10.2556C26.7928 10.2556 27.277 10.398 27.688 10.6829C28.099 10.9636 28.4163 11.3604 28.6401 11.873C28.868 12.3817 28.9819 12.9839 28.9819 13.6797V13.6919C28.9819 14.3918 28.87 14.998 28.6462 15.5107C28.4224 16.0194 28.1051 16.4141 27.6941 16.6948C27.2831 16.9715 26.7969 17.1099 26.2354 17.1099C25.9302 17.1099 25.6453 17.0631 25.3809 16.9695C25.1164 16.8718 24.8824 16.7375 24.679 16.5667C24.4755 16.3958 24.3148 16.1903 24.1968 15.9502H24.093V19.2095H22.7686ZM25.8569 15.9746C26.2272 15.9746 26.5446 15.8831 26.8091 15.7C27.0736 15.5168 27.275 15.2544 27.4133 14.9126C27.5557 14.5708 27.627 14.1639 27.627 13.6919V13.6797C27.627 13.2036 27.5557 12.7947 27.4133 12.4529C27.275 12.1111 27.0736 11.8486 26.8091 11.6655C26.5446 11.4824 26.2272 11.3909 25.8569 11.3909C25.4907 11.3909 25.1733 11.4845 24.9048 11.6716C24.6362 11.8547 24.4307 12.1172 24.2883 12.459C24.1459 12.7967 24.0747 13.2036 24.0747 13.6797V13.6919C24.0747 14.1598 24.1459 14.5647 24.2883 14.9065C24.4307 15.2483 24.6362 15.5128 24.9048 15.7C25.1733 15.8831 25.4907 15.9746 25.8569 15.9746ZM33.3521 17.1282C32.7051 17.1282 32.1497 16.9898 31.6858 16.7131C31.2219 16.4324 30.8639 16.0356 30.6116 15.5229C30.3634 15.0103 30.2393 14.404 30.2393 13.7041V13.698C30.2393 13.0063 30.3634 12.402 30.6116 11.8853C30.8639 11.3685 31.2179 10.9657 31.6736 10.6768C32.1334 10.3879 32.6705 10.2434 33.2849 10.2434C33.9034 10.2434 34.4344 10.3818 34.8779 10.6584C35.3255 10.9351 35.6694 11.3237 35.9094 11.8242C36.1495 12.3206 36.2695 12.9025 36.2695 13.5698V14.0337H30.9106V13.0876H35.6104L34.9756 13.9666V13.4355C34.9756 12.9635 34.9023 12.5729 34.7559 12.2637C34.6134 11.9504 34.4161 11.7164 34.1638 11.5618C33.9115 11.4071 33.6206 11.3298 33.291 11.3298C32.9614 11.3298 32.6664 11.4112 32.406 11.574C32.1497 11.7327 31.9462 11.9687 31.7957 12.282C31.6492 12.5953 31.5759 12.9798 31.5759 13.4355V13.9666C31.5759 14.4019 31.6492 14.7743 31.7957 15.0835C31.9421 15.3927 32.1497 15.6287 32.4182 15.7915C32.6908 15.9543 33.0123 16.0356 33.3826 16.0356C33.6674 16.0356 33.9115 15.997 34.115 15.9197C34.3225 15.8383 34.4914 15.7386 34.6216 15.6206C34.7559 15.5026 34.8474 15.3866 34.8962 15.2727L34.9207 15.2239H36.2024L36.1902 15.2788C36.1332 15.4985 36.0335 15.7183 35.8911 15.938C35.7487 16.1536 35.5595 16.351 35.3235 16.53C35.0916 16.7091 34.8108 16.8535 34.4812 16.9634C34.1557 17.0732 33.7793 17.1282 33.3521 17.1282ZM40.2551 17.1282C39.7221 17.1282 39.2582 17.0509 38.8635 16.8962C38.4688 16.7375 38.1555 16.5199 37.9236 16.2432C37.6917 15.9624 37.5553 15.6369 37.5146 15.2666V15.2544H38.8452V15.2666C38.9307 15.5148 39.0934 15.7162 39.3335 15.8708C39.5736 16.0255 39.891 16.1028 40.2856 16.1028C40.5583 16.1028 40.7963 16.0641 40.9998 15.9868C41.2073 15.9095 41.37 15.8017 41.488 15.6633C41.606 15.525 41.665 15.3663 41.665 15.1873V15.175C41.665 14.9675 41.5816 14.7926 41.4148 14.6501C41.248 14.5077 40.9733 14.3918 40.5908 14.3022L39.5288 14.0581C39.1138 13.9645 38.7699 13.8363 38.4973 13.6736C38.2247 13.5108 38.0233 13.3114 37.8931 13.0754C37.7629 12.8354 37.6978 12.5546 37.6978 12.2332V12.2271C37.6978 11.8405 37.8076 11.4987 38.0273 11.2017C38.2471 10.9006 38.5502 10.6666 38.9368 10.4998C39.3274 10.3289 39.7729 10.2434 40.2734 10.2434C40.778 10.2434 41.2174 10.3228 41.5918 10.4814C41.9702 10.6361 42.2693 10.8517 42.489 11.1284C42.7087 11.401 42.8389 11.7184 42.8796 12.0806V12.0867H41.6101V12.0745C41.5491 11.8425 41.4026 11.6493 41.1707 11.4946C40.9428 11.34 40.6417 11.2627 40.2673 11.2627C40.0273 11.2627 39.8136 11.3014 39.6265 11.3787C39.4393 11.4519 39.2908 11.5557 39.1809 11.6899C39.0751 11.8201 39.0222 11.9748 39.0222 12.1538V12.166C39.0222 12.3044 39.0568 12.4264 39.126 12.5322C39.1992 12.634 39.3132 12.7255 39.4678 12.8069C39.6224 12.8842 39.8218 12.9534 40.0659 13.0144L41.1218 13.2524C41.7566 13.403 42.2286 13.6207 42.5378 13.9055C42.8512 14.1903 43.0078 14.5728 43.0078 15.053V15.0652C43.0078 15.4721 42.8878 15.8322 42.6477 16.1455C42.4076 16.4548 42.0801 16.6969 41.665 16.8718C41.2541 17.0427 40.7841 17.1282 40.2551 17.1282ZM47.3718 17.1282C46.7289 17.1282 46.1735 16.9898 45.7056 16.7131C45.2417 16.4324 44.8836 16.0336 44.6313 15.5168C44.3791 15.0001 44.2529 14.3836 44.2529 13.6675V13.6553C44.2529 12.9513 44.377 12.3451 44.6252 11.8364C44.8775 11.3278 45.2356 10.9351 45.6995 10.6584C46.1674 10.3818 46.7228 10.2434 47.3657 10.2434C47.9232 10.2434 48.4013 10.3411 48.8 10.5364C49.2029 10.7276 49.5223 10.9921 49.7583 11.3298C49.9984 11.6635 50.1489 12.0439 50.21 12.4712L50.2161 12.5017H48.9404L48.9343 12.4895C48.8611 12.164 48.6922 11.8934 48.4277 11.6777C48.1632 11.458 47.8113 11.3481 47.3718 11.3481C47.0056 11.3481 46.6903 11.4417 46.4258 11.6289C46.1613 11.812 45.9578 12.0765 45.8154 12.4224C45.6771 12.7682 45.6079 13.1792 45.6079 13.6553V13.6675C45.6079 14.1558 45.6791 14.5749 45.8215 14.9248C45.9639 15.2747 46.1674 15.5453 46.4319 15.7366C46.6964 15.9237 47.0097 16.0173 47.3718 16.0173C47.7869 16.0173 48.1226 15.9258 48.3789 15.7427C48.6393 15.5596 48.8224 15.289 48.9282 14.9309L48.9404 14.9004L50.21 14.8943L50.1978 14.9492C50.1204 15.3805 49.9638 15.759 49.7278 16.0845C49.4918 16.41 49.1764 16.6663 48.7817 16.8535C48.3911 17.0366 47.9211 17.1282 47.3718 17.1282ZM51.7114 17V10.3716H53.0359V11.3726H53.1396C53.2576 11.0186 53.4652 10.7439 53.7622 10.5486C54.0633 10.3533 54.4336 10.2556 54.873 10.2556C54.9829 10.2556 55.0907 10.2617 55.1965 10.2739C55.3023 10.2861 55.3878 10.3004 55.4529 10.3167V11.5374C55.3349 11.5129 55.2169 11.4946 55.0989 11.4824C54.9849 11.4702 54.8649 11.4641 54.7388 11.4641C54.401 11.4641 54.104 11.5292 53.8477 11.6594C53.5954 11.7896 53.396 11.9727 53.2495 12.2087C53.1071 12.4407 53.0359 12.7174 53.0359 13.0388V17H51.7114ZM56.7468 17V10.3716H58.0774V17H56.7468ZM57.4182 9.1875C57.1903 9.1875 56.995 9.10612 56.8323 8.94336C56.6695 8.7806 56.5881 8.58529 56.5881 8.35742C56.5881 8.12956 56.6695 7.93628 56.8323 7.77759C56.995 7.61483 57.1903 7.53345 57.4182 7.53345C57.6461 7.53345 57.8414 7.61483 58.0042 7.77759C58.1669 7.93628 58.2483 8.12956 58.2483 8.35742C58.2483 8.58529 58.1669 8.7806 58.0042 8.94336C57.8414 9.10612 57.6461 9.1875 57.4182 9.1875ZM60 19.2095V10.3716H61.3245V11.4153H61.4282C61.5544 11.1711 61.7171 10.9636 61.9165 10.7927C62.12 10.6218 62.3519 10.4896 62.6123 10.396C62.8727 10.3024 63.1576 10.2556 63.4668 10.2556C64.0243 10.2556 64.5085 10.398 64.9194 10.6829C65.3304 10.9636 65.6478 11.3604 65.8716 11.873C66.0994 12.3817 66.2134 12.9839 66.2134 13.6797V13.6919C66.2134 14.3918 66.1015 14.998 65.8777 15.5107C65.6539 16.0194 65.3365 16.4141 64.9255 16.6948C64.5146 16.9715 64.0283 17.1099 63.4668 17.1099C63.1616 17.1099 62.8768 17.0631 62.6123 16.9695C62.3478 16.8718 62.1139 16.7375 61.9104 16.5667C61.7069 16.3958 61.5462 16.1903 61.4282 15.9502H61.3245V19.2095H60ZM63.0884 15.9746C63.4587 15.9746 63.776 15.8831 64.0405 15.7C64.305 15.5168 64.5064 15.2544 64.6448 14.9126C64.7872 14.5708 64.8584 14.1639 64.8584 13.6919V13.6797C64.8584 13.2036 64.7872 12.7947 64.6448 12.4529C64.5064 12.1111 64.305 11.8486 64.0405 11.6655C63.776 11.4824 63.4587 11.3909 63.0884 11.3909C62.7222 11.3909 62.4048 11.4845 62.1362 11.6716C61.8677 11.8547 61.6622 12.1172 61.5198 12.459C61.3774 12.7967 61.3062 13.2036 61.3062 13.6797V13.6919C61.3062 14.1598 61.3774 14.5647 61.5198 14.9065C61.6622 15.2483 61.8677 15.5128 62.1362 15.7C62.4048 15.8831 62.7222 15.9746 63.0884 15.9746ZM70.3027 17.0427C69.5785 17.0427 69.0535 16.9044 68.728 16.6277C68.4066 16.3469 68.2458 15.8892 68.2458 15.2544V11.4153H67.2083V10.3716H68.2458V8.69922H69.6008V10.3716H71.0229V11.4153H69.6008V14.9309C69.6008 15.289 69.672 15.5474 69.8145 15.7061C69.9569 15.8607 70.1929 15.938 70.5225 15.938C70.6201 15.938 70.7035 15.936 70.7727 15.9319C70.8459 15.9278 70.9294 15.9217 71.0229 15.9136V16.9756C70.9172 16.9919 70.8032 17.0061 70.6812 17.0183C70.5591 17.0346 70.4329 17.0427 70.3027 17.0427Z" fill="#4493F8"/>
</svg>
