<svg width="80" height="26" viewBox="0 0 80 26" fill="none" xmlns="http://www.w3.org/2000/svg">
<rect width="80" height="26" rx="13" fill="#141D2E"/>
<path d="M13.3264 17.0488C12.651 17.0488 12.1606 16.9125 11.8555 16.6399C11.5544 16.3673 11.4038 15.9176 11.4038 15.291V11.2993H10.3662V10.4204H11.4038V8.71753H12.5024V10.4204H13.9429V11.2993H12.5024V15.0225C12.5024 15.409 12.5757 15.6877 12.7222 15.8586C12.8687 16.0255 13.1128 16.1089 13.4546 16.1089C13.5482 16.1089 13.6275 16.1069 13.6926 16.1028C13.7618 16.0987 13.8452 16.0926 13.9429 16.0845V16.9878C13.8411 17.0041 13.7394 17.0183 13.6377 17.0305C13.536 17.0427 13.4322 17.0488 13.3264 17.0488ZM16.0913 19.3071C16.0221 19.3071 15.9448 19.3031 15.8594 19.2949C15.7739 19.2909 15.6946 19.2827 15.6213 19.2705V18.3977C15.6864 18.4099 15.7576 18.4181 15.835 18.4221C15.9123 18.4262 15.9875 18.4282 16.0608 18.4282C16.3619 18.4282 16.6081 18.3509 16.7993 18.1963C16.9946 18.0417 17.1513 17.7751 17.2693 17.3967L17.3914 17.0061L14.9561 10.4204H16.0913L18.1177 16.4995L17.6965 15.8342H18.197L17.7759 16.4995L19.7961 10.4204H20.9131L18.3435 17.4028C18.1645 17.8952 17.9753 18.2797 17.7759 18.5564C17.5765 18.8331 17.3425 19.0264 17.074 19.1362C16.8095 19.2502 16.4819 19.3071 16.0913 19.3071ZM22.3169 19.1973V10.4204H23.3789V11.4702H23.4766C23.6108 11.2261 23.7797 11.0186 23.9832 10.8477C24.1866 10.6727 24.4185 10.5384 24.679 10.4448C24.9394 10.3512 25.2222 10.3044 25.5273 10.3044C26.0848 10.3044 26.569 10.4469 26.98 10.7317C27.395 11.0125 27.7165 11.4071 27.9443 11.9158C28.1722 12.4244 28.2861 13.0205 28.2861 13.7041V13.7163C28.2861 14.404 28.1722 15.0021 27.9443 15.5107C27.7165 16.0194 27.395 16.4141 26.98 16.6948C26.569 16.9756 26.0848 17.116 25.5273 17.116C25.2262 17.116 24.9414 17.0692 24.6729 16.9756C24.4084 16.8779 24.1724 16.7437 23.9648 16.5728C23.7614 16.4019 23.5986 16.1984 23.4766 15.9624H23.3789V19.1973H22.3169ZM25.2832 16.176C25.686 16.176 26.0299 16.0784 26.3147 15.8831C26.5995 15.6837 26.8172 15.4009 26.9678 15.0347C27.1224 14.6644 27.1997 14.2249 27.1997 13.7163V13.7041C27.1997 13.1914 27.1224 12.752 26.9678 12.3857C26.8172 12.0195 26.5995 11.7388 26.3147 11.5435C26.0299 11.3441 25.686 11.2444 25.2832 11.2444C24.8844 11.2444 24.5406 11.3441 24.2517 11.5435C23.9628 11.7428 23.741 12.0256 23.5864 12.3918C23.4318 12.7581 23.3545 13.1955 23.3545 13.7041V13.7163C23.3545 14.2209 23.4318 14.6583 23.5864 15.0286C23.741 15.3948 23.9628 15.6776 24.2517 15.877C24.5406 16.0763 24.8844 16.176 25.2832 16.176ZM32.6318 17.116C32.0052 17.116 31.4661 16.9776 31.0144 16.7009C30.5668 16.4242 30.2209 16.0336 29.9768 15.5291C29.7367 15.0204 29.6167 14.4223 29.6167 13.7346V13.7285C29.6167 13.049 29.7367 12.4529 29.9768 11.9402C30.2209 11.4275 30.5648 11.0267 31.0083 10.7378C31.4518 10.4489 31.9706 10.3044 32.5647 10.3044C33.1628 10.3044 33.6755 10.4428 34.1028 10.7195C34.5341 10.9962 34.8637 11.3827 35.0916 11.8792C35.3235 12.3715 35.4395 12.9452 35.4395 13.6003V14.0154H30.166V13.167H34.8962L34.3713 13.9421V13.521C34.3713 13.0042 34.294 12.579 34.1394 12.2454C33.9848 11.9117 33.7712 11.6635 33.4985 11.5007C33.2259 11.3339 32.9126 11.2505 32.5586 11.2505C32.2046 11.2505 31.8872 11.338 31.6064 11.5129C31.3298 11.6838 31.11 11.9382 30.9473 12.2759C30.7845 12.6136 30.7031 13.0286 30.7031 13.521V13.9421C30.7031 14.4101 30.7825 14.8109 30.9412 15.1445C31.0999 15.4741 31.3257 15.7284 31.6187 15.9075C31.9116 16.0824 32.2575 16.1699 32.6562 16.1699C32.9533 16.1699 33.2117 16.1292 33.4314 16.0479C33.6511 15.9665 33.8322 15.8627 33.9746 15.7366C34.117 15.6104 34.2167 15.4823 34.2737 15.3521L34.2981 15.2971H35.3601L35.3479 15.3459C35.2909 15.5697 35.1892 15.7874 35.0427 15.999C34.9003 16.2065 34.7152 16.3958 34.4873 16.5667C34.2594 16.7335 33.9889 16.8678 33.6755 16.9695C33.3663 17.0671 33.0184 17.116 32.6318 17.116ZM39.3457 17.116C38.8574 17.116 38.4261 17.0427 38.0518 16.8962C37.6774 16.7457 37.3763 16.5361 37.1484 16.2676C36.9246 15.999 36.7924 15.6837 36.7517 15.3215H37.8381C37.9277 15.5942 38.1026 15.8139 38.363 15.9807C38.6235 16.1475 38.9632 16.231 39.3823 16.231C39.6794 16.231 39.9398 16.1882 40.1636 16.1028C40.3914 16.0133 40.5705 15.8932 40.7007 15.7427C40.8309 15.5881 40.896 15.4111 40.896 15.2117V15.1995C40.896 14.9757 40.8065 14.7865 40.6274 14.6318C40.4484 14.4731 40.1554 14.345 39.7485 14.2473L38.7292 14.0032C38.3183 13.9055 37.9806 13.7794 37.7161 13.6248C37.4516 13.4661 37.2563 13.2728 37.1301 13.0449C37.004 12.813 36.9409 12.5404 36.9409 12.2271V12.2209C36.9409 11.8547 37.0467 11.5272 37.2583 11.2383C37.474 10.9494 37.7669 10.7215 38.1372 10.5547C38.5075 10.3879 38.9246 10.3044 39.3884 10.3044C39.8482 10.3044 40.2551 10.3777 40.6091 10.5242C40.9672 10.6666 41.2541 10.87 41.4697 11.1345C41.6895 11.399 41.8237 11.7103 41.8726 12.0684H40.8289C40.7597 11.8079 40.601 11.5964 40.3528 11.4336C40.1046 11.2708 39.7811 11.1895 39.3823 11.1895C39.1219 11.1895 38.89 11.2322 38.6865 11.3176C38.4831 11.399 38.3223 11.5129 38.2043 11.6594C38.0863 11.8059 38.0273 11.9768 38.0273 12.1721V12.1843C38.0273 12.3308 38.066 12.461 38.1433 12.575C38.2206 12.6889 38.3407 12.7886 38.5034 12.874C38.6662 12.9595 38.8757 13.0347 39.1321 13.0999L40.1453 13.344C40.7638 13.4945 41.2236 13.7102 41.5247 13.991C41.8298 14.2717 41.9824 14.6481 41.9824 15.1201V15.1323C41.9824 15.5229 41.8665 15.8688 41.6345 16.1699C41.4026 16.467 41.0872 16.6989 40.6885 16.8657C40.2938 17.0326 39.8462 17.116 39.3457 17.116ZM46.322 17.116C45.7076 17.116 45.1746 16.9756 44.7229 16.6948C44.2712 16.4141 43.9213 16.0173 43.6731 15.5046C43.4249 14.9919 43.3008 14.3877 43.3008 13.6919V13.6797C43.3008 12.9961 43.4229 12.402 43.667 11.8975C43.9152 11.3929 44.2651 11.0023 44.7168 10.7256C45.1685 10.4448 45.7015 10.3044 46.3159 10.3044C46.849 10.3044 47.3088 10.398 47.6953 10.5852C48.0819 10.7724 48.3911 11.0247 48.623 11.342C48.855 11.6554 49.0035 12.0073 49.0686 12.3979L49.0747 12.4346H48.0188L48.0127 12.4163C47.9313 12.0907 47.7462 11.814 47.4573 11.5862C47.1684 11.3583 46.7879 11.2444 46.3159 11.2444C45.9212 11.2444 45.5794 11.3441 45.2905 11.5435C45.0016 11.7428 44.7778 12.0256 44.6191 12.3918C44.4645 12.754 44.3872 13.1833 44.3872 13.6797V13.6919C44.3872 14.1965 44.4666 14.6359 44.6252 15.0103C44.7839 15.3805 45.0077 15.6674 45.2966 15.8708C45.5855 16.0743 45.9253 16.176 46.3159 16.176C46.7594 16.176 47.1216 16.0804 47.4023 15.8892C47.6831 15.6979 47.8845 15.4192 48.0066 15.053L48.0188 15.0164L49.0686 15.0103L49.0564 15.0774C48.9669 15.4721 48.8082 15.8241 48.5803 16.1333C48.3525 16.4385 48.0514 16.6785 47.677 16.8535C47.3027 17.0285 46.851 17.116 46.322 17.116ZM50.625 17V10.4204H51.687V11.397H51.7847C51.9108 11.0511 52.1244 10.7826 52.4255 10.5913C52.7266 10.4001 53.099 10.3044 53.5425 10.3044C53.6442 10.3044 53.7439 10.3105 53.8416 10.3228C53.9433 10.3309 54.0206 10.339 54.0735 10.3472V11.3787C53.9636 11.3583 53.8558 11.3441 53.75 11.3359C53.6483 11.3237 53.5384 11.3176 53.4204 11.3176C53.0827 11.3176 52.7836 11.3848 52.5232 11.519C52.2628 11.6533 52.0573 11.8405 51.9067 12.0806C51.7603 12.3206 51.687 12.6014 51.687 12.9229V17H50.625ZM55.4102 17V10.4204H56.4722V17H55.4102ZM55.9473 9.15088C55.7479 9.15088 55.575 9.07967 55.4285 8.93726C55.2861 8.79077 55.2148 8.61784 55.2148 8.41846C55.2148 8.21501 55.2861 8.04207 55.4285 7.89966C55.575 7.75724 55.7479 7.68604 55.9473 7.68604C56.1507 7.68604 56.3236 7.75724 56.4661 7.89966C56.6085 8.04207 56.6797 8.21501 56.6797 8.41846C56.6797 8.61784 56.6085 8.79077 56.4661 8.93726C56.3236 9.07967 56.1507 9.15088 55.9473 9.15088ZM58.4741 19.1973V10.4204H59.5361V11.4702H59.6338C59.7681 11.2261 59.9369 11.0186 60.1404 10.8477C60.3438 10.6727 60.5758 10.5384 60.8362 10.4448C61.0966 10.3512 61.3794 10.3044 61.6846 10.3044C62.242 10.3044 62.7262 10.4469 63.1372 10.7317C63.5522 11.0125 63.8737 11.4071 64.1016 11.9158C64.3294 12.4244 64.4434 13.0205 64.4434 13.7041V13.7163C64.4434 14.404 64.3294 15.0021 64.1016 15.5107C63.8737 16.0194 63.5522 16.4141 63.1372 16.6948C62.7262 16.9756 62.242 17.116 61.6846 17.116C61.3835 17.116 61.0986 17.0692 60.8301 16.9756C60.5656 16.8779 60.3296 16.7437 60.1221 16.5728C59.9186 16.4019 59.7559 16.1984 59.6338 15.9624H59.5361V19.1973H58.4741ZM61.4404 16.176C61.8433 16.176 62.1871 16.0784 62.4719 15.8831C62.7568 15.6837 62.9744 15.4009 63.125 15.0347C63.2796 14.6644 63.3569 14.2249 63.3569 13.7163V13.7041C63.3569 13.1914 63.2796 12.752 63.125 12.3857C62.9744 12.0195 62.7568 11.7388 62.4719 11.5435C62.1871 11.3441 61.8433 11.2444 61.4404 11.2444C61.0417 11.2444 60.6978 11.3441 60.4089 11.5435C60.12 11.7428 59.8983 12.0256 59.7437 12.3918C59.589 12.7581 59.5117 13.1955 59.5117 13.7041V13.7163C59.5117 14.2209 59.589 14.6583 59.7437 15.0286C59.8983 15.3948 60.12 15.6776 60.4089 15.877C60.6978 16.0763 61.0417 16.176 61.4404 16.176ZM68.4412 17.0488C67.7657 17.0488 67.2754 16.9125 66.9702 16.6399C66.6691 16.3673 66.5186 15.9176 66.5186 15.291V11.2993H65.481V10.4204H66.5186V8.71753H67.6172V10.4204H69.0576V11.2993H67.6172V15.0225C67.6172 15.409 67.6904 15.6877 67.8369 15.8586C67.9834 16.0255 68.2275 16.1089 68.5693 16.1089C68.6629 16.1089 68.7423 16.1069 68.8074 16.1028C68.8765 16.0987 68.96 16.0926 69.0576 16.0845V16.9878C68.9559 17.0041 68.8542 17.0183 68.7524 17.0305C68.6507 17.0427 68.547 17.0488 68.4412 17.0488Z" fill="#4493F8"/>
</svg>
