<svg width="83" height="26" viewBox="0 0 83 26" fill="none" xmlns="http://www.w3.org/2000/svg">
<rect width="83" height="26" rx="13" fill="#141D2E"/>
<path d="M13.5522 17.0305C12.7873 17.0305 12.2359 16.8901 11.8982 16.6094C11.5605 16.3286 11.3916 15.8688 11.3916 15.23V11.5068H10.354V10.3289H11.3916V8.69312H12.9358V10.3289H14.3396V11.5068H12.9358V14.8699C12.9358 15.1995 13.005 15.4416 13.1433 15.5962C13.2857 15.7467 13.5136 15.822 13.8269 15.822C13.9368 15.822 14.0263 15.82 14.0955 15.8159C14.1687 15.8078 14.2501 15.7996 14.3396 15.7915V16.9634C14.2338 16.9837 14.1117 17 13.9734 17.0122C13.8391 17.0244 13.6987 17.0305 13.5522 17.0305ZM16.5735 19.3438C16.4799 19.3438 16.3822 19.3417 16.2805 19.3376C16.1829 19.3336 16.0872 19.3275 15.9937 19.3193V18.1536C16.0547 18.1617 16.1259 18.1658 16.2073 18.1658C16.2887 18.1698 16.368 18.1719 16.4453 18.1719C16.7586 18.1719 17.0089 18.1027 17.196 17.9644C17.3873 17.8301 17.5236 17.6124 17.605 17.3113L17.6843 17.0061L15.2979 10.3289H16.958L18.7158 16.2371L18.3008 15.5413H18.8257L18.4229 16.2371L20.1807 10.3289H21.7798L19.3872 17.1465C19.196 17.6999 18.9762 18.1373 18.728 18.4587C18.4798 18.7802 18.1807 19.0081 17.8308 19.1423C17.4849 19.2766 17.0658 19.3438 16.5735 19.3438ZM23.0737 19.2156V10.3289H24.5935V11.3726H24.6973C24.8193 11.1325 24.978 10.927 25.1733 10.7561C25.3727 10.5852 25.6026 10.453 25.863 10.3594C26.1235 10.2658 26.4103 10.219 26.7236 10.219C27.2811 10.219 27.7633 10.3594 28.1702 10.6401C28.5811 10.9209 28.8985 11.3197 29.1223 11.8364C29.3502 12.3491 29.4641 12.9574 29.4641 13.6614V13.6736C29.4641 14.3816 29.3522 14.9919 29.1284 15.5046C28.9046 16.0173 28.5872 16.4141 28.1763 16.6948C27.7694 16.9715 27.2852 17.1099 26.7236 17.1099C26.4185 17.1099 26.1336 17.0631 25.8691 16.9695C25.6047 16.8718 25.3727 16.7355 25.1733 16.5605C24.974 16.3856 24.8153 16.1781 24.6973 15.938H24.5935V19.2156H23.0737ZM26.2476 15.8281C26.5934 15.8281 26.8905 15.7427 27.1387 15.5718C27.3869 15.3968 27.5781 15.1486 27.7124 14.8271C27.8467 14.5016 27.9138 14.1171 27.9138 13.6736V13.6614C27.9138 13.2097 27.8467 12.8232 27.7124 12.5017C27.5781 12.1803 27.3869 11.9341 27.1387 11.7632C26.8905 11.5882 26.5934 11.5007 26.2476 11.5007C25.9017 11.5007 25.6026 11.5882 25.3503 11.7632C25.1021 11.9341 24.9089 12.1803 24.7705 12.5017C24.6362 12.8232 24.5691 13.2077 24.5691 13.6553V13.6675C24.5691 14.1151 24.6362 14.5016 24.7705 14.8271C24.9089 15.1486 25.1042 15.3968 25.3564 15.5718C25.6087 15.7427 25.9058 15.8281 26.2476 15.8281ZM33.8525 17.1343C33.1893 17.1343 32.6196 16.9939 32.1436 16.7131C31.6715 16.4324 31.3074 16.0336 31.051 15.5168C30.7947 15.0001 30.6665 14.3877 30.6665 13.6797V13.6736C30.6665 12.9737 30.7926 12.3634 31.0449 11.8425C31.3013 11.3217 31.6634 10.9189 32.1313 10.634C32.5993 10.3451 33.1486 10.2007 33.7793 10.2007C34.4141 10.2007 34.9593 10.3411 35.415 10.6218C35.8748 10.8985 36.2288 11.2871 36.4771 11.7876C36.7253 12.2881 36.8494 12.874 36.8494 13.5454V14.0459H31.4294V13.0266H36.1047L35.3845 13.9788V13.3745C35.3845 12.931 35.3174 12.5627 35.1831 12.2698C35.0488 11.9768 34.8617 11.7571 34.6216 11.6106C34.3856 11.4641 34.1109 11.3909 33.7976 11.3909C33.4843 11.3909 33.2056 11.4682 32.9614 11.6228C32.7214 11.7734 32.5301 11.9972 32.3877 12.2942C32.2493 12.5872 32.1802 12.9473 32.1802 13.3745V13.9849C32.1802 14.3958 32.2493 14.7478 32.3877 15.0408C32.526 15.3297 32.7214 15.5535 32.9736 15.7122C33.23 15.8668 33.5331 15.9441 33.8831 15.9441C34.1557 15.9441 34.3896 15.9054 34.585 15.8281C34.7843 15.7467 34.9451 15.6511 35.0671 15.5413C35.1892 15.4273 35.2747 15.3195 35.3235 15.2178L35.3418 15.175H36.7822L36.77 15.23C36.7171 15.4456 36.6195 15.6654 36.4771 15.8892C36.3387 16.1089 36.1495 16.3144 35.9094 16.5056C35.6734 16.6928 35.3845 16.8454 35.0427 16.9634C34.7009 17.0773 34.3042 17.1343 33.8525 17.1343ZM40.8899 17.1343C40.3243 17.1343 39.836 17.0549 39.425 16.8962C39.0181 16.7335 38.6967 16.5097 38.4607 16.2249C38.2247 15.936 38.0843 15.6023 38.0396 15.2239V15.2117H39.5471L39.5532 15.2239C39.6346 15.4558 39.7872 15.645 40.011 15.7915C40.2348 15.938 40.5359 16.0112 40.9143 16.0112C41.1666 16.0112 41.3883 15.9766 41.5796 15.9075C41.7708 15.8342 41.9214 15.7345 42.0312 15.6084C42.1411 15.4823 42.196 15.3358 42.196 15.1689V15.1567C42.196 14.9614 42.1167 14.7987 41.958 14.6685C41.7993 14.5342 41.5369 14.4264 41.1707 14.345L40.0903 14.1008C39.6672 14.0072 39.3172 13.877 39.0405 13.7102C38.7638 13.5434 38.5563 13.3379 38.418 13.0938C38.2837 12.8496 38.2166 12.5648 38.2166 12.2393V12.2332C38.2166 11.8303 38.3285 11.4763 38.5522 11.1711C38.7801 10.866 39.0955 10.6279 39.4983 10.457C39.9011 10.2861 40.365 10.2007 40.8899 10.2007C41.4311 10.2007 41.897 10.2821 42.2876 10.4448C42.6782 10.6076 42.9834 10.8314 43.2031 11.1162C43.4229 11.401 43.549 11.7245 43.5815 12.0867V12.0989H42.1533L42.1472 12.0806C42.0903 11.869 41.9539 11.6899 41.7383 11.5435C41.5267 11.3929 41.2419 11.3176 40.8838 11.3176C40.66 11.3176 40.4586 11.3522 40.2795 11.4214C40.1046 11.4906 39.9662 11.5882 39.8645 11.7144C39.7668 11.8364 39.718 11.9809 39.718 12.1477V12.1538C39.718 12.284 39.7506 12.3979 39.8157 12.4956C39.8848 12.5933 39.9927 12.6787 40.1392 12.752C40.2856 12.8252 40.4789 12.8903 40.719 12.9473L41.7993 13.1853C42.4544 13.3318 42.9386 13.5495 43.252 13.8384C43.5653 14.1273 43.7219 14.5159 43.7219 15.0042V15.0164C43.7219 15.4395 43.5999 15.8098 43.3557 16.1272C43.1116 16.4446 42.7759 16.6928 42.3486 16.8718C41.9214 17.0468 41.4351 17.1343 40.8899 17.1343ZM48.1165 17.1343C47.4451 17.1343 46.8713 16.9959 46.3953 16.7192C45.9192 16.4425 45.555 16.0438 45.3027 15.5229C45.0505 15.0021 44.9243 14.3796 44.9243 13.6553V13.6431C44.9243 12.9229 45.0505 12.3064 45.3027 11.7937C45.555 11.281 45.9192 10.8883 46.3953 10.6157C46.8713 10.339 47.443 10.2007 48.1104 10.2007C48.6841 10.2007 49.1764 10.3004 49.5874 10.4998C50.0024 10.6951 50.33 10.9677 50.5701 11.3176C50.8142 11.6635 50.9648 12.0684 51.0217 12.5322V12.5566H49.5874L49.5813 12.5383C49.5121 12.2128 49.3534 11.9463 49.1052 11.7388C48.8611 11.5312 48.5315 11.4275 48.1165 11.4275C47.7706 11.4275 47.4736 11.515 47.2253 11.6899C46.9812 11.8649 46.794 12.1172 46.6638 12.4468C46.5336 12.7764 46.4685 13.1751 46.4685 13.6431V13.6553C46.4685 14.1273 46.5336 14.5321 46.6638 14.8699C46.7981 15.2035 46.9873 15.4599 47.2314 15.6389C47.4756 15.8139 47.7706 15.9014 48.1165 15.9014C48.5111 15.9014 48.8285 15.8118 49.0686 15.6328C49.3127 15.4538 49.4816 15.1893 49.5752 14.8394L49.5874 14.8149L51.0156 14.8088L51.0095 14.8638C50.9363 15.3154 50.7776 15.7122 50.5334 16.054C50.2934 16.3958 49.9719 16.6623 49.5691 16.8535C49.1663 17.0407 48.682 17.1343 48.1165 17.1343ZM52.4683 17V10.3289H53.988V11.3542H54.0918C54.2057 10.9962 54.4092 10.7174 54.7021 10.5181C54.9992 10.3187 55.3674 10.219 55.8069 10.219C55.9208 10.219 56.0327 10.2271 56.1426 10.2434C56.2565 10.2556 56.3501 10.2719 56.4233 10.2922V11.6533C56.3013 11.6248 56.1772 11.6045 56.051 11.5923C55.929 11.576 55.8008 11.5679 55.6665 11.5679C55.3288 11.5679 55.0338 11.6309 54.7815 11.7571C54.5292 11.8832 54.3339 12.0643 54.1956 12.3003C54.0572 12.5322 53.988 12.8069 53.988 13.1243V17H52.4683ZM57.6746 17V10.3289H59.1882V17H57.6746ZM58.4375 9.21191C58.1893 9.21191 57.9757 9.12443 57.7966 8.94946C57.6176 8.7745 57.5281 8.56494 57.5281 8.3208C57.5281 8.06852 57.6176 7.85693 57.7966 7.68604C57.9757 7.51107 58.1893 7.42358 58.4375 7.42358C58.6857 7.42358 58.8973 7.51107 59.0723 7.68604C59.2513 7.85693 59.3408 8.06852 59.3408 8.3208C59.3408 8.56494 59.2513 8.7745 59.0723 8.94946C58.8973 9.12443 58.6857 9.21191 58.4375 9.21191ZM61.062 19.2156V10.3289H62.5818V11.3726H62.6855C62.8076 11.1325 62.9663 10.927 63.1616 10.7561C63.361 10.5852 63.5909 10.453 63.8513 10.3594C64.1117 10.2658 64.3986 10.219 64.7119 10.219C65.2694 10.219 65.7515 10.3594 66.1584 10.6401C66.5694 10.9209 66.8868 11.3197 67.1106 11.8364C67.3385 12.3491 67.4524 12.9574 67.4524 13.6614V13.6736C67.4524 14.3816 67.3405 14.9919 67.1167 15.5046C66.8929 16.0173 66.5755 16.4141 66.1646 16.6948C65.7576 16.9715 65.2734 17.1099 64.7119 17.1099C64.4067 17.1099 64.1219 17.0631 63.8574 16.9695C63.5929 16.8718 63.361 16.7355 63.1616 16.5605C62.9622 16.3856 62.8035 16.1781 62.6855 15.938H62.5818V19.2156H61.062ZM64.2358 15.8281C64.5817 15.8281 64.8787 15.7427 65.127 15.5718C65.3752 15.3968 65.5664 15.1486 65.7007 14.8271C65.835 14.5016 65.9021 14.1171 65.9021 13.6736V13.6614C65.9021 13.2097 65.835 12.8232 65.7007 12.5017C65.5664 12.1803 65.3752 11.9341 65.127 11.7632C64.8787 11.5882 64.5817 11.5007 64.2358 11.5007C63.89 11.5007 63.5909 11.5882 63.3386 11.7632C63.0904 11.9341 62.8971 12.1803 62.7588 12.5017C62.6245 12.8232 62.5574 13.2077 62.5574 13.6553V13.6675C62.5574 14.1151 62.6245 14.5016 62.7588 14.8271C62.8971 15.1486 63.0924 15.3968 63.3447 15.5718C63.597 15.7427 63.894 15.8281 64.2358 15.8281ZM71.6089 17.0305C70.8439 17.0305 70.2926 16.8901 69.9548 16.6094C69.6171 16.3286 69.4482 15.8688 69.4482 15.23V11.5068H68.4106V10.3289H69.4482V8.69312H70.9924V10.3289H72.3962V11.5068H70.9924V14.8699C70.9924 15.1995 71.0616 15.4416 71.2 15.5962C71.3424 15.7467 71.5702 15.822 71.8835 15.822C71.9934 15.822 72.0829 15.82 72.1521 15.8159C72.2253 15.8078 72.3067 15.7996 72.3962 15.7915V16.9634C72.2904 16.9837 72.1684 17 72.03 17.0122C71.8958 17.0244 71.7554 17.0305 71.6089 17.0305Z" fill="#4493F8"/>
</svg>
